solid 
 facet normal -1.000000e+00  0.000000e+00  0.000000e+00
   outer loop
     vertex  0.000000e+00  0.000000e+00  3.000000e+01
     vertex  0.000000e+00  5.000000e+01  0.000000e+00
     vertex  0.000000e+00  0.000000e+00  0.000000e+00
   endloop
 endfacet
 facet normal -1.000000e+00  0.000000e+00  0.000000e+00
   outer loop
     vertex  0.000000e+00  0.000000e+00  3.000000e+01
     vertex  0.000000e+00  5.000000e+01  3.000000e+01
     vertex  0.000000e+00  5.000000e+01  0.000000e+00
   endloop
 endfacet
 facet normal  0.000000e+00 -1.000000e+00  0.000000e+00
   outer loop
     vertex  2.250000e+01  0.000000e+00  0.000000e+00
     vertex  8.000000e+00  0.000000e+00  1.000000e+01
     vertex  0.000000e+00  0.000000e+00  0.000000e+00
   endloop
 endfacet
 facet normal -0.000000e+00 -1.000000e+00 -0.000000e+00
   outer loop
     vertex  2.000000e+01  0.000000e+00  1.000000e+01
     vertex  8.000000e+00  0.000000e+00  1.000000e+01
     vertex  2.250000e+01  0.000000e+00  0.000000e+00
   endloop
 endfacet
 facet normal  0.000000e+00 -1.000000e+00  0.000000e+00
   outer loop
     vertex  0.000000e+00  0.000000e+00  3.000000e+01
     vertex  8.000000e+00  0.000000e+00  1.000000e+01
     vertex  8.000000e+00  0.000000e+00  2.200000e+01
   endloop
 endfacet
 facet normal  0.000000e+00 -1.000000e+00  0.000000e+00
   outer loop
     vertex  0.000000e+00  0.000000e+00  3.000000e+01
     vertex  0.000000e+00  0.000000e+00  0.000000e+00
     vertex  8.000000e+00  0.000000e+00  1.000000e+01
   endloop
 endfacet
 facet normal  0.000000e+00 -1.000000e+00  0.000000e+00
   outer loop
     vertex  2.250000e+01  0.000000e+00  2.500000e+01
     vertex  8.000000e+00  0.000000e+00  2.200000e+01
     vertex  2.000000e+01  0.000000e+00  2.200000e+01
   endloop
 endfacet
 facet normal -0.000000e+00 -1.000000e+00  0.000000e+00
   outer loop
     vertex  2.250000e+01  0.000000e+00  2.500000e+01
     vertex  0.000000e+00  0.000000e+00  3.000000e+01
     vertex  8.000000e+00  0.000000e+00  2.200000e+01
   endloop
 endfacet
 facet normal  0.000000e+00 -1.000000e+00 -0.000000e+00
   outer loop
     vertex  5.200000e+01  0.000000e+00  1.000000e+01
     vertex  3.750000e+01  0.000000e+00  0.000000e+00
     vertex  6.000000e+01  0.000000e+00  0.000000e+00
   endloop
 endfacet
 facet normal -0.000000e+00 -1.000000e+00  0.000000e+00
   outer loop
     vertex  5.200000e+01  0.000000e+00  1.000000e+01
     vertex  4.000000e+01  0.000000e+00  1.000000e+01
     vertex  3.750000e+01  0.000000e+00  0.000000e+00
   endloop
 endfacet
 facet normal  0.000000e+00 -1.000000e+00  0.000000e+00
   outer loop
     vertex  5.200000e+01  0.000000e+00  2.200000e+01
     vertex  3.750000e+01  0.000000e+00  2.500000e+01
     vertex  4.000000e+01  0.000000e+00  2.200000e+01
   endloop
 endfacet
 facet normal  0.000000e+00 -1.000000e+00  0.000000e+00
   outer loop
     vertex  6.000000e+01  0.000000e+00  3.000000e+01
     vertex  5.200000e+01  0.000000e+00  2.200000e+01
     vertex  5.200000e+01  0.000000e+00  1.000000e+01
   endloop
 endfacet
 facet normal  0.000000e+00 -1.000000e+00 -0.000000e+00
   outer loop
     vertex  6.000000e+01  0.000000e+00  3.000000e+01
     vertex  5.200000e+01  0.000000e+00  1.000000e+01
     vertex  6.000000e+01  0.000000e+00  0.000000e+00
   endloop
 endfacet
 facet normal  0.000000e+00 -1.000000e+00  0.000000e+00
   outer loop
     vertex  6.000000e+01  0.000000e+00  3.000000e+01
     vertex  3.750000e+01  0.000000e+00  2.500000e+01
     vertex  5.200000e+01  0.000000e+00  2.200000e+01
   endloop
 endfacet
 facet normal  0.000000e+00 -1.000000e+00  0.000000e+00
   outer loop
     vertex  0.000000e+00  0.000000e+00  3.000000e+01
     vertex  3.750000e+01  0.000000e+00  2.500000e+01
     vertex  6.000000e+01  0.000000e+00  3.000000e+01
   endloop
 endfacet
 facet normal  0.000000e+00 -1.000000e+00  0.000000e+00
   outer loop
     vertex  0.000000e+00  0.000000e+00  3.000000e+01
     vertex  2.250000e+01  0.000000e+00  2.500000e+01
     vertex  3.750000e+01  0.000000e+00  2.500000e+01
   endloop
 endfacet
 facet normal  0.000000e+00 -1.000000e+00  0.000000e+00
   outer loop
     vertex  3.750000e+01  0.000000e+00  0.000000e+00
     vertex  4.000000e+01  0.000000e+00  2.200000e+01
     vertex  3.750000e+01  0.000000e+00  2.500000e+01
   endloop
 endfacet
 facet normal  0.000000e+00 -1.000000e+00  0.000000e+00
   outer loop
     vertex  3.750000e+01  0.000000e+00  0.000000e+00
     vertex  4.000000e+01  0.000000e+00  1.000000e+01
     vertex  4.000000e+01  0.000000e+00  2.200000e+01
   endloop
 endfacet
 facet normal  0.000000e+00 -1.000000e+00 -0.000000e+00
   outer loop
     vertex  2.250000e+01  0.000000e+00  2.500000e+01
     vertex  2.000000e+01  0.000000e+00  1.000000e+01
     vertex  2.250000e+01  0.000000e+00  0.000000e+00
   endloop
 endfacet
 facet normal  0.000000e+00 -1.000000e+00  0.000000e+00
   outer loop
     vertex  2.250000e+01  0.000000e+00  2.500000e+01
     vertex  2.000000e+01  0.000000e+00  2.200000e+01
     vertex  2.000000e+01  0.000000e+00  1.000000e+01
   endloop
 endfacet
 facet normal -1.000000e+00  0.000000e+00  0.000000e+00
   outer loop
     vertex  0.000000e+00  0.000000e+00  3.000000e+01
     vertex  0.000000e+00  2.500000e+01  4.500000e+01
     vertex  0.000000e+00  5.000000e+01  3.000000e+01
   endloop
 endfacet
 facet normal  0.000000e+00  1.000000e+00  0.000000e+00
   outer loop
     vertex  2.250000e+01  5.000000e+01  0.000000e+00
     vertex  0.000000e+00  5.000000e+01  0.000000e+00
     vertex  8.000000e+00  5.000000e+01  1.000000e+01
   endloop
 endfacet
 facet normal  0.000000e+00  1.000000e+00  0.000000e+00
   outer loop
     vertex  2.000000e+01  5.000000e+01  1.000000e+01
     vertex  2.250000e+01  5.000000e+01  0.000000e+00
     vertex  8.000000e+00  5.000000e+01  1.000000e+01
   endloop
 endfacet
 facet normal  0.000000e+00  1.000000e+00  0.000000e+00
   outer loop
     vertex  0.000000e+00  5.000000e+01  3.000000e+01
     vertex  8.000000e+00  5.000000e+01  2.200000e+01
     vertex  8.000000e+00  5.000000e+01  1.000000e+01
   endloop
 endfacet
 facet normal  0.000000e+00  1.000000e+00  0.000000e+00
   outer loop
     vertex  0.000000e+00  5.000000e+01  3.000000e+01
     vertex  8.000000e+00  5.000000e+01  1.000000e+01
     vertex  0.000000e+00  5.000000e+01  0.000000e+00
   endloop
 endfacet
 facet normal  0.000000e+00  1.000000e+00  0.000000e+00
   outer loop
     vertex  2.250000e+01  5.000000e+01  2.500000e+01
     vertex  2.000000e+01  5.000000e+01  2.200000e+01
     vertex  8.000000e+00  5.000000e+01  2.200000e+01
   endloop
 endfacet
 facet normal  0.000000e+00  1.000000e+00  0.000000e+00
   outer loop
     vertex  2.250000e+01  5.000000e+01  2.500000e+01
     vertex  8.000000e+00  5.000000e+01  2.200000e+01
     vertex  0.000000e+00  5.000000e+01  3.000000e+01
   endloop
 endfacet
 facet normal  0.000000e+00  1.000000e+00  0.000000e+00
   outer loop
     vertex  5.200000e+01  5.000000e+01  1.000000e+01
     vertex  6.000000e+01  5.000000e+01  0.000000e+00
     vertex  3.750000e+01  5.000000e+01  0.000000e+00
   endloop
 endfacet
 facet normal  0.000000e+00  1.000000e+00  0.000000e+00
   outer loop
     vertex  5.200000e+01  5.000000e+01  1.000000e+01
     vertex  3.750000e+01  5.000000e+01  0.000000e+00
     vertex  4.000000e+01  5.000000e+01  1.000000e+01
   endloop
 endfacet
 facet normal  0.000000e+00  1.000000e+00  0.000000e+00
   outer loop
     vertex  5.200000e+01  5.000000e+01  2.200000e+01
     vertex  4.000000e+01  5.000000e+01  2.200000e+01
     vertex  3.750000e+01  5.000000e+01  2.500000e+01
   endloop
 endfacet
 facet normal  0.000000e+00  1.000000e+00  0.000000e+00
   outer loop
     vertex  6.000000e+01  5.000000e+01  3.000000e+01
     vertex  5.200000e+01  5.000000e+01  1.000000e+01
     vertex  5.200000e+01  5.000000e+01  2.200000e+01
   endloop
 endfacet
 facet normal  0.000000e+00  1.000000e+00  0.000000e+00
   outer loop
     vertex  6.000000e+01  5.000000e+01  3.000000e+01
     vertex  6.000000e+01  5.000000e+01  0.000000e+00
     vertex  5.200000e+01  5.000000e+01  1.000000e+01
   endloop
 endfacet
 facet normal  0.000000e+00  1.000000e+00  0.000000e+00
   outer loop
     vertex  6.000000e+01  5.000000e+01  3.000000e+01
     vertex  5.200000e+01  5.000000e+01  2.200000e+01
     vertex  3.750000e+01  5.000000e+01  2.500000e+01
   endloop
 endfacet
 facet normal -0.000000e+00  1.000000e+00  0.000000e+00
   outer loop
     vertex  0.000000e+00  5.000000e+01  3.000000e+01
     vertex  6.000000e+01  5.000000e+01  3.000000e+01
     vertex  3.750000e+01  5.000000e+01  2.500000e+01
   endloop
 endfacet
 facet normal  0.000000e+00  1.000000e+00  0.000000e+00
   outer loop
     vertex  0.000000e+00  5.000000e+01  3.000000e+01
     vertex  3.750000e+01  5.000000e+01  2.500000e+01
     vertex  2.250000e+01  5.000000e+01  2.500000e+01
   endloop
 endfacet
 facet normal  0.000000e+00  1.000000e+00  0.000000e+00
   outer loop
     vertex  3.750000e+01  5.000000e+01  0.000000e+00
     vertex  3.750000e+01  5.000000e+01  2.500000e+01
     vertex  4.000000e+01  5.000000e+01  2.200000e+01
   endloop
 endfacet
 facet normal  0.000000e+00  1.000000e+00  0.000000e+00
   outer loop
     vertex  3.750000e+01  5.000000e+01  0.000000e+00
     vertex  4.000000e+01  5.000000e+01  2.200000e+01
     vertex  4.000000e+01  5.000000e+01  1.000000e+01
   endloop
 endfacet
 facet normal  0.000000e+00  1.000000e+00  0.000000e+00
   outer loop
     vertex  2.250000e+01  5.000000e+01  2.500000e+01
     vertex  2.250000e+01  5.000000e+01  0.000000e+00
     vertex  2.000000e+01  5.000000e+01  1.000000e+01
   endloop
 endfacet
 facet normal  0.000000e+00  1.000000e+00  0.000000e+00
   outer loop
     vertex  2.250000e+01  5.000000e+01  2.500000e+01
     vertex  2.000000e+01  5.000000e+01  1.000000e+01
     vertex  2.000000e+01  5.000000e+01  2.200000e+01
   endloop
 endfacet
 facet normal  0.000000e+00  0.000000e+00 -1.000000e+00
   outer loop
     vertex  0.000000e+00  5.000000e+01  0.000000e+00
     vertex  2.250000e+01  0.000000e+00  0.000000e+00
     vertex  0.000000e+00  0.000000e+00  0.000000e+00
   endloop
 endfacet
 facet normal -0.000000e+00 -0.000000e+00 -1.000000e+00
   outer loop
     vertex  2.250000e+01  5.000000e+01  0.000000e+00
     vertex  2.250000e+01  0.000000e+00  0.000000e+00
     vertex  0.000000e+00  5.000000e+01  0.000000e+00
   endloop
 endfacet
 facet normal  1.000000e+00  0.000000e+00  0.000000e+00
   outer loop
     vertex  2.250000e+01  0.000000e+00  2.500000e+01
     vertex  2.250000e+01  0.000000e+00  0.000000e+00
     vertex  2.250000e+01  5.000000e+01  0.000000e+00
   endloop
 endfacet
 facet normal  1.000000e+00 -0.000000e+00  0.000000e+00
   outer loop
     vertex  2.250000e+01  0.000000e+00  2.500000e+01
     vertex  2.250000e+01  5.000000e+01  0.000000e+00
     vertex  2.250000e+01  5.000000e+01  2.500000e+01
   endloop
 endfacet
 facet normal  0.000000e+00 -5.144958e-01  8.574929e-01
   outer loop
     vertex  0.000000e+00  2.500000e+01  4.500000e+01
     vertex  6.000000e+01  0.000000e+00  3.000000e+01
     vertex  6.000000e+01  2.500000e+01  4.500000e+01
   endloop
 endfacet
 facet normal  0.000000e+00 -5.144958e-01  8.574929e-01
   outer loop
     vertex  0.000000e+00  0.000000e+00  3.000000e+01
     vertex  6.000000e+01  0.000000e+00  3.000000e+01
     vertex  0.000000e+00  2.500000e+01  4.500000e+01
   endloop
 endfacet
 facet normal  0.000000e+00  0.000000e+00 -1.000000e+00
   outer loop
     vertex  2.250000e+01  5.000000e+01  2.500000e+01
     vertex  3.750000e+01  0.000000e+00  2.500000e+01
     vertex  2.250000e+01  0.000000e+00  2.500000e+01
   endloop
 endfacet
 facet normal -0.000000e+00 -0.000000e+00 -1.000000e+00
   outer loop
     vertex  3.750000e+01  5.000000e+01  2.500000e+01
     vertex  3.750000e+01  0.000000e+00  2.500000e+01
     vertex  2.250000e+01  5.000000e+01  2.500000e+01
   endloop
 endfacet
 facet normal  1.000000e+00  0.000000e+00  0.000000e+00
   outer loop
     vertex  6.000000e+01  0.000000e+00  3.000000e+01
     vertex  6.000000e+01  0.000000e+00  0.000000e+00
     vertex  6.000000e+01  5.000000e+01  0.000000e+00
   endloop
 endfacet
 facet normal  1.000000e+00 -0.000000e+00  0.000000e+00
   outer loop
     vertex  6.000000e+01  0.000000e+00  3.000000e+01
     vertex  6.000000e+01  5.000000e+01  0.000000e+00
     vertex  6.000000e+01  5.000000e+01  3.000000e+01
   endloop
 endfacet
 facet normal -1.000000e+00  0.000000e+00  0.000000e+00
   outer loop
     vertex  3.750000e+01  0.000000e+00  2.500000e+01
     vertex  3.750000e+01  5.000000e+01  0.000000e+00
     vertex  3.750000e+01  0.000000e+00  0.000000e+00
   endloop
 endfacet
 facet normal -1.000000e+00  0.000000e+00  0.000000e+00
   outer loop
     vertex  3.750000e+01  0.000000e+00  2.500000e+01
     vertex  3.750000e+01  5.000000e+01  2.500000e+01
     vertex  3.750000e+01  5.000000e+01  0.000000e+00
   endloop
 endfacet
 facet normal  0.000000e+00  0.000000e+00 -1.000000e+00
   outer loop
     vertex  3.750000e+01  5.000000e+01  0.000000e+00
     vertex  6.000000e+01  0.000000e+00  0.000000e+00
     vertex  3.750000e+01  0.000000e+00  0.000000e+00
   endloop
 endfacet
 facet normal -0.000000e+00 -0.000000e+00 -1.000000e+00
   outer loop
     vertex  6.000000e+01  5.000000e+01  0.000000e+00
     vertex  6.000000e+01  0.000000e+00  0.000000e+00
     vertex  3.750000e+01  5.000000e+01  0.000000e+00
   endloop
 endfacet
 facet normal  1.000000e+00  0.000000e+00  0.000000e+00
   outer loop
     vertex  8.000000e+00  0.000000e+00  2.200000e+01
     vertex  8.000000e+00  0.000000e+00  1.000000e+01
     vertex  8.000000e+00  5.000000e+01  1.000000e+01
   endloop
 endfacet
 facet normal  1.000000e+00 -0.000000e+00  0.000000e+00
   outer loop
     vertex  8.000000e+00  0.000000e+00  2.200000e+01
     vertex  8.000000e+00  5.000000e+01  1.000000e+01
     vertex  8.000000e+00  5.000000e+01  2.200000e+01
   endloop
 endfacet
 facet normal  0.000000e+00  0.000000e+00  1.000000e+00
   outer loop
     vertex  2.000000e+01  5.000000e+01  1.000000e+01
     vertex  8.000000e+00  5.000000e+01  1.000000e+01
     vertex  8.000000e+00  0.000000e+00  1.000000e+01
   endloop
 endfacet
 facet normal  0.000000e+00  0.000000e+00  1.000000e+00
   outer loop
     vertex  2.000000e+01  5.000000e+01  1.000000e+01
     vertex  8.000000e+00  0.000000e+00  1.000000e+01
     vertex  2.000000e+01  0.000000e+00  1.000000e+01
   endloop
 endfacet
 facet normal -0.000000e+00  0.000000e+00 -1.000000e+00
   outer loop
     vertex  2.000000e+01  5.000000e+01  2.200000e+01
     vertex  8.000000e+00  0.000000e+00  2.200000e+01
     vertex  8.000000e+00  5.000000e+01  2.200000e+01
   endloop
 endfacet
 facet normal  0.000000e+00 -0.000000e+00 -1.000000e+00
   outer loop
     vertex  2.000000e+01  5.000000e+01  2.200000e+01
     vertex  2.000000e+01  0.000000e+00  2.200000e+01
     vertex  8.000000e+00  0.000000e+00  2.200000e+01
   endloop
 endfacet
 facet normal -1.000000e+00  0.000000e+00  0.000000e+00
   outer loop
     vertex  2.000000e+01  0.000000e+00  2.200000e+01
     vertex  2.000000e+01  5.000000e+01  1.000000e+01
     vertex  2.000000e+01  0.000000e+00  1.000000e+01
   endloop
 endfacet
 facet normal -1.000000e+00  0.000000e+00  0.000000e+00
   outer loop
     vertex  2.000000e+01  0.000000e+00  2.200000e+01
     vertex  2.000000e+01  5.000000e+01  2.200000e+01
     vertex  2.000000e+01  5.000000e+01  1.000000e+01
   endloop
 endfacet
 facet normal  1.000000e+00  0.000000e+00  0.000000e+00
   outer loop
     vertex  4.000000e+01  0.000000e+00  2.200000e+01
     vertex  4.000000e+01  0.000000e+00  1.000000e+01
     vertex  4.000000e+01  5.000000e+01  1.000000e+01
   endloop
 endfacet
 facet normal  1.000000e+00 -0.000000e+00  0.000000e+00
   outer loop
     vertex  4.000000e+01  0.000000e+00  2.200000e+01
     vertex  4.000000e+01  5.000000e+01  1.000000e+01
     vertex  4.000000e+01  5.000000e+01  2.200000e+01
   endloop
 endfacet
 facet normal -0.000000e+00  0.000000e+00 -1.000000e+00
   outer loop
     vertex  5.200000e+01  5.000000e+01  2.200000e+01
     vertex  4.000000e+01  0.000000e+00  2.200000e+01
     vertex  4.000000e+01  5.000000e+01  2.200000e+01
   endloop
 endfacet
 facet normal  0.000000e+00 -0.000000e+00 -1.000000e+00
   outer loop
     vertex  5.200000e+01  5.000000e+01  2.200000e+01
     vertex  5.200000e+01  0.000000e+00  2.200000e+01
     vertex  4.000000e+01  0.000000e+00  2.200000e+01
   endloop
 endfacet
 facet normal -1.000000e+00  0.000000e+00  0.000000e+00
   outer loop
     vertex  5.200000e+01  0.000000e+00  2.200000e+01
     vertex  5.200000e+01  5.000000e+01  1.000000e+01
     vertex  5.200000e+01  0.000000e+00  1.000000e+01
   endloop
 endfacet
 facet normal -1.000000e+00  0.000000e+00  0.000000e+00
   outer loop
     vertex  5.200000e+01  0.000000e+00  2.200000e+01
     vertex  5.200000e+01  5.000000e+01  2.200000e+01
     vertex  5.200000e+01  5.000000e+01  1.000000e+01
   endloop
 endfacet
 facet normal  0.000000e+00  0.000000e+00  1.000000e+00
   outer loop
     vertex  5.200000e+01  5.000000e+01  1.000000e+01
     vertex  4.000000e+01  5.000000e+01  1.000000e+01
     vertex  4.000000e+01  0.000000e+00  1.000000e+01
   endloop
 endfacet
 facet normal  0.000000e+00  0.000000e+00  1.000000e+00
   outer loop
     vertex  5.200000e+01  5.000000e+01  1.000000e+01
     vertex  4.000000e+01  0.000000e+00  1.000000e+01
     vertex  5.200000e+01  0.000000e+00  1.000000e+01
   endloop
 endfacet
 facet normal  0.000000e+00  5.144958e-01  8.574929e-01
   outer loop
     vertex  0.000000e+00  2.500000e+01  4.500000e+01
     vertex  6.000000e+01  5.000000e+01  3.000000e+01
     vertex  0.000000e+00  5.000000e+01  3.000000e+01
   endloop
 endfacet
 facet normal -0.000000e+00  5.144958e-01  8.574929e-01
   outer loop
     vertex  0.000000e+00  2.500000e+01  4.500000e+01
     vertex  6.000000e+01  2.500000e+01  4.500000e+01
     vertex  6.000000e+01  5.000000e+01  3.000000e+01
   endloop
 endfacet
 facet normal  1.000000e+00  0.000000e+00  0.000000e+00
   outer loop
     vertex  6.000000e+01  0.000000e+00  3.000000e+01
     vertex  6.000000e+01  5.000000e+01  3.000000e+01
     vertex  6.000000e+01  2.500000e+01  4.500000e+01
   endloop
 endfacet
endsolid
