solid 
 facet normal -1.000000e+00  0.000000e+00  0.000000e+00
   outer loop
     vertex  0.000000e+00  0.000000e+00  1.000000e+01
     vertex  0.000000e+00  4.000000e+01  0.000000e+00
     vertex  0.000000e+00  0.000000e+00  0.000000e+00
   endloop
 endfacet
 facet normal -1.000000e+00  0.000000e+00  0.000000e+00
   outer loop
     vertex  0.000000e+00  0.000000e+00  1.000000e+01
     vertex  0.000000e+00  4.000000e+01  1.000000e+01
     vertex  0.000000e+00  4.000000e+01  0.000000e+00
   endloop
 endfacet
 facet normal  0.000000e+00 -1.000000e+00 -0.000000e+00
   outer loop
     vertex  4.000000e+01  0.000000e+00  1.000000e+01
     vertex  0.000000e+00  0.000000e+00  0.000000e+00
     vertex  4.000000e+01  0.000000e+00  0.000000e+00
   endloop
 endfacet
 facet normal -0.000000e+00 -1.000000e+00  0.000000e+00
   outer loop
     vertex  4.000000e+01  0.000000e+00  1.000000e+01
     vertex  0.000000e+00  0.000000e+00  1.000000e+01
     vertex  0.000000e+00  0.000000e+00  0.000000e+00
   endloop
 endfacet
 facet normal  0.000000e+00 -0.000000e+00 -1.000000e+00
   outer loop
     vertex  0.000000e+00  4.000000e+01  1.000000e+01
     vertex  0.000000e+00  0.000000e+00  1.000000e+01
     vertex -1.035276e+01  3.863703e+01  1.000000e+01
   endloop
 endfacet
 facet normal  0.000000e+00 -0.000000e+00 -1.000000e+00
   outer loop
     vertex  2.828427e+01  4.898979e+01  1.000000e+01
     vertex  3.069308e+01  4.000000e+01  1.000000e+01
     vertex  0.000000e+00  4.000000e+01  1.000000e+01
   endloop
 endfacet
 facet normal  0.000000e+00  0.000000e+00 -1.000000e+00
   outer loop
     vertex  2.828427e+01  4.898979e+01  1.000000e+01
     vertex  0.000000e+00  4.000000e+01  1.000000e+01
     vertex -1.035276e+01  3.863703e+01  1.000000e+01
   endloop
 endfacet
 facet normal  0.000000e+00  1.000000e+00  0.000000e+00
   outer loop
     vertex  3.069308e+01  4.000000e+01  1.000000e+01
     vertex  4.000000e+01  4.000000e+01  0.000000e+00
     vertex  0.000000e+00  4.000000e+01  0.000000e+00
   endloop
 endfacet
 facet normal  0.000000e+00  1.000000e+00  0.000000e+00
   outer loop
     vertex  3.069308e+01  4.000000e+01  1.000000e+01
     vertex  0.000000e+00  4.000000e+01  0.000000e+00
     vertex  0.000000e+00  4.000000e+01  1.000000e+01
   endloop
 endfacet
 facet normal  0.000000e+00  1.000000e+00  0.000000e+00
   outer loop
     vertex  4.000000e+01  4.000000e+01  1.000000e+01
     vertex  4.000000e+01  4.000000e+01  0.000000e+00
     vertex  3.069308e+01  4.000000e+01  1.000000e+01
   endloop
 endfacet
 facet normal -0.000000e+00  0.000000e+00 -1.000000e+00
   outer loop
     vertex  4.000000e+01  4.000000e+01  0.000000e+00
     vertex  0.000000e+00  0.000000e+00  0.000000e+00
     vertex  0.000000e+00  4.000000e+01  0.000000e+00
   endloop
 endfacet
 facet normal  0.000000e+00 -0.000000e+00 -1.000000e+00
   outer loop
     vertex  4.000000e+01  4.000000e+01  0.000000e+00
     vertex  4.000000e+01  0.000000e+00  0.000000e+00
     vertex  0.000000e+00  0.000000e+00  0.000000e+00
   endloop
 endfacet
 facet normal  1.000000e+00  0.000000e+00  0.000000e+00
   outer loop
     vertex  4.000000e+01  0.000000e+00  1.000000e+01
     vertex  4.000000e+01  0.000000e+00  0.000000e+00
     vertex  4.000000e+01  4.000000e+01  0.000000e+00
   endloop
 endfacet
 facet normal  1.000000e+00 -0.000000e+00  0.000000e+00
   outer loop
     vertex  4.000000e+01  0.000000e+00  1.000000e+01
     vertex  4.000000e+01  4.000000e+01  0.000000e+00
     vertex  4.000000e+01  4.000000e+01  1.000000e+01
   endloop
 endfacet
 facet normal  0.000000e+00  0.000000e+00  1.000000e+00
   outer loop
     vertex  3.863703e+01  1.035276e+01  1.000000e+01
     vertex  0.000000e+00  0.000000e+00  1.000000e+01
     vertex  4.000000e+01  0.000000e+00  1.000000e+01
   endloop
 endfacet
 facet normal  0.000000e+00  0.000000e+00  1.000000e+00
   outer loop
     vertex  4.000000e+01  4.000000e+01  1.000000e+01
     vertex  3.069308e+01  4.000000e+01  1.000000e+01
     vertex  3.863703e+01  1.035276e+01  1.000000e+01
   endloop
 endfacet
 facet normal  0.000000e+00 -0.000000e+00  1.000000e+00
   outer loop
     vertex  4.000000e+01  0.000000e+00  1.000000e+01
     vertex  4.000000e+01  4.000000e+01  1.000000e+01
     vertex  3.863703e+01  1.035276e+01  1.000000e+01
   endloop
 endfacet
 facet normal -9.659258e-01 -2.588190e-01 -0.000000e+00
   outer loop
     vertex  0.000000e+00  0.000000e+00  2.000000e+01
     vertex -1.035276e+01  3.863703e+01  1.000000e+01
     vertex  0.000000e+00  0.000000e+00  1.000000e+01
   endloop
 endfacet
 facet normal -9.659258e-01 -2.588190e-01  0.000000e+00
   outer loop
     vertex  0.000000e+00  0.000000e+00  2.000000e+01
     vertex -1.035276e+01  3.863703e+01  2.000000e+01
     vertex -1.035276e+01  3.863703e+01  1.000000e+01
   endloop
 endfacet
 facet normal -2.588190e-01  9.659258e-01  2.131628e-16
   outer loop
     vertex  1.929448e+01  4.658099e+01  2.000000e+01
     vertex  2.828427e+01  4.898979e+01  1.000000e+01
     vertex -1.035276e+01  3.863703e+01  1.000000e+01
   endloop
 endfacet
 facet normal -2.588190e-01  9.659258e-01  0.000000e+00
   outer loop
     vertex  1.929448e+01  4.658099e+01  2.000000e+01
     vertex -1.035276e+01  3.863703e+01  1.000000e+01
     vertex -1.035276e+01  3.863703e+01  2.000000e+01
   endloop
 endfacet
 facet normal -2.588190e-01  9.659258e-01  0.000000e+00
   outer loop
     vertex  2.828427e+01  4.898979e+01  2.000000e+01
     vertex  2.828427e+01  4.898979e+01  1.000000e+01
     vertex  1.929448e+01  4.658099e+01  2.000000e+01
   endloop
 endfacet
 facet normal  9.659258e-01  2.588190e-01  0.000000e+00
   outer loop
     vertex  2.828427e+01  4.898979e+01  2.000000e+01
     vertex  3.069308e+01  4.000000e+01  1.000000e+01
     vertex  2.828427e+01  4.898979e+01  1.000000e+01
   endloop
 endfacet
 facet normal  9.659258e-01  2.588190e-01  0.000000e+00
   outer loop
     vertex  3.863703e+01  1.035276e+01  2.000000e+01
     vertex  3.863703e+01  1.035276e+01  1.000000e+01
     vertex  3.069308e+01  4.000000e+01  1.000000e+01
   endloop
 endfacet
 facet normal  9.659258e-01  2.588190e-01  2.842171e-16
   outer loop
     vertex  3.863703e+01  1.035276e+01  2.000000e+01
     vertex  3.069308e+01  4.000000e+01  1.000000e+01
     vertex  2.828427e+01  4.898979e+01  2.000000e+01
   endloop
 endfacet
 facet normal  2.588190e-01 -9.659258e-01  0.000000e+00
   outer loop
     vertex  3.863703e+01  1.035276e+01  2.000000e+01
     vertex  0.000000e+00  0.000000e+00  1.000000e+01
     vertex  3.863703e+01  1.035276e+01  1.000000e+01
   endloop
 endfacet
 facet normal  2.588190e-01 -9.659258e-01  0.000000e+00
   outer loop
     vertex  3.863703e+01  1.035276e+01  2.000000e+01
     vertex  0.000000e+00  0.000000e+00  2.000000e+01
     vertex  0.000000e+00  0.000000e+00  1.000000e+01
   endloop
 endfacet
 facet normal  0.000000e+00 -0.000000e+00 -1.000000e+00
   outer loop
     vertex -1.035276e+01  3.863703e+01  2.000000e+01
     vertex  0.000000e+00  0.000000e+00  2.000000e+01
     vertex -2.000000e+01  3.464102e+01  2.000000e+01
   endloop
 endfacet
 facet normal  0.000000e+00 -0.000000e+00 -1.000000e+00
   outer loop
     vertex  1.464102e+01  5.464102e+01  2.000000e+01
     vertex  1.929448e+01  4.658099e+01  2.000000e+01
     vertex -1.035276e+01  3.863703e+01  2.000000e+01
   endloop
 endfacet
 facet normal  0.000000e+00  0.000000e+00 -1.000000e+00
   outer loop
     vertex  1.464102e+01  5.464102e+01  2.000000e+01
     vertex -1.035276e+01  3.863703e+01  2.000000e+01
     vertex -2.000000e+01  3.464102e+01  2.000000e+01
   endloop
 endfacet
 facet normal  0.000000e+00  0.000000e+00  1.000000e+00
   outer loop
     vertex  3.464102e+01  2.000000e+01  2.000000e+01
     vertex  0.000000e+00  0.000000e+00  2.000000e+01
     vertex  3.863703e+01  1.035276e+01  2.000000e+01
   endloop
 endfacet
 facet normal  0.000000e+00  0.000000e+00  1.000000e+00
   outer loop
     vertex  2.828427e+01  4.898979e+01  2.000000e+01
     vertex  1.929448e+01  4.658099e+01  2.000000e+01
     vertex  3.464102e+01  2.000000e+01  2.000000e+01
   endloop
 endfacet
 facet normal  0.000000e+00  0.000000e+00  1.000000e+00
   outer loop
     vertex  3.863703e+01  1.035276e+01  2.000000e+01
     vertex  2.828427e+01  4.898979e+01  2.000000e+01
     vertex  3.464102e+01  2.000000e+01  2.000000e+01
   endloop
 endfacet
 facet normal -8.660254e-01 -5.000000e-01 -0.000000e+00
   outer loop
     vertex  0.000000e+00  0.000000e+00  3.000000e+01
     vertex -2.000000e+01  3.464102e+01  2.000000e+01
     vertex  0.000000e+00  0.000000e+00  2.000000e+01
   endloop
 endfacet
 facet normal -8.660254e-01 -5.000000e-01  0.000000e+00
   outer loop
     vertex  0.000000e+00  0.000000e+00  3.000000e+01
     vertex -2.000000e+01  3.464102e+01  3.000000e+01
     vertex -2.000000e+01  3.464102e+01  2.000000e+01
   endloop
 endfacet
 facet normal -5.000000e-01  8.660254e-01 -8.171241e-16
   outer loop
     vertex  6.580987e+00  4.998756e+01  3.000000e+01
     vertex  1.464102e+01  5.464102e+01  2.000000e+01
     vertex -2.000000e+01  3.464102e+01  2.000000e+01
   endloop
 endfacet
 facet normal -5.000000e-01  8.660254e-01  0.000000e+00
   outer loop
     vertex  6.580987e+00  4.998756e+01  3.000000e+01
     vertex -2.000000e+01  3.464102e+01  2.000000e+01
     vertex -2.000000e+01  3.464102e+01  3.000000e+01
   endloop
 endfacet
 facet normal -5.000000e-01  8.660254e-01  0.000000e+00
   outer loop
     vertex  1.464102e+01  5.464102e+01  3.000000e+01
     vertex  1.464102e+01  5.464102e+01  2.000000e+01
     vertex  6.580987e+00  4.998756e+01  3.000000e+01
   endloop
 endfacet
 facet normal  8.660254e-01  5.000000e-01  0.000000e+00
   outer loop
     vertex  1.464102e+01  5.464102e+01  3.000000e+01
     vertex  1.929448e+01  4.658099e+01  2.000000e+01
     vertex  1.464102e+01  5.464102e+01  2.000000e+01
   endloop
 endfacet
 facet normal  8.660254e-01  5.000000e-01  0.000000e+00
   outer loop
     vertex  3.464102e+01  2.000000e+01  3.000000e+01
     vertex  3.464102e+01  2.000000e+01  2.000000e+01
     vertex  1.929448e+01  4.658099e+01  2.000000e+01
   endloop
 endfacet
 facet normal  8.660254e-01  5.000000e-01  0.000000e+00
   outer loop
     vertex  3.464102e+01  2.000000e+01  3.000000e+01
     vertex  1.929448e+01  4.658099e+01  2.000000e+01
     vertex  1.464102e+01  5.464102e+01  3.000000e+01
   endloop
 endfacet
 facet normal  5.000000e-01 -8.660254e-01  0.000000e+00
   outer loop
     vertex  3.464102e+01  2.000000e+01  3.000000e+01
     vertex  0.000000e+00  0.000000e+00  2.000000e+01
     vertex  3.464102e+01  2.000000e+01  2.000000e+01
   endloop
 endfacet
 facet normal  5.000000e-01 -8.660254e-01  0.000000e+00
   outer loop
     vertex  3.464102e+01  2.000000e+01  3.000000e+01
     vertex  0.000000e+00  0.000000e+00  3.000000e+01
     vertex  0.000000e+00  0.000000e+00  2.000000e+01
   endloop
 endfacet
 facet normal  0.000000e+00 -0.000000e+00 -1.000000e+00
   outer loop
     vertex -2.000000e+01  3.464102e+01  3.000000e+01
     vertex  0.000000e+00  0.000000e+00  3.000000e+01
     vertex -2.828427e+01  2.828427e+01  3.000000e+01
   endloop
 endfacet
 facet normal  0.000000e+00 -0.000000e+00 -1.000000e+00
   outer loop
     vertex  3.552714e-15  5.656854e+01  3.000000e+01
     vertex  6.580987e+00  4.998756e+01  3.000000e+01
     vertex -2.000000e+01  3.464102e+01  3.000000e+01
   endloop
 endfacet
 facet normal  0.000000e+00  0.000000e+00 -1.000000e+00
   outer loop
     vertex  3.552714e-15  5.656854e+01  3.000000e+01
     vertex -2.000000e+01  3.464102e+01  3.000000e+01
     vertex -2.828427e+01  2.828427e+01  3.000000e+01
   endloop
 endfacet
 facet normal  0.000000e+00  0.000000e+00  1.000000e+00
   outer loop
     vertex  2.828427e+01  2.828427e+01  3.000000e+01
     vertex  0.000000e+00  0.000000e+00  3.000000e+01
     vertex  3.464102e+01  2.000000e+01  3.000000e+01
   endloop
 endfacet
 facet normal  0.000000e+00  0.000000e+00  1.000000e+00
   outer loop
     vertex  1.464102e+01  5.464102e+01  3.000000e+01
     vertex  6.580987e+00  4.998756e+01  3.000000e+01
     vertex  2.828427e+01  2.828427e+01  3.000000e+01
   endloop
 endfacet
 facet normal  0.000000e+00  0.000000e+00  1.000000e+00
   outer loop
     vertex  3.464102e+01  2.000000e+01  3.000000e+01
     vertex  1.464102e+01  5.464102e+01  3.000000e+01
     vertex  2.828427e+01  2.828427e+01  3.000000e+01
   endloop
 endfacet
 facet normal -7.071068e-01 -7.071068e-01 -0.000000e+00
   outer loop
     vertex  0.000000e+00  0.000000e+00  4.000000e+01
     vertex -2.828427e+01  2.828427e+01  3.000000e+01
     vertex  0.000000e+00  0.000000e+00  3.000000e+01
   endloop
 endfacet
 facet normal -7.071068e-01 -7.071068e-01  0.000000e+00
   outer loop
     vertex  0.000000e+00  0.000000e+00  4.000000e+01
     vertex -2.828427e+01  2.828427e+01  4.000000e+01
     vertex -2.828427e+01  2.828427e+01  3.000000e+01
   endloop
 endfacet
 facet normal -7.071068e-01  7.071068e-01  1.421085e-16
   outer loop
     vertex -6.580987e+00  4.998756e+01  4.000000e+01
     vertex  3.552714e-15  5.656854e+01  3.000000e+01
     vertex -2.828427e+01  2.828427e+01  3.000000e+01
   endloop
 endfacet
 facet normal -7.071068e-01  7.071068e-01  0.000000e+00
   outer loop
     vertex -6.580987e+00  4.998756e+01  4.000000e+01
     vertex -2.828427e+01  2.828427e+01  3.000000e+01
     vertex -2.828427e+01  2.828427e+01  4.000000e+01
   endloop
 endfacet
 facet normal -7.071068e-01  7.071068e-01  0.000000e+00
   outer loop
     vertex  3.552714e-15  5.656854e+01  4.000000e+01
     vertex  3.552714e-15  5.656854e+01  3.000000e+01
     vertex -6.580987e+00  4.998756e+01  4.000000e+01
   endloop
 endfacet
 facet normal  7.071068e-01  7.071068e-01  0.000000e+00
   outer loop
     vertex  3.552714e-15  5.656854e+01  4.000000e+01
     vertex  6.580987e+00  4.998756e+01  3.000000e+01
     vertex  3.552714e-15  5.656854e+01  3.000000e+01
   endloop
 endfacet
 facet normal  7.071068e-01  7.071068e-01  0.000000e+00
   outer loop
     vertex  2.828427e+01  2.828427e+01  4.000000e+01
     vertex  2.828427e+01  2.828427e+01  3.000000e+01
     vertex  6.580987e+00  4.998756e+01  3.000000e+01
   endloop
 endfacet
 facet normal  7.071068e-01  7.071068e-01  2.842171e-16
   outer loop
     vertex  2.828427e+01  2.828427e+01  4.000000e+01
     vertex  6.580987e+00  4.998756e+01  3.000000e+01
     vertex  3.552714e-15  5.656854e+01  4.000000e+01
   endloop
 endfacet
 facet normal  7.071068e-01 -7.071068e-01  0.000000e+00
   outer loop
     vertex  2.828427e+01  2.828427e+01  4.000000e+01
     vertex  0.000000e+00  0.000000e+00  3.000000e+01
     vertex  2.828427e+01  2.828427e+01  3.000000e+01
   endloop
 endfacet
 facet normal  7.071068e-01 -7.071068e-01  0.000000e+00
   outer loop
     vertex  2.828427e+01  2.828427e+01  4.000000e+01
     vertex  0.000000e+00  0.000000e+00  4.000000e+01
     vertex  0.000000e+00  0.000000e+00  3.000000e+01
   endloop
 endfacet
 facet normal  0.000000e+00 -0.000000e+00 -1.000000e+00
   outer loop
     vertex -2.828427e+01  2.828427e+01  4.000000e+01
     vertex  0.000000e+00  0.000000e+00  4.000000e+01
     vertex -3.464102e+01  2.000000e+01  4.000000e+01
   endloop
 endfacet
 facet normal  0.000000e+00 -0.000000e+00 -1.000000e+00
   outer loop
     vertex -1.464102e+01  5.464102e+01  4.000000e+01
     vertex -6.580987e+00  4.998756e+01  4.000000e+01
     vertex -2.828427e+01  2.828427e+01  4.000000e+01
   endloop
 endfacet
 facet normal  0.000000e+00  0.000000e+00 -1.000000e+00
   outer loop
     vertex -1.464102e+01  5.464102e+01  4.000000e+01
     vertex -2.828427e+01  2.828427e+01  4.000000e+01
     vertex -3.464102e+01  2.000000e+01  4.000000e+01
   endloop
 endfacet
 facet normal  0.000000e+00  0.000000e+00  1.000000e+00
   outer loop
     vertex  2.000000e+01  3.464102e+01  4.000000e+01
     vertex  0.000000e+00  0.000000e+00  4.000000e+01
     vertex  2.828427e+01  2.828427e+01  4.000000e+01
   endloop
 endfacet
 facet normal  0.000000e+00  0.000000e+00  1.000000e+00
   outer loop
     vertex  3.552714e-15  5.656854e+01  4.000000e+01
     vertex -6.580987e+00  4.998756e+01  4.000000e+01
     vertex  2.000000e+01  3.464102e+01  4.000000e+01
   endloop
 endfacet
 facet normal  0.000000e+00  0.000000e+00  1.000000e+00
   outer loop
     vertex  2.828427e+01  2.828427e+01  4.000000e+01
     vertex  3.552714e-15  5.656854e+01  4.000000e+01
     vertex  2.000000e+01  3.464102e+01  4.000000e+01
   endloop
 endfacet
 facet normal -5.000000e-01 -8.660254e-01 -0.000000e+00
   outer loop
     vertex  0.000000e+00  0.000000e+00  5.000000e+01
     vertex -3.464102e+01  2.000000e+01  4.000000e+01
     vertex  0.000000e+00  0.000000e+00  4.000000e+01
   endloop
 endfacet
 facet normal -5.000000e-01 -8.660254e-01  0.000000e+00
   outer loop
     vertex  0.000000e+00  0.000000e+00  5.000000e+01
     vertex -3.464102e+01  2.000000e+01  5.000000e+01
     vertex -3.464102e+01  2.000000e+01  4.000000e+01
   endloop
 endfacet
 facet normal -8.660254e-01  5.000000e-01  0.000000e+00
   outer loop
     vertex -1.464102e+01  5.464102e+01  5.000000e+01
     vertex -1.464102e+01  5.464102e+01  4.000000e+01
     vertex -3.464102e+01  2.000000e+01  4.000000e+01
   endloop
 endfacet
 facet normal -8.660254e-01  5.000000e-01  0.000000e+00
   outer loop
     vertex -1.464102e+01  5.464102e+01  5.000000e+01
     vertex -3.464102e+01  2.000000e+01  4.000000e+01
     vertex -3.464102e+01  2.000000e+01  5.000000e+01
   endloop
 endfacet
 facet normal  5.000000e-01  8.660254e-01  0.000000e+00
   outer loop
     vertex -1.464102e+01  5.464102e+01  5.000000e+01
     vertex -6.580987e+00  4.998756e+01  4.000000e+01
     vertex -1.464102e+01  5.464102e+01  4.000000e+01
   endloop
 endfacet
 facet normal  5.000000e-01  8.660254e-01  0.000000e+00
   outer loop
     vertex  2.000000e+01  3.464102e+01  5.000000e+01
     vertex  2.000000e+01  3.464102e+01  4.000000e+01
     vertex -6.580987e+00  4.998756e+01  4.000000e+01
   endloop
 endfacet
 facet normal  5.000000e-01  8.660254e-01  8.526513e-16
   outer loop
     vertex  2.000000e+01  3.464102e+01  5.000000e+01
     vertex -6.580987e+00  4.998756e+01  4.000000e+01
     vertex -1.464102e+01  5.464102e+01  5.000000e+01
   endloop
 endfacet
 facet normal  8.660254e-01 -5.000000e-01  0.000000e+00
   outer loop
     vertex  2.000000e+01  3.464102e+01  5.000000e+01
     vertex  0.000000e+00  0.000000e+00  4.000000e+01
     vertex  2.000000e+01  3.464102e+01  4.000000e+01
   endloop
 endfacet
 facet normal  8.660254e-01 -5.000000e-01  0.000000e+00
   outer loop
     vertex  2.000000e+01  3.464102e+01  5.000000e+01
     vertex  0.000000e+00  0.000000e+00  5.000000e+01
     vertex  0.000000e+00  0.000000e+00  4.000000e+01
   endloop
 endfacet
 facet normal  0.000000e+00  0.000000e+00  1.000000e+00
   outer loop
     vertex -1.464102e+01  5.464102e+01  5.000000e+01
     vertex -3.464102e+01  2.000000e+01  5.000000e+01
     vertex  0.000000e+00  0.000000e+00  5.000000e+01
   endloop
 endfacet
 facet normal  0.000000e+00  0.000000e+00  1.000000e+00
   outer loop
     vertex -1.464102e+01  5.464102e+01  5.000000e+01
     vertex  0.000000e+00  0.000000e+00  5.000000e+01
     vertex  2.000000e+01  3.464102e+01  5.000000e+01
   endloop
 endfacet
endsolid
