solid 
 facet normal -1.000000e+00  0.000000e+00  0.000000e+00
   outer loop
     vertex  0.000000e+00  0.000000e+00  4.000000e+01
     vertex  0.000000e+00  1.000000e+01  0.000000e+00
     vertex  0.000000e+00  0.000000e+00  0.000000e+00
   endloop
 endfacet
 facet normal -1.000000e+00  0.000000e+00  0.000000e+00
   outer loop
     vertex  0.000000e+00  0.000000e+00  4.000000e+01
     vertex  0.000000e+00  1.000000e+01  4.000000e+01
     vertex  0.000000e+00  1.000000e+01  0.000000e+00
   endloop
 endfacet
 facet normal  0.000000e+00  0.000000e+00  1.000000e+00
   outer loop
     vertex  0.000000e+00  1.000000e+01  4.000000e+01
     vertex  0.000000e+00  0.000000e+00  4.000000e+01
     vertex  1.000000e+01  0.000000e+00  4.000000e+01
   endloop
 endfacet
 facet normal  0.000000e+00  0.000000e+00  1.000000e+00
   outer loop
     vertex  1.000000e+01  1.500000e+01  4.000000e+01
     vertex  1.000000e+01  0.000000e+00  4.000000e+01
     vertex  1.500000e+01  1.000000e+01  4.000000e+01
   endloop
 endfacet
 facet normal  0.000000e+00  0.000000e+00  1.000000e+00
   outer loop
     vertex  1.000000e+01  1.500000e+01  4.000000e+01
     vertex  0.000000e+00  1.000000e+01  4.000000e+01
     vertex  1.000000e+01  0.000000e+00  4.000000e+01
   endloop
 endfacet
 facet normal  0.000000e+00  0.000000e+00  1.000000e+00
   outer loop
     vertex  2.500000e+01  1.000000e+01  4.000000e+01
     vertex  1.000000e+01  1.500000e+01  4.000000e+01
     vertex  1.500000e+01  1.000000e+01  4.000000e+01
   endloop
 endfacet
 facet normal  0.000000e+00  0.000000e+00  1.000000e+00
   outer loop
     vertex  3.000000e+01  1.500000e+01  4.000000e+01
     vertex  2.500000e+01  1.000000e+01  4.000000e+01
     vertex  3.000000e+01  0.000000e+00  4.000000e+01
   endloop
 endfacet
 facet normal  0.000000e+00  0.000000e+00  1.000000e+00
   outer loop
     vertex  3.000000e+01  1.500000e+01  4.000000e+01
     vertex  1.000000e+01  1.500000e+01  4.000000e+01
     vertex  2.500000e+01  1.000000e+01  4.000000e+01
   endloop
 endfacet
 facet normal  0.000000e+00  0.000000e+00  1.000000e+00
   outer loop
     vertex  4.000000e+01  1.000000e+01  4.000000e+01
     vertex  3.000000e+01  0.000000e+00  4.000000e+01
     vertex  4.000000e+01  0.000000e+00  4.000000e+01
   endloop
 endfacet
 facet normal  0.000000e+00  0.000000e+00  1.000000e+00
   outer loop
     vertex  4.000000e+01  1.000000e+01  4.000000e+01
     vertex  3.000000e+01  1.500000e+01  4.000000e+01
     vertex  3.000000e+01  0.000000e+00  4.000000e+01
   endloop
 endfacet
 facet normal  0.000000e+00  0.000000e+00  1.000000e+00
   outer loop
     vertex  1.000000e+01  4.000000e+01  4.000000e+01
     vertex  0.000000e+00  4.000000e+01  4.000000e+01
     vertex  0.000000e+00  3.000000e+01  4.000000e+01
   endloop
 endfacet
 facet normal  0.000000e+00  0.000000e+00  1.000000e+00
   outer loop
     vertex  1.000000e+01  4.000000e+01  4.000000e+01
     vertex  0.000000e+00  3.000000e+01  4.000000e+01
     vertex  1.000000e+01  2.500000e+01  4.000000e+01
   endloop
 endfacet
 facet normal  0.000000e+00  0.000000e+00  1.000000e+00
   outer loop
     vertex  1.000000e+01  4.000000e+01  4.000000e+01
     vertex  1.000000e+01  2.500000e+01  4.000000e+01
     vertex  1.500000e+01  3.000000e+01  4.000000e+01
   endloop
 endfacet
 facet normal  0.000000e+00  0.000000e+00  1.000000e+00
   outer loop
     vertex  2.500000e+01  3.000000e+01  4.000000e+01
     vertex  1.000000e+01  2.500000e+01  4.000000e+01
     vertex  1.000000e+01  1.500000e+01  4.000000e+01
   endloop
 endfacet
 facet normal  0.000000e+00  0.000000e+00  1.000000e+00
   outer loop
     vertex  2.500000e+01  3.000000e+01  4.000000e+01
     vertex  3.000000e+01  1.500000e+01  4.000000e+01
     vertex  3.000000e+01  2.500000e+01  4.000000e+01
   endloop
 endfacet
 facet normal  0.000000e+00  0.000000e+00  1.000000e+00
   outer loop
     vertex  2.500000e+01  3.000000e+01  4.000000e+01
     vertex  1.000000e+01  1.500000e+01  4.000000e+01
     vertex  3.000000e+01  1.500000e+01  4.000000e+01
   endloop
 endfacet
 facet normal  0.000000e+00  0.000000e+00  1.000000e+00
   outer loop
     vertex  2.500000e+01  3.000000e+01  4.000000e+01
     vertex  1.500000e+01  3.000000e+01  4.000000e+01
     vertex  1.000000e+01  2.500000e+01  4.000000e+01
   endloop
 endfacet
 facet normal  0.000000e+00  0.000000e+00  1.000000e+00
   outer loop
     vertex  4.000000e+01  3.000000e+01  4.000000e+01
     vertex  3.000000e+01  4.000000e+01  4.000000e+01
     vertex  2.500000e+01  3.000000e+01  4.000000e+01
   endloop
 endfacet
 facet normal  0.000000e+00  0.000000e+00  1.000000e+00
   outer loop
     vertex  4.000000e+01  3.000000e+01  4.000000e+01
     vertex  2.500000e+01  3.000000e+01  4.000000e+01
     vertex  3.000000e+01  2.500000e+01  4.000000e+01
   endloop
 endfacet
 facet normal  0.000000e+00  0.000000e+00  1.000000e+00
   outer loop
     vertex  4.000000e+01  4.000000e+01  4.000000e+01
     vertex  3.000000e+01  4.000000e+01  4.000000e+01
     vertex  4.000000e+01  3.000000e+01  4.000000e+01
   endloop
 endfacet
 facet normal -4.472136e-01  8.944272e-01  0.000000e+00
   outer loop
     vertex  1.000000e+01  1.500000e+01  0.000000e+00
     vertex  0.000000e+00  1.000000e+01  4.000000e+01
     vertex  1.000000e+01  1.500000e+01  4.000000e+01
   endloop
 endfacet
 facet normal -4.472136e-01  8.944272e-01  0.000000e+00
   outer loop
     vertex  0.000000e+00  1.000000e+01  0.000000e+00
     vertex  0.000000e+00  1.000000e+01  4.000000e+01
     vertex  1.000000e+01  1.500000e+01  0.000000e+00
   endloop
 endfacet
 facet normal  0.000000e+00  0.000000e+00 -1.000000e+00
   outer loop
     vertex  0.000000e+00  1.000000e+01  0.000000e+00
     vertex  1.000000e+01  0.000000e+00  0.000000e+00
     vertex  0.000000e+00  0.000000e+00  0.000000e+00
   endloop
 endfacet
 facet normal  0.000000e+00  0.000000e+00 -1.000000e+00
   outer loop
     vertex  1.000000e+01  1.500000e+01  0.000000e+00
     vertex  1.500000e+01  1.000000e+01  0.000000e+00
     vertex  1.000000e+01  0.000000e+00  0.000000e+00
   endloop
 endfacet
 facet normal  0.000000e+00 -0.000000e+00 -1.000000e+00
   outer loop
     vertex  1.000000e+01  1.500000e+01  0.000000e+00
     vertex  1.000000e+01  0.000000e+00  0.000000e+00
     vertex  0.000000e+00  1.000000e+01  0.000000e+00
   endloop
 endfacet
 facet normal  0.000000e+00  0.000000e+00 -1.000000e+00
   outer loop
     vertex  2.500000e+01  1.000000e+01  0.000000e+00
     vertex  1.500000e+01  1.000000e+01  0.000000e+00
     vertex  1.000000e+01  1.500000e+01  0.000000e+00
   endloop
 endfacet
 facet normal  0.000000e+00 -0.000000e+00 -1.000000e+00
   outer loop
     vertex  3.000000e+01  1.500000e+01  0.000000e+00
     vertex  3.000000e+01  0.000000e+00  0.000000e+00
     vertex  2.500000e+01  1.000000e+01  0.000000e+00
   endloop
 endfacet
 facet normal -0.000000e+00  0.000000e+00 -1.000000e+00
   outer loop
     vertex  3.000000e+01  1.500000e+01  0.000000e+00
     vertex  2.500000e+01  1.000000e+01  0.000000e+00
     vertex  1.000000e+01  1.500000e+01  0.000000e+00
   endloop
 endfacet
 facet normal  0.000000e+00 -0.000000e+00 -1.000000e+00
   outer loop
     vertex  4.000000e+01  1.000000e+01  0.000000e+00
     vertex  4.000000e+01  0.000000e+00  0.000000e+00
     vertex  3.000000e+01  0.000000e+00  0.000000e+00
   endloop
 endfacet
 facet normal -0.000000e+00  0.000000e+00 -1.000000e+00
   outer loop
     vertex  4.000000e+01  1.000000e+01  0.000000e+00
     vertex  3.000000e+01  0.000000e+00  0.000000e+00
     vertex  3.000000e+01  1.500000e+01  0.000000e+00
   endloop
 endfacet
 facet normal -0.000000e+00  0.000000e+00 -1.000000e+00
   outer loop
     vertex  1.000000e+01  4.000000e+01  0.000000e+00
     vertex  0.000000e+00  3.000000e+01  0.000000e+00
     vertex  0.000000e+00  4.000000e+01  0.000000e+00
   endloop
 endfacet
 facet normal  0.000000e+00 -0.000000e+00 -1.000000e+00
   outer loop
     vertex  1.000000e+01  4.000000e+01  0.000000e+00
     vertex  1.000000e+01  2.500000e+01  0.000000e+00
     vertex  0.000000e+00  3.000000e+01  0.000000e+00
   endloop
 endfacet
 facet normal  0.000000e+00  0.000000e+00 -1.000000e+00
   outer loop
     vertex  1.000000e+01  4.000000e+01  0.000000e+00
     vertex  1.500000e+01  3.000000e+01  0.000000e+00
     vertex  1.000000e+01  2.500000e+01  0.000000e+00
   endloop
 endfacet
 facet normal  0.000000e+00  0.000000e+00 -1.000000e+00
   outer loop
     vertex  2.500000e+01  3.000000e+01  0.000000e+00
     vertex  1.000000e+01  1.500000e+01  0.000000e+00
     vertex  1.000000e+01  2.500000e+01  0.000000e+00
   endloop
 endfacet
 facet normal  0.000000e+00  0.000000e+00 -1.000000e+00
   outer loop
     vertex  2.500000e+01  3.000000e+01  0.000000e+00
     vertex  3.000000e+01  2.500000e+01  0.000000e+00
     vertex  3.000000e+01  1.500000e+01  0.000000e+00
   endloop
 endfacet
 facet normal  0.000000e+00 -0.000000e+00 -1.000000e+00
   outer loop
     vertex  2.500000e+01  3.000000e+01  0.000000e+00
     vertex  3.000000e+01  1.500000e+01  0.000000e+00
     vertex  1.000000e+01  1.500000e+01  0.000000e+00
   endloop
 endfacet
 facet normal -0.000000e+00  0.000000e+00 -1.000000e+00
   outer loop
     vertex  2.500000e+01  3.000000e+01  0.000000e+00
     vertex  1.000000e+01  2.500000e+01  0.000000e+00
     vertex  1.500000e+01  3.000000e+01  0.000000e+00
   endloop
 endfacet
 facet normal  0.000000e+00  0.000000e+00 -1.000000e+00
   outer loop
     vertex  4.000000e+01  3.000000e+01  0.000000e+00
     vertex  2.500000e+01  3.000000e+01  0.000000e+00
     vertex  3.000000e+01  4.000000e+01  0.000000e+00
   endloop
 endfacet
 facet normal -0.000000e+00  0.000000e+00 -1.000000e+00
   outer loop
     vertex  4.000000e+01  3.000000e+01  0.000000e+00
     vertex  3.000000e+01  2.500000e+01  0.000000e+00
     vertex  2.500000e+01  3.000000e+01  0.000000e+00
   endloop
 endfacet
 facet normal -0.000000e+00 -0.000000e+00 -1.000000e+00
   outer loop
     vertex  4.000000e+01  4.000000e+01  0.000000e+00
     vertex  4.000000e+01  3.000000e+01  0.000000e+00
     vertex  3.000000e+01  4.000000e+01  0.000000e+00
   endloop
 endfacet
 facet normal  0.000000e+00 -1.000000e+00 -0.000000e+00
   outer loop
     vertex  1.000000e+01  0.000000e+00  4.000000e+01
     vertex  0.000000e+00  0.000000e+00  0.000000e+00
     vertex  1.000000e+01  0.000000e+00  0.000000e+00
   endloop
 endfacet
 facet normal -0.000000e+00 -1.000000e+00  0.000000e+00
   outer loop
     vertex  1.000000e+01  0.000000e+00  4.000000e+01
     vertex  0.000000e+00  0.000000e+00  4.000000e+01
     vertex  0.000000e+00  0.000000e+00  0.000000e+00
   endloop
 endfacet
 facet normal  4.472136e-01 -8.944272e-01  0.000000e+00
   outer loop
     vertex  3.000000e+01  2.500000e+01  0.000000e+00
     vertex  4.000000e+01  3.000000e+01  0.000000e+00
     vertex  4.000000e+01  3.000000e+01  4.000000e+01
   endloop
 endfacet
 facet normal  4.472136e-01 -8.944272e-01  0.000000e+00
   outer loop
     vertex  3.000000e+01  2.500000e+01  0.000000e+00
     vertex  4.000000e+01  3.000000e+01  4.000000e+01
     vertex  3.000000e+01  2.500000e+01  4.000000e+01
   endloop
 endfacet
 facet normal  1.000000e+00  0.000000e+00  0.000000e+00
   outer loop
     vertex  3.000000e+01  1.500000e+01  0.000000e+00
     vertex  3.000000e+01  2.500000e+01  0.000000e+00
     vertex  3.000000e+01  2.500000e+01  4.000000e+01
   endloop
 endfacet
 facet normal  1.000000e+00  0.000000e+00  0.000000e+00
   outer loop
     vertex  3.000000e+01  1.500000e+01  0.000000e+00
     vertex  3.000000e+01  2.500000e+01  4.000000e+01
     vertex  3.000000e+01  1.500000e+01  4.000000e+01
   endloop
 endfacet
 facet normal  4.472136e-01  8.944272e-01  0.000000e+00
   outer loop
     vertex  4.000000e+01  1.000000e+01  0.000000e+00
     vertex  3.000000e+01  1.500000e+01  0.000000e+00
     vertex  3.000000e+01  1.500000e+01  4.000000e+01
   endloop
 endfacet
 facet normal  4.472136e-01  8.944272e-01 -0.000000e+00
   outer loop
     vertex  4.000000e+01  1.000000e+01  0.000000e+00
     vertex  3.000000e+01  1.500000e+01  4.000000e+01
     vertex  4.000000e+01  1.000000e+01  4.000000e+01
   endloop
 endfacet
 facet normal  1.000000e+00  0.000000e+00  0.000000e+00
   outer loop
     vertex  4.000000e+01  0.000000e+00  4.000000e+01
     vertex  4.000000e+01  0.000000e+00  0.000000e+00
     vertex  4.000000e+01  1.000000e+01  0.000000e+00
   endloop
 endfacet
 facet normal  1.000000e+00 -0.000000e+00  0.000000e+00
   outer loop
     vertex  4.000000e+01  0.000000e+00  4.000000e+01
     vertex  4.000000e+01  1.000000e+01  0.000000e+00
     vertex  4.000000e+01  1.000000e+01  4.000000e+01
   endloop
 endfacet
 facet normal  0.000000e+00 -1.000000e+00 -0.000000e+00
   outer loop
     vertex  4.000000e+01  0.000000e+00  4.000000e+01
     vertex  3.000000e+01  0.000000e+00  0.000000e+00
     vertex  4.000000e+01  0.000000e+00  0.000000e+00
   endloop
 endfacet
 facet normal -0.000000e+00 -1.000000e+00  0.000000e+00
   outer loop
     vertex  4.000000e+01  0.000000e+00  4.000000e+01
     vertex  3.000000e+01  0.000000e+00  4.000000e+01
     vertex  3.000000e+01  0.000000e+00  0.000000e+00
   endloop
 endfacet
 facet normal -8.944272e-01 -4.472136e-01  0.000000e+00
   outer loop
     vertex  3.000000e+01  0.000000e+00  0.000000e+00
     vertex  3.000000e+01  0.000000e+00  4.000000e+01
     vertex  2.500000e+01  1.000000e+01  4.000000e+01
   endloop
 endfacet
 facet normal -8.944272e-01 -4.472136e-01  0.000000e+00
   outer loop
     vertex  2.500000e+01  1.000000e+01  0.000000e+00
     vertex  3.000000e+01  0.000000e+00  0.000000e+00
     vertex  2.500000e+01  1.000000e+01  4.000000e+01
   endloop
 endfacet
 facet normal  0.000000e+00 -1.000000e+00  0.000000e+00
   outer loop
     vertex  1.500000e+01  1.000000e+01  0.000000e+00
     vertex  2.500000e+01  1.000000e+01  0.000000e+00
     vertex  2.500000e+01  1.000000e+01  4.000000e+01
   endloop
 endfacet
 facet normal  0.000000e+00 -1.000000e+00  0.000000e+00
   outer loop
     vertex  1.500000e+01  1.000000e+01  0.000000e+00
     vertex  2.500000e+01  1.000000e+01  4.000000e+01
     vertex  1.500000e+01  1.000000e+01  4.000000e+01
   endloop
 endfacet
 facet normal  8.944272e-01 -4.472136e-01  0.000000e+00
   outer loop
     vertex  1.500000e+01  1.000000e+01  0.000000e+00
     vertex  1.500000e+01  1.000000e+01  4.000000e+01
     vertex  1.000000e+01  0.000000e+00  4.000000e+01
   endloop
 endfacet
 facet normal  8.944272e-01 -4.472136e-01  0.000000e+00
   outer loop
     vertex  1.000000e+01  0.000000e+00  0.000000e+00
     vertex  1.500000e+01  1.000000e+01  0.000000e+00
     vertex  1.000000e+01  0.000000e+00  4.000000e+01
   endloop
 endfacet
 facet normal -1.000000e+00  0.000000e+00  0.000000e+00
   outer loop
     vertex  1.000000e+01  1.500000e+01  0.000000e+00
     vertex  1.000000e+01  2.500000e+01  4.000000e+01
     vertex  1.000000e+01  2.500000e+01  0.000000e+00
   endloop
 endfacet
 facet normal -1.000000e+00  0.000000e+00  0.000000e+00
   outer loop
     vertex  1.000000e+01  1.500000e+01  0.000000e+00
     vertex  1.000000e+01  1.500000e+01  4.000000e+01
     vertex  1.000000e+01  2.500000e+01  4.000000e+01
   endloop
 endfacet
 facet normal -4.472136e-01 -8.944272e-01  0.000000e+00
   outer loop
     vertex  0.000000e+00  3.000000e+01  0.000000e+00
     vertex  1.000000e+01  2.500000e+01  4.000000e+01
     vertex  0.000000e+00  3.000000e+01  4.000000e+01
   endloop
 endfacet
 facet normal -4.472136e-01 -8.944272e-01  0.000000e+00
   outer loop
     vertex  1.000000e+01  2.500000e+01  0.000000e+00
     vertex  1.000000e+01  2.500000e+01  4.000000e+01
     vertex  0.000000e+00  3.000000e+01  0.000000e+00
   endloop
 endfacet
 facet normal -1.000000e+00  0.000000e+00  0.000000e+00
   outer loop
     vertex  0.000000e+00  3.000000e+01  4.000000e+01
     vertex  0.000000e+00  4.000000e+01  0.000000e+00
     vertex  0.000000e+00  3.000000e+01  0.000000e+00
   endloop
 endfacet
 facet normal -1.000000e+00  0.000000e+00  0.000000e+00
   outer loop
     vertex  0.000000e+00  3.000000e+01  4.000000e+01
     vertex  0.000000e+00  4.000000e+01  4.000000e+01
     vertex  0.000000e+00  4.000000e+01  0.000000e+00
   endloop
 endfacet
 facet normal  0.000000e+00  1.000000e+00  0.000000e+00
   outer loop
     vertex  1.000000e+01  4.000000e+01  4.000000e+01
     vertex  1.000000e+01  4.000000e+01  0.000000e+00
     vertex  0.000000e+00  4.000000e+01  0.000000e+00
   endloop
 endfacet
 facet normal  0.000000e+00  1.000000e+00  0.000000e+00
   outer loop
     vertex  1.000000e+01  4.000000e+01  4.000000e+01
     vertex  0.000000e+00  4.000000e+01  0.000000e+00
     vertex  0.000000e+00  4.000000e+01  4.000000e+01
   endloop
 endfacet
 facet normal  8.944272e-01  4.472136e-01  0.000000e+00
   outer loop
     vertex  1.000000e+01  4.000000e+01  0.000000e+00
     vertex  1.500000e+01  3.000000e+01  4.000000e+01
     vertex  1.500000e+01  3.000000e+01  0.000000e+00
   endloop
 endfacet
 facet normal  8.944272e-01  4.472136e-01 -0.000000e+00
   outer loop
     vertex  1.000000e+01  4.000000e+01  0.000000e+00
     vertex  1.000000e+01  4.000000e+01  4.000000e+01
     vertex  1.500000e+01  3.000000e+01  4.000000e+01
   endloop
 endfacet
 facet normal  0.000000e+00  1.000000e+00  0.000000e+00
   outer loop
     vertex  1.500000e+01  3.000000e+01  0.000000e+00
     vertex  2.500000e+01  3.000000e+01  4.000000e+01
     vertex  2.500000e+01  3.000000e+01  0.000000e+00
   endloop
 endfacet
 facet normal  0.000000e+00  1.000000e+00  0.000000e+00
   outer loop
     vertex  1.500000e+01  3.000000e+01  0.000000e+00
     vertex  1.500000e+01  3.000000e+01  4.000000e+01
     vertex  2.500000e+01  3.000000e+01  4.000000e+01
   endloop
 endfacet
 facet normal -8.944272e-01  4.472136e-01  0.000000e+00
   outer loop
     vertex  2.500000e+01  3.000000e+01  0.000000e+00
     vertex  3.000000e+01  4.000000e+01  4.000000e+01
     vertex  3.000000e+01  4.000000e+01  0.000000e+00
   endloop
 endfacet
 facet normal -8.944272e-01  4.472136e-01  0.000000e+00
   outer loop
     vertex  2.500000e+01  3.000000e+01  0.000000e+00
     vertex  2.500000e+01  3.000000e+01  4.000000e+01
     vertex  3.000000e+01  4.000000e+01  4.000000e+01
   endloop
 endfacet
 facet normal  0.000000e+00  1.000000e+00  0.000000e+00
   outer loop
     vertex  4.000000e+01  4.000000e+01  4.000000e+01
     vertex  4.000000e+01  4.000000e+01  0.000000e+00
     vertex  3.000000e+01  4.000000e+01  0.000000e+00
   endloop
 endfacet
 facet normal  0.000000e+00  1.000000e+00  0.000000e+00
   outer loop
     vertex  4.000000e+01  4.000000e+01  4.000000e+01
     vertex  3.000000e+01  4.000000e+01  0.000000e+00
     vertex  3.000000e+01  4.000000e+01  4.000000e+01
   endloop
 endfacet
 facet normal  1.000000e+00  0.000000e+00  0.000000e+00
   outer loop
     vertex  4.000000e+01  3.000000e+01  4.000000e+01
     vertex  4.000000e+01  3.000000e+01  0.000000e+00
     vertex  4.000000e+01  4.000000e+01  0.000000e+00
   endloop
 endfacet
 facet normal  1.000000e+00 -0.000000e+00  0.000000e+00
   outer loop
     vertex  4.000000e+01  3.000000e+01  4.000000e+01
     vertex  4.000000e+01  4.000000e+01  0.000000e+00
     vertex  4.000000e+01  4.000000e+01  4.000000e+01
   endloop
 endfacet
endsolid
