solid 
 facet normal  8.660254e-01  5.000000e-01  0.000000e+00
   outer loop
     vertex  2.500000e+01  4.330127e+01  1.500000e+01
     vertex  5.000000e+01  0.000000e+00  1.500000e+01
     vertex  5.000000e+01  0.000000e+00  0.000000e+00
   endloop
 endfacet
 facet normal  8.660254e-01  5.000000e-01 -0.000000e+00
   outer loop
     vertex  2.500000e+01  4.330127e+01  0.000000e+00
     vertex  2.500000e+01  4.330127e+01  1.500000e+01
     vertex  5.000000e+01  0.000000e+00  0.000000e+00
   endloop
 endfacet
 facet normal  8.660254e-01 -5.000000e-01  0.000000e+00
   outer loop
     vertex  5.000000e+01  0.000000e+00  0.000000e+00
     vertex  2.500000e+01 -4.330127e+01  1.500000e+01
     vertex  2.500000e+01 -4.330127e+01  0.000000e+00
   endloop
 endfacet
 facet normal  8.660254e-01 -5.000000e-01  0.000000e+00
   outer loop
     vertex  5.000000e+01  0.000000e+00  0.000000e+00
     vertex  5.000000e+01  0.000000e+00  1.500000e+01
     vertex  2.500000e+01 -4.330127e+01  1.500000e+01
   endloop
 endfacet
 facet normal -0.000000e+00  1.000000e+00  0.000000e+00
   outer loop
     vertex -2.500000e+01  4.330127e+01  1.500000e+01
     vertex  2.500000e+01  4.330127e+01  1.500000e+01
     vertex  2.500000e+01  4.330127e+01  0.000000e+00
   endloop
 endfacet
 facet normal  0.000000e+00  1.000000e+00  0.000000e+00
   outer loop
     vertex -2.500000e+01  4.330127e+01  0.000000e+00
     vertex -2.500000e+01  4.330127e+01  1.500000e+01
     vertex  2.500000e+01  4.330127e+01  0.000000e+00
   endloop
 endfacet
 facet normal -0.000000e+00  0.000000e+00 -1.000000e+00
   outer loop
     vertex  2.500000e+01  4.330127e+01  0.000000e+00
     vertex -5.000000e+01  0.000000e+00  0.000000e+00
     vertex -2.500000e+01  4.330127e+01  0.000000e+00
   endloop
 endfacet
 facet normal  0.000000e+00  0.000000e+00 -1.000000e+00
   outer loop
     vertex  2.500000e+01  4.330127e+01  0.000000e+00
     vertex -2.500000e+01 -4.330127e+01  0.000000e+00
     vertex -5.000000e+01  0.000000e+00  0.000000e+00
   endloop
 endfacet
 facet normal  0.000000e+00 -0.000000e+00 -1.000000e+00
   outer loop
     vertex  2.500000e+01  4.330127e+01  0.000000e+00
     vertex  2.500000e+01 -4.330127e+01  0.000000e+00
     vertex -2.500000e+01 -4.330127e+01  0.000000e+00
   endloop
 endfacet
 facet normal  0.000000e+00  0.000000e+00 -1.000000e+00
   outer loop
     vertex  2.500000e+01  4.330127e+01  0.000000e+00
     vertex  5.000000e+01  0.000000e+00  0.000000e+00
     vertex  2.500000e+01 -4.330127e+01  0.000000e+00
   endloop
 endfacet
 facet normal  0.000000e+00  0.000000e+00  1.000000e+00
   outer loop
     vertex -5.000000e+01  0.000000e+00  1.500000e+01
     vertex -2.500000e+01 -4.330127e+01  1.500000e+01
     vertex -2.211325e+01 -3.830127e+01  1.500000e+01
   endloop
 endfacet
 facet normal  0.000000e+00  0.000000e+00  1.000000e+00
   outer loop
     vertex -4.422650e+01  0.000000e+00  1.500000e+01
     vertex -5.000000e+01  0.000000e+00  1.500000e+01
     vertex -2.211325e+01 -3.830127e+01  1.500000e+01
   endloop
 endfacet
 facet normal  0.000000e+00  0.000000e+00  1.000000e+00
   outer loop
     vertex  2.500000e+01 -4.330127e+01  1.500000e+01
     vertex -2.211325e+01 -3.830127e+01  1.500000e+01
     vertex -2.500000e+01 -4.330127e+01  1.500000e+01
   endloop
 endfacet
 facet normal  0.000000e+00  0.000000e+00  1.000000e+00
   outer loop
     vertex  2.211325e+01 -3.830127e+01  1.500000e+01
     vertex -2.211325e+01 -3.830127e+01  1.500000e+01
     vertex  2.500000e+01 -4.330127e+01  1.500000e+01
   endloop
 endfacet
 facet normal  0.000000e+00  0.000000e+00  1.000000e+00
   outer loop
     vertex -2.500000e+01  4.330127e+01  1.500000e+01
     vertex -4.422650e+01  0.000000e+00  1.500000e+01
     vertex -2.211325e+01  3.830127e+01  1.500000e+01
   endloop
 endfacet
 facet normal  0.000000e+00  0.000000e+00  1.000000e+00
   outer loop
     vertex -2.500000e+01  4.330127e+01  1.500000e+01
     vertex -5.000000e+01  0.000000e+00  1.500000e+01
     vertex -4.422650e+01  0.000000e+00  1.500000e+01
   endloop
 endfacet
 facet normal  0.000000e+00  0.000000e+00  1.000000e+00
   outer loop
     vertex  5.000000e+01  0.000000e+00  1.500000e+01
     vertex  4.422650e+01  0.000000e+00  1.500000e+01
     vertex  2.211325e+01 -3.830127e+01  1.500000e+01
   endloop
 endfacet
 facet normal  0.000000e+00  0.000000e+00  1.000000e+00
   outer loop
     vertex  5.000000e+01  0.000000e+00  1.500000e+01
     vertex  2.211325e+01 -3.830127e+01  1.500000e+01
     vertex  2.500000e+01 -4.330127e+01  1.500000e+01
   endloop
 endfacet
 facet normal  0.000000e+00  0.000000e+00  1.000000e+00
   outer loop
     vertex  2.500000e+01  4.330127e+01  1.500000e+01
     vertex  2.211325e+01  3.830127e+01  1.500000e+01
     vertex  4.422650e+01  0.000000e+00  1.500000e+01
   endloop
 endfacet
 facet normal  0.000000e+00  0.000000e+00  1.000000e+00
   outer loop
     vertex  2.500000e+01  4.330127e+01  1.500000e+01
     vertex -2.211325e+01  3.830127e+01  1.500000e+01
     vertex  2.211325e+01  3.830127e+01  1.500000e+01
   endloop
 endfacet
 facet normal  0.000000e+00  0.000000e+00  1.000000e+00
   outer loop
     vertex  2.500000e+01  4.330127e+01  1.500000e+01
     vertex  4.422650e+01  0.000000e+00  1.500000e+01
     vertex  5.000000e+01  0.000000e+00  1.500000e+01
   endloop
 endfacet
 facet normal  0.000000e+00  0.000000e+00  1.000000e+00
   outer loop
     vertex  2.500000e+01  4.330127e+01  1.500000e+01
     vertex -2.500000e+01  4.330127e+01  1.500000e+01
     vertex -2.211325e+01  3.830127e+01  1.500000e+01
   endloop
 endfacet
 facet normal -0.000000e+00 -1.000000e+00  0.000000e+00
   outer loop
     vertex  2.500000e+01 -4.330127e+01  1.500000e+01
     vertex -2.500000e+01 -4.330127e+01  1.500000e+01
     vertex -2.500000e+01 -4.330127e+01  0.000000e+00
   endloop
 endfacet
 facet normal  0.000000e+00 -1.000000e+00  0.000000e+00
   outer loop
     vertex  2.500000e+01 -4.330127e+01  0.000000e+00
     vertex  2.500000e+01 -4.330127e+01  1.500000e+01
     vertex -2.500000e+01 -4.330127e+01  0.000000e+00
   endloop
 endfacet
 facet normal -8.660254e-01  5.000000e-01  0.000000e+00
   outer loop
     vertex -5.000000e+01  0.000000e+00  0.000000e+00
     vertex -2.500000e+01  4.330127e+01  1.500000e+01
     vertex -2.500000e+01  4.330127e+01  0.000000e+00
   endloop
 endfacet
 facet normal -8.660254e-01  5.000000e-01  0.000000e+00
   outer loop
     vertex -5.000000e+01  0.000000e+00  0.000000e+00
     vertex -5.000000e+01  0.000000e+00  1.500000e+01
     vertex -2.500000e+01  4.330127e+01  1.500000e+01
   endloop
 endfacet
 facet normal -8.660254e-01 -5.000000e-01  0.000000e+00
   outer loop
     vertex -2.500000e+01 -4.330127e+01  1.500000e+01
     vertex -5.000000e+01  0.000000e+00  1.500000e+01
     vertex -5.000000e+01  0.000000e+00  0.000000e+00
   endloop
 endfacet
 facet normal -8.660254e-01 -5.000000e-01  0.000000e+00
   outer loop
     vertex -2.500000e+01 -4.330127e+01  0.000000e+00
     vertex -2.500000e+01 -4.330127e+01  1.500000e+01
     vertex -5.000000e+01  0.000000e+00  0.000000e+00
   endloop
 endfacet
 facet normal -8.660254e-01 -5.000000e-01  0.000000e+00
   outer loop
     vertex  2.211325e+01  3.830127e+01  1.000000e+01
     vertex  4.422650e+01  0.000000e+00  1.000000e+01
     vertex  4.422650e+01  0.000000e+00  1.500000e+01
   endloop
 endfacet
 facet normal -8.660254e-01 -5.000000e-01  0.000000e+00
   outer loop
     vertex  2.211325e+01  3.830127e+01  1.000000e+01
     vertex  4.422650e+01  0.000000e+00  1.500000e+01
     vertex  2.211325e+01  3.830127e+01  1.500000e+01
   endloop
 endfacet
 facet normal  0.000000e+00 -1.000000e+00  0.000000e+00
   outer loop
     vertex -2.211325e+01  3.830127e+01  1.000000e+01
     vertex  2.211325e+01  3.830127e+01  1.000000e+01
     vertex  2.211325e+01  3.830127e+01  1.500000e+01
   endloop
 endfacet
 facet normal  0.000000e+00 -1.000000e+00  0.000000e+00
   outer loop
     vertex -2.211325e+01  3.830127e+01  1.000000e+01
     vertex  2.211325e+01  3.830127e+01  1.500000e+01
     vertex -2.211325e+01  3.830127e+01  1.500000e+01
   endloop
 endfacet
 facet normal  8.660254e-01 -5.000000e-01  0.000000e+00
   outer loop
     vertex -4.422650e+01  0.000000e+00  1.000000e+01
     vertex -2.211325e+01  3.830127e+01  1.000000e+01
     vertex -2.211325e+01  3.830127e+01  1.500000e+01
   endloop
 endfacet
 facet normal  8.660254e-01 -5.000000e-01  0.000000e+00
   outer loop
     vertex -4.422650e+01  0.000000e+00  1.000000e+01
     vertex -2.211325e+01  3.830127e+01  1.500000e+01
     vertex -4.422650e+01  0.000000e+00  1.500000e+01
   endloop
 endfacet
 facet normal  8.660254e-01  5.000000e-01  0.000000e+00
   outer loop
     vertex -2.211325e+01 -3.830127e+01  1.000000e+01
     vertex -4.422650e+01  0.000000e+00  1.000000e+01
     vertex -4.422650e+01  0.000000e+00  1.500000e+01
   endloop
 endfacet
 facet normal  8.660254e-01  5.000000e-01 -0.000000e+00
   outer loop
     vertex -2.211325e+01 -3.830127e+01  1.000000e+01
     vertex -4.422650e+01  0.000000e+00  1.500000e+01
     vertex -2.211325e+01 -3.830127e+01  1.500000e+01
   endloop
 endfacet
 facet normal  0.000000e+00  1.000000e+00  0.000000e+00
   outer loop
     vertex  2.211325e+01 -3.830127e+01  1.000000e+01
     vertex -2.211325e+01 -3.830127e+01  1.000000e+01
     vertex -2.211325e+01 -3.830127e+01  1.500000e+01
   endloop
 endfacet
 facet normal  0.000000e+00  1.000000e+00 -0.000000e+00
   outer loop
     vertex  2.211325e+01 -3.830127e+01  1.000000e+01
     vertex -2.211325e+01 -3.830127e+01  1.500000e+01
     vertex  2.211325e+01 -3.830127e+01  1.500000e+01
   endloop
 endfacet
 facet normal -8.660254e-01  5.000000e-01  0.000000e+00
   outer loop
     vertex  4.422650e+01  0.000000e+00  1.000000e+01
     vertex  2.211325e+01 -3.830127e+01  1.000000e+01
     vertex  2.211325e+01 -3.830127e+01  1.500000e+01
   endloop
 endfacet
 facet normal -8.660254e-01  5.000000e-01  0.000000e+00
   outer loop
     vertex  4.422650e+01  0.000000e+00  1.000000e+01
     vertex  2.211325e+01 -3.830127e+01  1.500000e+01
     vertex  4.422650e+01  0.000000e+00  1.500000e+01
   endloop
 endfacet
 facet normal  0.000000e+00  0.000000e+00  1.000000e+00
   outer loop
     vertex -4.076240e+01  0.000000e+00  1.000000e+01
     vertex -4.422650e+01  0.000000e+00  1.000000e+01
     vertex -2.211325e+01 -3.830127e+01  1.000000e+01
   endloop
 endfacet
 facet normal  0.000000e+00  0.000000e+00  1.000000e+00
   outer loop
     vertex -4.076240e+01  0.000000e+00  1.000000e+01
     vertex -2.211325e+01 -3.830127e+01  1.000000e+01
     vertex -2.038120e+01 -3.530127e+01  1.000000e+01
   endloop
 endfacet
 facet normal  0.000000e+00  0.000000e+00  1.000000e+00
   outer loop
     vertex  2.038120e+01 -3.530127e+01  1.000000e+01
     vertex -2.211325e+01 -3.830127e+01  1.000000e+01
     vertex  2.211325e+01 -3.830127e+01  1.000000e+01
   endloop
 endfacet
 facet normal  0.000000e+00  0.000000e+00  1.000000e+00
   outer loop
     vertex  2.038120e+01 -3.530127e+01  1.000000e+01
     vertex -2.038120e+01 -3.530127e+01  1.000000e+01
     vertex -2.211325e+01 -3.830127e+01  1.000000e+01
   endloop
 endfacet
 facet normal  0.000000e+00  0.000000e+00  1.000000e+00
   outer loop
     vertex -2.038120e+01  3.530127e+01  1.000000e+01
     vertex -4.422650e+01  0.000000e+00  1.000000e+01
     vertex -4.076240e+01  0.000000e+00  1.000000e+01
   endloop
 endfacet
 facet normal  0.000000e+00  0.000000e+00  1.000000e+00
   outer loop
     vertex -2.211325e+01  3.830127e+01  1.000000e+01
     vertex -4.422650e+01  0.000000e+00  1.000000e+01
     vertex -2.038120e+01  3.530127e+01  1.000000e+01
   endloop
 endfacet
 facet normal  0.000000e+00  0.000000e+00  1.000000e+00
   outer loop
     vertex  4.422650e+01  0.000000e+00  1.000000e+01
     vertex  4.076240e+01  0.000000e+00  1.000000e+01
     vertex  2.038120e+01 -3.530127e+01  1.000000e+01
   endloop
 endfacet
 facet normal  0.000000e+00  0.000000e+00  1.000000e+00
   outer loop
     vertex  4.422650e+01  0.000000e+00  1.000000e+01
     vertex  2.038120e+01 -3.530127e+01  1.000000e+01
     vertex  2.211325e+01 -3.830127e+01  1.000000e+01
   endloop
 endfacet
 facet normal  0.000000e+00  0.000000e+00  1.000000e+00
   outer loop
     vertex  2.038120e+01  3.530127e+01  1.000000e+01
     vertex -2.211325e+01  3.830127e+01  1.000000e+01
     vertex -2.038120e+01  3.530127e+01  1.000000e+01
   endloop
 endfacet
 facet normal  0.000000e+00  0.000000e+00  1.000000e+00
   outer loop
     vertex  2.211325e+01  3.830127e+01  1.000000e+01
     vertex  2.038120e+01  3.530127e+01  1.000000e+01
     vertex  4.076240e+01  0.000000e+00  1.000000e+01
   endloop
 endfacet
 facet normal  0.000000e+00  0.000000e+00  1.000000e+00
   outer loop
     vertex  2.211325e+01  3.830127e+01  1.000000e+01
     vertex  4.076240e+01  0.000000e+00  1.000000e+01
     vertex  4.422650e+01  0.000000e+00  1.000000e+01
   endloop
 endfacet
 facet normal  0.000000e+00  0.000000e+00  1.000000e+00
   outer loop
     vertex  2.211325e+01  3.830127e+01  1.000000e+01
     vertex -2.211325e+01  3.830127e+01  1.000000e+01
     vertex  2.038120e+01  3.530127e+01  1.000000e+01
   endloop
 endfacet
 facet normal  8.660254e-01  5.000000e-01  0.000000e+00
   outer loop
     vertex  2.038120e+01  3.530127e+01  1.000000e+01
     vertex  4.076240e+01  0.000000e+00  1.500000e+01
     vertex  4.076240e+01  0.000000e+00  1.000000e+01
   endloop
 endfacet
 facet normal  8.660254e-01  5.000000e-01 -0.000000e+00
   outer loop
     vertex  2.038120e+01  3.530127e+01  1.000000e+01
     vertex  2.038120e+01  3.530127e+01  1.500000e+01
     vertex  4.076240e+01  0.000000e+00  1.500000e+01
   endloop
 endfacet
 facet normal -0.000000e+00  1.000000e+00  0.000000e+00
   outer loop
     vertex -2.038120e+01  3.530127e+01  1.500000e+01
     vertex  2.038120e+01  3.530127e+01  1.500000e+01
     vertex  2.038120e+01  3.530127e+01  1.000000e+01
   endloop
 endfacet
 facet normal  0.000000e+00  1.000000e+00  0.000000e+00
   outer loop
     vertex -2.038120e+01  3.530127e+01  1.000000e+01
     vertex -2.038120e+01  3.530127e+01  1.500000e+01
     vertex  2.038120e+01  3.530127e+01  1.000000e+01
   endloop
 endfacet
 facet normal -8.660254e-01  5.000000e-01  0.000000e+00
   outer loop
     vertex -4.076240e+01  0.000000e+00  1.000000e+01
     vertex -2.038120e+01  3.530127e+01  1.500000e+01
     vertex -2.038120e+01  3.530127e+01  1.000000e+01
   endloop
 endfacet
 facet normal -8.660254e-01  5.000000e-01  0.000000e+00
   outer loop
     vertex -4.076240e+01  0.000000e+00  1.000000e+01
     vertex -4.076240e+01  0.000000e+00  1.500000e+01
     vertex -2.038120e+01  3.530127e+01  1.500000e+01
   endloop
 endfacet
 facet normal -8.660254e-01 -5.000000e-01  0.000000e+00
   outer loop
     vertex -2.038120e+01 -3.530127e+01  1.000000e+01
     vertex -4.076240e+01  0.000000e+00  1.500000e+01
     vertex -4.076240e+01  0.000000e+00  1.000000e+01
   endloop
 endfacet
 facet normal -8.660254e-01 -5.000000e-01  0.000000e+00
   outer loop
     vertex -2.038120e+01 -3.530127e+01  1.000000e+01
     vertex -2.038120e+01 -3.530127e+01  1.500000e+01
     vertex -4.076240e+01  0.000000e+00  1.500000e+01
   endloop
 endfacet
 facet normal -0.000000e+00 -1.000000e+00  0.000000e+00
   outer loop
     vertex  2.038120e+01 -3.530127e+01  1.500000e+01
     vertex -2.038120e+01 -3.530127e+01  1.500000e+01
     vertex -2.038120e+01 -3.530127e+01  1.000000e+01
   endloop
 endfacet
 facet normal  0.000000e+00 -1.000000e+00  0.000000e+00
   outer loop
     vertex  2.038120e+01 -3.530127e+01  1.000000e+01
     vertex  2.038120e+01 -3.530127e+01  1.500000e+01
     vertex -2.038120e+01 -3.530127e+01  1.000000e+01
   endloop
 endfacet
 facet normal  8.660254e-01 -5.000000e-01  0.000000e+00
   outer loop
     vertex  4.076240e+01  0.000000e+00  1.000000e+01
     vertex  2.038120e+01 -3.530127e+01  1.500000e+01
     vertex  2.038120e+01 -3.530127e+01  1.000000e+01
   endloop
 endfacet
 facet normal  8.660254e-01 -5.000000e-01  0.000000e+00
   outer loop
     vertex  4.076240e+01  0.000000e+00  1.000000e+01
     vertex  4.076240e+01  0.000000e+00  1.500000e+01
     vertex  2.038120e+01 -3.530127e+01  1.500000e+01
   endloop
 endfacet
 facet normal  0.000000e+00  0.000000e+00  1.000000e+00
   outer loop
     vertex -3.498889e+01  0.000000e+00  1.500000e+01
     vertex -4.076240e+01  0.000000e+00  1.500000e+01
     vertex -2.038120e+01 -3.530127e+01  1.500000e+01
   endloop
 endfacet
 facet normal  0.000000e+00  0.000000e+00  1.000000e+00
   outer loop
     vertex -3.498889e+01  0.000000e+00  1.500000e+01
     vertex -2.038120e+01 -3.530127e+01  1.500000e+01
     vertex -1.749445e+01 -3.030127e+01  1.500000e+01
   endloop
 endfacet
 facet normal  0.000000e+00  0.000000e+00  1.000000e+00
   outer loop
     vertex  2.038120e+01 -3.530127e+01  1.500000e+01
     vertex -1.749445e+01 -3.030127e+01  1.500000e+01
     vertex -2.038120e+01 -3.530127e+01  1.500000e+01
   endloop
 endfacet
 facet normal  0.000000e+00  0.000000e+00  1.000000e+00
   outer loop
     vertex  1.749445e+01 -3.030127e+01  1.500000e+01
     vertex -1.749445e+01 -3.030127e+01  1.500000e+01
     vertex  2.038120e+01 -3.530127e+01  1.500000e+01
   endloop
 endfacet
 facet normal  0.000000e+00  0.000000e+00  1.000000e+00
   outer loop
     vertex -1.749445e+01  3.030127e+01  1.500000e+01
     vertex -4.076240e+01  0.000000e+00  1.500000e+01
     vertex -3.498889e+01  0.000000e+00  1.500000e+01
   endloop
 endfacet
 facet normal  0.000000e+00  0.000000e+00  1.000000e+00
   outer loop
     vertex -2.038120e+01  3.530127e+01  1.500000e+01
     vertex -4.076240e+01  0.000000e+00  1.500000e+01
     vertex -1.749445e+01  3.030127e+01  1.500000e+01
   endloop
 endfacet
 facet normal  0.000000e+00  0.000000e+00  1.000000e+00
   outer loop
     vertex  3.498889e+01  0.000000e+00  1.500000e+01
     vertex  1.749445e+01 -3.030127e+01  1.500000e+01
     vertex  2.038120e+01 -3.530127e+01  1.500000e+01
   endloop
 endfacet
 facet normal  0.000000e+00  0.000000e+00  1.000000e+00
   outer loop
     vertex  4.076240e+01  0.000000e+00  1.500000e+01
     vertex  3.498889e+01  0.000000e+00  1.500000e+01
     vertex  2.038120e+01 -3.530127e+01  1.500000e+01
   endloop
 endfacet
 facet normal  0.000000e+00  0.000000e+00  1.000000e+00
   outer loop
     vertex  2.038120e+01  3.530127e+01  1.500000e+01
     vertex  1.749445e+01  3.030127e+01  1.500000e+01
     vertex  3.498889e+01  0.000000e+00  1.500000e+01
   endloop
 endfacet
 facet normal  0.000000e+00  0.000000e+00  1.000000e+00
   outer loop
     vertex  2.038120e+01  3.530127e+01  1.500000e+01
     vertex -1.749445e+01  3.030127e+01  1.500000e+01
     vertex  1.749445e+01  3.030127e+01  1.500000e+01
   endloop
 endfacet
 facet normal  0.000000e+00  0.000000e+00  1.000000e+00
   outer loop
     vertex  2.038120e+01  3.530127e+01  1.500000e+01
     vertex -2.038120e+01  3.530127e+01  1.500000e+01
     vertex -1.749445e+01  3.030127e+01  1.500000e+01
   endloop
 endfacet
 facet normal  0.000000e+00  0.000000e+00  1.000000e+00
   outer loop
     vertex  2.038120e+01  3.530127e+01  1.500000e+01
     vertex  3.498889e+01  0.000000e+00  1.500000e+01
     vertex  4.076240e+01  0.000000e+00  1.500000e+01
   endloop
 endfacet
 facet normal -8.660254e-01 -5.000000e-01  0.000000e+00
   outer loop
     vertex  1.749445e+01  3.030127e+01  1.000000e+01
     vertex  3.498889e+01  0.000000e+00  1.000000e+01
     vertex  3.498889e+01  0.000000e+00  1.500000e+01
   endloop
 endfacet
 facet normal -8.660254e-01 -5.000000e-01  0.000000e+00
   outer loop
     vertex  1.749445e+01  3.030127e+01  1.000000e+01
     vertex  3.498889e+01  0.000000e+00  1.500000e+01
     vertex  1.749445e+01  3.030127e+01  1.500000e+01
   endloop
 endfacet
 facet normal  0.000000e+00 -1.000000e+00  0.000000e+00
   outer loop
     vertex -1.749445e+01  3.030127e+01  1.000000e+01
     vertex  1.749445e+01  3.030127e+01  1.000000e+01
     vertex  1.749445e+01  3.030127e+01  1.500000e+01
   endloop
 endfacet
 facet normal  0.000000e+00 -1.000000e+00  0.000000e+00
   outer loop
     vertex -1.749445e+01  3.030127e+01  1.000000e+01
     vertex  1.749445e+01  3.030127e+01  1.500000e+01
     vertex -1.749445e+01  3.030127e+01  1.500000e+01
   endloop
 endfacet
 facet normal  8.660254e-01 -5.000000e-01  0.000000e+00
   outer loop
     vertex -3.498889e+01  0.000000e+00  1.000000e+01
     vertex -1.749445e+01  3.030127e+01  1.000000e+01
     vertex -1.749445e+01  3.030127e+01  1.500000e+01
   endloop
 endfacet
 facet normal  8.660254e-01 -5.000000e-01  0.000000e+00
   outer loop
     vertex -3.498889e+01  0.000000e+00  1.000000e+01
     vertex -1.749445e+01  3.030127e+01  1.500000e+01
     vertex -3.498889e+01  0.000000e+00  1.500000e+01
   endloop
 endfacet
 facet normal  8.660254e-01  5.000000e-01  0.000000e+00
   outer loop
     vertex -1.749445e+01 -3.030127e+01  1.000000e+01
     vertex -3.498889e+01  0.000000e+00  1.000000e+01
     vertex -3.498889e+01  0.000000e+00  1.500000e+01
   endloop
 endfacet
 facet normal  8.660254e-01  5.000000e-01 -0.000000e+00
   outer loop
     vertex -1.749445e+01 -3.030127e+01  1.000000e+01
     vertex -3.498889e+01  0.000000e+00  1.500000e+01
     vertex -1.749445e+01 -3.030127e+01  1.500000e+01
   endloop
 endfacet
 facet normal  0.000000e+00  1.000000e+00  0.000000e+00
   outer loop
     vertex  1.749445e+01 -3.030127e+01  1.000000e+01
     vertex -1.749445e+01 -3.030127e+01  1.000000e+01
     vertex -1.749445e+01 -3.030127e+01  1.500000e+01
   endloop
 endfacet
 facet normal  0.000000e+00  1.000000e+00 -0.000000e+00
   outer loop
     vertex  1.749445e+01 -3.030127e+01  1.000000e+01
     vertex -1.749445e+01 -3.030127e+01  1.500000e+01
     vertex  1.749445e+01 -3.030127e+01  1.500000e+01
   endloop
 endfacet
 facet normal -8.660254e-01  5.000000e-01  0.000000e+00
   outer loop
     vertex  3.498889e+01  0.000000e+00  1.000000e+01
     vertex  1.749445e+01 -3.030127e+01  1.000000e+01
     vertex  1.749445e+01 -3.030127e+01  1.500000e+01
   endloop
 endfacet
 facet normal -8.660254e-01  5.000000e-01  0.000000e+00
   outer loop
     vertex  3.498889e+01  0.000000e+00  1.000000e+01
     vertex  1.749445e+01 -3.030127e+01  1.500000e+01
     vertex  3.498889e+01  0.000000e+00  1.500000e+01
   endloop
 endfacet
 facet normal  0.000000e+00  0.000000e+00  1.000000e+00
   outer loop
     vertex -3.152479e+01  0.000000e+00  1.000000e+01
     vertex -3.498889e+01  0.000000e+00  1.000000e+01
     vertex -1.749445e+01 -3.030127e+01  1.000000e+01
   endloop
 endfacet
 facet normal  0.000000e+00  0.000000e+00  1.000000e+00
   outer loop
     vertex -3.152479e+01  0.000000e+00  1.000000e+01
     vertex -1.749445e+01 -3.030127e+01  1.000000e+01
     vertex -1.576240e+01 -2.730127e+01  1.000000e+01
   endloop
 endfacet
 facet normal  0.000000e+00  0.000000e+00  1.000000e+00
   outer loop
     vertex  1.749445e+01 -3.030127e+01  1.000000e+01
     vertex -1.576240e+01 -2.730127e+01  1.000000e+01
     vertex -1.749445e+01 -3.030127e+01  1.000000e+01
   endloop
 endfacet
 facet normal  0.000000e+00  0.000000e+00  1.000000e+00
   outer loop
     vertex  1.576240e+01 -2.730127e+01  1.000000e+01
     vertex -1.576240e+01 -2.730127e+01  1.000000e+01
     vertex  1.749445e+01 -3.030127e+01  1.000000e+01
   endloop
 endfacet
 facet normal  0.000000e+00  0.000000e+00  1.000000e+00
   outer loop
     vertex -1.576240e+01  2.730127e+01  1.000000e+01
     vertex -3.498889e+01  0.000000e+00  1.000000e+01
     vertex -3.152479e+01  0.000000e+00  1.000000e+01
   endloop
 endfacet
 facet normal  0.000000e+00  0.000000e+00  1.000000e+00
   outer loop
     vertex -1.749445e+01  3.030127e+01  1.000000e+01
     vertex -3.498889e+01  0.000000e+00  1.000000e+01
     vertex -1.576240e+01  2.730127e+01  1.000000e+01
   endloop
 endfacet
 facet normal  0.000000e+00  0.000000e+00  1.000000e+00
   outer loop
     vertex  3.498889e+01  0.000000e+00  1.000000e+01
     vertex  3.152479e+01  0.000000e+00  1.000000e+01
     vertex  1.576240e+01 -2.730127e+01  1.000000e+01
   endloop
 endfacet
 facet normal  0.000000e+00  0.000000e+00  1.000000e+00
   outer loop
     vertex  3.498889e+01  0.000000e+00  1.000000e+01
     vertex  1.576240e+01 -2.730127e+01  1.000000e+01
     vertex  1.749445e+01 -3.030127e+01  1.000000e+01
   endloop
 endfacet
 facet normal  0.000000e+00  0.000000e+00  1.000000e+00
   outer loop
     vertex  1.576240e+01  2.730127e+01  1.000000e+01
     vertex  3.152479e+01  0.000000e+00  1.000000e+01
     vertex  3.498889e+01  0.000000e+00  1.000000e+01
   endloop
 endfacet
 facet normal  0.000000e+00  0.000000e+00  1.000000e+00
   outer loop
     vertex  1.576240e+01  2.730127e+01  1.000000e+01
     vertex -1.749445e+01  3.030127e+01  1.000000e+01
     vertex -1.576240e+01  2.730127e+01  1.000000e+01
   endloop
 endfacet
 facet normal  0.000000e+00  0.000000e+00  1.000000e+00
   outer loop
     vertex  1.749445e+01  3.030127e+01  1.000000e+01
     vertex  1.576240e+01  2.730127e+01  1.000000e+01
     vertex  3.498889e+01  0.000000e+00  1.000000e+01
   endloop
 endfacet
 facet normal  0.000000e+00  0.000000e+00  1.000000e+00
   outer loop
     vertex  1.749445e+01  3.030127e+01  1.000000e+01
     vertex -1.749445e+01  3.030127e+01  1.000000e+01
     vertex  1.576240e+01  2.730127e+01  1.000000e+01
   endloop
 endfacet
 facet normal  8.660254e-01  5.000000e-01  0.000000e+00
   outer loop
     vertex  1.576240e+01  2.730127e+01  1.000000e+01
     vertex  3.152479e+01  0.000000e+00  1.500000e+01
     vertex  3.152479e+01  0.000000e+00  1.000000e+01
   endloop
 endfacet
 facet normal  8.660254e-01  5.000000e-01 -0.000000e+00
   outer loop
     vertex  1.576240e+01  2.730127e+01  1.000000e+01
     vertex  1.576240e+01  2.730127e+01  1.500000e+01
     vertex  3.152479e+01  0.000000e+00  1.500000e+01
   endloop
 endfacet
 facet normal  0.000000e+00  1.000000e+00  0.000000e+00
   outer loop
     vertex -1.576240e+01  2.730127e+01  1.000000e+01
     vertex  1.576240e+01  2.730127e+01  1.500000e+01
     vertex  1.576240e+01  2.730127e+01  1.000000e+01
   endloop
 endfacet
 facet normal  0.000000e+00  1.000000e+00  0.000000e+00
   outer loop
     vertex -1.576240e+01  2.730127e+01  1.000000e+01
     vertex -1.576240e+01  2.730127e+01  1.500000e+01
     vertex  1.576240e+01  2.730127e+01  1.500000e+01
   endloop
 endfacet
 facet normal -8.660254e-01  5.000000e-01  0.000000e+00
   outer loop
     vertex -3.152479e+01  0.000000e+00  1.000000e+01
     vertex -1.576240e+01  2.730127e+01  1.500000e+01
     vertex -1.576240e+01  2.730127e+01  1.000000e+01
   endloop
 endfacet
 facet normal -8.660254e-01  5.000000e-01  0.000000e+00
   outer loop
     vertex -3.152479e+01  0.000000e+00  1.000000e+01
     vertex -3.152479e+01  0.000000e+00  1.500000e+01
     vertex -1.576240e+01  2.730127e+01  1.500000e+01
   endloop
 endfacet
 facet normal -8.660254e-01 -5.000000e-01  0.000000e+00
   outer loop
     vertex -1.576240e+01 -2.730127e+01  1.000000e+01
     vertex -3.152479e+01  0.000000e+00  1.500000e+01
     vertex -3.152479e+01  0.000000e+00  1.000000e+01
   endloop
 endfacet
 facet normal -8.660254e-01 -5.000000e-01  0.000000e+00
   outer loop
     vertex -1.576240e+01 -2.730127e+01  1.000000e+01
     vertex -1.576240e+01 -2.730127e+01  1.500000e+01
     vertex -3.152479e+01  0.000000e+00  1.500000e+01
   endloop
 endfacet
 facet normal  0.000000e+00 -1.000000e+00  0.000000e+00
   outer loop
     vertex  1.576240e+01 -2.730127e+01  1.000000e+01
     vertex -1.576240e+01 -2.730127e+01  1.500000e+01
     vertex -1.576240e+01 -2.730127e+01  1.000000e+01
   endloop
 endfacet
 facet normal  0.000000e+00 -1.000000e+00  0.000000e+00
   outer loop
     vertex  1.576240e+01 -2.730127e+01  1.000000e+01
     vertex  1.576240e+01 -2.730127e+01  1.500000e+01
     vertex -1.576240e+01 -2.730127e+01  1.500000e+01
   endloop
 endfacet
 facet normal  8.660254e-01 -5.000000e-01  0.000000e+00
   outer loop
     vertex  3.152479e+01  0.000000e+00  1.000000e+01
     vertex  1.576240e+01 -2.730127e+01  1.500000e+01
     vertex  1.576240e+01 -2.730127e+01  1.000000e+01
   endloop
 endfacet
 facet normal  8.660254e-01 -5.000000e-01  0.000000e+00
   outer loop
     vertex  3.152479e+01  0.000000e+00  1.000000e+01
     vertex  3.152479e+01  0.000000e+00  1.500000e+01
     vertex  1.576240e+01 -2.730127e+01  1.500000e+01
   endloop
 endfacet
 facet normal  0.000000e+00  0.000000e+00  1.000000e+00
   outer loop
     vertex -2.575129e+01  0.000000e+00  1.500000e+01
     vertex -3.152479e+01  0.000000e+00  1.500000e+01
     vertex -1.576240e+01 -2.730127e+01  1.500000e+01
   endloop
 endfacet
 facet normal  0.000000e+00  0.000000e+00  1.000000e+00
   outer loop
     vertex -2.575129e+01  0.000000e+00  1.500000e+01
     vertex -1.576240e+01 -2.730127e+01  1.500000e+01
     vertex -1.287564e+01 -2.230127e+01  1.500000e+01
   endloop
 endfacet
 facet normal  0.000000e+00  0.000000e+00  1.000000e+00
   outer loop
     vertex  1.576240e+01 -2.730127e+01  1.500000e+01
     vertex -1.287564e+01 -2.230127e+01  1.500000e+01
     vertex -1.576240e+01 -2.730127e+01  1.500000e+01
   endloop
 endfacet
 facet normal  0.000000e+00  0.000000e+00  1.000000e+00
   outer loop
     vertex  1.287564e+01 -2.230127e+01  1.500000e+01
     vertex -1.287564e+01 -2.230127e+01  1.500000e+01
     vertex  1.576240e+01 -2.730127e+01  1.500000e+01
   endloop
 endfacet
 facet normal  0.000000e+00  0.000000e+00  1.000000e+00
   outer loop
     vertex -1.576240e+01  2.730127e+01  1.500000e+01
     vertex -2.575129e+01  0.000000e+00  1.500000e+01
     vertex -1.287564e+01  2.230127e+01  1.500000e+01
   endloop
 endfacet
 facet normal  0.000000e+00  0.000000e+00  1.000000e+00
   outer loop
     vertex -1.576240e+01  2.730127e+01  1.500000e+01
     vertex -3.152479e+01  0.000000e+00  1.500000e+01
     vertex -2.575129e+01  0.000000e+00  1.500000e+01
   endloop
 endfacet
 facet normal  0.000000e+00  0.000000e+00  1.000000e+00
   outer loop
     vertex  3.152479e+01  0.000000e+00  1.500000e+01
     vertex  2.575129e+01  0.000000e+00  1.500000e+01
     vertex  1.287564e+01 -2.230127e+01  1.500000e+01
   endloop
 endfacet
 facet normal  0.000000e+00  0.000000e+00  1.000000e+00
   outer loop
     vertex  3.152479e+01  0.000000e+00  1.500000e+01
     vertex  1.287564e+01 -2.230127e+01  1.500000e+01
     vertex  1.576240e+01 -2.730127e+01  1.500000e+01
   endloop
 endfacet
 facet normal  0.000000e+00  0.000000e+00  1.000000e+00
   outer loop
     vertex  1.576240e+01  2.730127e+01  1.500000e+01
     vertex  1.287564e+01  2.230127e+01  1.500000e+01
     vertex  2.575129e+01  0.000000e+00  1.500000e+01
   endloop
 endfacet
 facet normal  0.000000e+00  0.000000e+00  1.000000e+00
   outer loop
     vertex  1.576240e+01  2.730127e+01  1.500000e+01
     vertex -1.287564e+01  2.230127e+01  1.500000e+01
     vertex  1.287564e+01  2.230127e+01  1.500000e+01
   endloop
 endfacet
 facet normal  0.000000e+00  0.000000e+00  1.000000e+00
   outer loop
     vertex  1.576240e+01  2.730127e+01  1.500000e+01
     vertex  2.575129e+01  0.000000e+00  1.500000e+01
     vertex  3.152479e+01  0.000000e+00  1.500000e+01
   endloop
 endfacet
 facet normal  0.000000e+00  0.000000e+00  1.000000e+00
   outer loop
     vertex  1.576240e+01  2.730127e+01  1.500000e+01
     vertex -1.576240e+01  2.730127e+01  1.500000e+01
     vertex -1.287564e+01  2.230127e+01  1.500000e+01
   endloop
 endfacet
 facet normal -8.660254e-01 -5.000000e-01  0.000000e+00
   outer loop
     vertex  1.287564e+01  2.230127e+01  1.000000e+01
     vertex  2.575129e+01  0.000000e+00  1.000000e+01
     vertex  2.575129e+01  0.000000e+00  1.500000e+01
   endloop
 endfacet
 facet normal -8.660254e-01 -5.000000e-01  0.000000e+00
   outer loop
     vertex  1.287564e+01  2.230127e+01  1.000000e+01
     vertex  2.575129e+01  0.000000e+00  1.500000e+01
     vertex  1.287564e+01  2.230127e+01  1.500000e+01
   endloop
 endfacet
 facet normal  0.000000e+00 -1.000000e+00  0.000000e+00
   outer loop
     vertex -1.287564e+01  2.230127e+01  1.000000e+01
     vertex  1.287564e+01  2.230127e+01  1.000000e+01
     vertex  1.287564e+01  2.230127e+01  1.500000e+01
   endloop
 endfacet
 facet normal  0.000000e+00 -1.000000e+00  0.000000e+00
   outer loop
     vertex -1.287564e+01  2.230127e+01  1.000000e+01
     vertex  1.287564e+01  2.230127e+01  1.500000e+01
     vertex -1.287564e+01  2.230127e+01  1.500000e+01
   endloop
 endfacet
 facet normal  8.660254e-01 -5.000000e-01  0.000000e+00
   outer loop
     vertex -2.575129e+01  0.000000e+00  1.000000e+01
     vertex -1.287564e+01  2.230127e+01  1.000000e+01
     vertex -1.287564e+01  2.230127e+01  1.500000e+01
   endloop
 endfacet
 facet normal  8.660254e-01 -5.000000e-01  0.000000e+00
   outer loop
     vertex -2.575129e+01  0.000000e+00  1.000000e+01
     vertex -1.287564e+01  2.230127e+01  1.500000e+01
     vertex -2.575129e+01  0.000000e+00  1.500000e+01
   endloop
 endfacet
 facet normal  8.660254e-01  5.000000e-01  0.000000e+00
   outer loop
     vertex -1.287564e+01 -2.230127e+01  1.000000e+01
     vertex -2.575129e+01  0.000000e+00  1.000000e+01
     vertex -2.575129e+01  0.000000e+00  1.500000e+01
   endloop
 endfacet
 facet normal  8.660254e-01  5.000000e-01 -0.000000e+00
   outer loop
     vertex -1.287564e+01 -2.230127e+01  1.000000e+01
     vertex -2.575129e+01  0.000000e+00  1.500000e+01
     vertex -1.287564e+01 -2.230127e+01  1.500000e+01
   endloop
 endfacet
 facet normal  0.000000e+00  1.000000e+00  0.000000e+00
   outer loop
     vertex  1.287564e+01 -2.230127e+01  1.000000e+01
     vertex -1.287564e+01 -2.230127e+01  1.000000e+01
     vertex -1.287564e+01 -2.230127e+01  1.500000e+01
   endloop
 endfacet
 facet normal  0.000000e+00  1.000000e+00 -0.000000e+00
   outer loop
     vertex  1.287564e+01 -2.230127e+01  1.000000e+01
     vertex -1.287564e+01 -2.230127e+01  1.500000e+01
     vertex  1.287564e+01 -2.230127e+01  1.500000e+01
   endloop
 endfacet
 facet normal -8.660254e-01  5.000000e-01  0.000000e+00
   outer loop
     vertex  2.575129e+01  0.000000e+00  1.000000e+01
     vertex  1.287564e+01 -2.230127e+01  1.000000e+01
     vertex  1.287564e+01 -2.230127e+01  1.500000e+01
   endloop
 endfacet
 facet normal -8.660254e-01  5.000000e-01  0.000000e+00
   outer loop
     vertex  2.575129e+01  0.000000e+00  1.000000e+01
     vertex  1.287564e+01 -2.230127e+01  1.500000e+01
     vertex  2.575129e+01  0.000000e+00  1.500000e+01
   endloop
 endfacet
 facet normal  0.000000e+00  0.000000e+00  1.000000e+00
   outer loop
     vertex -2.228719e+01  0.000000e+00  1.000000e+01
     vertex -2.575129e+01  0.000000e+00  1.000000e+01
     vertex -1.287564e+01 -2.230127e+01  1.000000e+01
   endloop
 endfacet
 facet normal  0.000000e+00  0.000000e+00  1.000000e+00
   outer loop
     vertex -2.228719e+01  0.000000e+00  1.000000e+01
     vertex -1.287564e+01 -2.230127e+01  1.000000e+01
     vertex -1.114359e+01 -1.930127e+01  1.000000e+01
   endloop
 endfacet
 facet normal  0.000000e+00  0.000000e+00  1.000000e+00
   outer loop
     vertex  1.114359e+01 -1.930127e+01  1.000000e+01
     vertex -1.287564e+01 -2.230127e+01  1.000000e+01
     vertex  1.287564e+01 -2.230127e+01  1.000000e+01
   endloop
 endfacet
 facet normal  0.000000e+00  0.000000e+00  1.000000e+00
   outer loop
     vertex  1.114359e+01 -1.930127e+01  1.000000e+01
     vertex -1.114359e+01 -1.930127e+01  1.000000e+01
     vertex -1.287564e+01 -2.230127e+01  1.000000e+01
   endloop
 endfacet
 facet normal  0.000000e+00  0.000000e+00  1.000000e+00
   outer loop
     vertex -1.287564e+01  2.230127e+01  1.000000e+01
     vertex -2.228719e+01  0.000000e+00  1.000000e+01
     vertex -1.114359e+01  1.930127e+01  1.000000e+01
   endloop
 endfacet
 facet normal  0.000000e+00  0.000000e+00  1.000000e+00
   outer loop
     vertex -1.287564e+01  2.230127e+01  1.000000e+01
     vertex -2.575129e+01  0.000000e+00  1.000000e+01
     vertex -2.228719e+01  0.000000e+00  1.000000e+01
   endloop
 endfacet
 facet normal  0.000000e+00  0.000000e+00  1.000000e+00
   outer loop
     vertex  2.228719e+01  0.000000e+00  1.000000e+01
     vertex  1.114359e+01 -1.930127e+01  1.000000e+01
     vertex  1.287564e+01 -2.230127e+01  1.000000e+01
   endloop
 endfacet
 facet normal  0.000000e+00  0.000000e+00  1.000000e+00
   outer loop
     vertex  2.575129e+01  0.000000e+00  1.000000e+01
     vertex  2.228719e+01  0.000000e+00  1.000000e+01
     vertex  1.287564e+01 -2.230127e+01  1.000000e+01
   endloop
 endfacet
 facet normal  0.000000e+00  0.000000e+00  1.000000e+00
   outer loop
     vertex  1.114359e+01  1.930127e+01  1.000000e+01
     vertex -1.287564e+01  2.230127e+01  1.000000e+01
     vertex -1.114359e+01  1.930127e+01  1.000000e+01
   endloop
 endfacet
 facet normal  0.000000e+00  0.000000e+00  1.000000e+00
   outer loop
     vertex  1.114359e+01  1.930127e+01  1.000000e+01
     vertex  2.228719e+01  0.000000e+00  1.000000e+01
     vertex  2.575129e+01  0.000000e+00  1.000000e+01
   endloop
 endfacet
 facet normal  0.000000e+00  0.000000e+00  1.000000e+00
   outer loop
     vertex  1.287564e+01  2.230127e+01  1.000000e+01
     vertex -1.287564e+01  2.230127e+01  1.000000e+01
     vertex  1.114359e+01  1.930127e+01  1.000000e+01
   endloop
 endfacet
 facet normal  0.000000e+00  0.000000e+00  1.000000e+00
   outer loop
     vertex  1.287564e+01  2.230127e+01  1.000000e+01
     vertex  1.114359e+01  1.930127e+01  1.000000e+01
     vertex  2.575129e+01  0.000000e+00  1.000000e+01
   endloop
 endfacet
 facet normal  8.660254e-01  5.000000e-01  0.000000e+00
   outer loop
     vertex  1.114359e+01  1.930127e+01  1.000000e+01
     vertex  2.228719e+01  0.000000e+00  1.500000e+01
     vertex  2.228719e+01  0.000000e+00  1.000000e+01
   endloop
 endfacet
 facet normal  8.660254e-01  5.000000e-01 -0.000000e+00
   outer loop
     vertex  1.114359e+01  1.930127e+01  1.000000e+01
     vertex  1.114359e+01  1.930127e+01  1.500000e+01
     vertex  2.228719e+01  0.000000e+00  1.500000e+01
   endloop
 endfacet
 facet normal  0.000000e+00  1.000000e+00  0.000000e+00
   outer loop
     vertex -1.114359e+01  1.930127e+01  1.000000e+01
     vertex  1.114359e+01  1.930127e+01  1.500000e+01
     vertex  1.114359e+01  1.930127e+01  1.000000e+01
   endloop
 endfacet
 facet normal  0.000000e+00  1.000000e+00  0.000000e+00
   outer loop
     vertex -1.114359e+01  1.930127e+01  1.000000e+01
     vertex -1.114359e+01  1.930127e+01  1.500000e+01
     vertex  1.114359e+01  1.930127e+01  1.500000e+01
   endloop
 endfacet
 facet normal -8.660254e-01  5.000000e-01  0.000000e+00
   outer loop
     vertex -2.228719e+01  0.000000e+00  1.000000e+01
     vertex -1.114359e+01  1.930127e+01  1.500000e+01
     vertex -1.114359e+01  1.930127e+01  1.000000e+01
   endloop
 endfacet
 facet normal -8.660254e-01  5.000000e-01  0.000000e+00
   outer loop
     vertex -2.228719e+01  0.000000e+00  1.000000e+01
     vertex -2.228719e+01  0.000000e+00  1.500000e+01
     vertex -1.114359e+01  1.930127e+01  1.500000e+01
   endloop
 endfacet
 facet normal -8.660254e-01 -5.000000e-01  0.000000e+00
   outer loop
     vertex -1.114359e+01 -1.930127e+01  1.000000e+01
     vertex -2.228719e+01  0.000000e+00  1.500000e+01
     vertex -2.228719e+01  0.000000e+00  1.000000e+01
   endloop
 endfacet
 facet normal -8.660254e-01 -5.000000e-01  0.000000e+00
   outer loop
     vertex -1.114359e+01 -1.930127e+01  1.000000e+01
     vertex -1.114359e+01 -1.930127e+01  1.500000e+01
     vertex -2.228719e+01  0.000000e+00  1.500000e+01
   endloop
 endfacet
 facet normal  0.000000e+00 -1.000000e+00  0.000000e+00
   outer loop
     vertex  1.114359e+01 -1.930127e+01  1.000000e+01
     vertex -1.114359e+01 -1.930127e+01  1.500000e+01
     vertex -1.114359e+01 -1.930127e+01  1.000000e+01
   endloop
 endfacet
 facet normal  0.000000e+00 -1.000000e+00  0.000000e+00
   outer loop
     vertex  1.114359e+01 -1.930127e+01  1.000000e+01
     vertex  1.114359e+01 -1.930127e+01  1.500000e+01
     vertex -1.114359e+01 -1.930127e+01  1.500000e+01
   endloop
 endfacet
 facet normal  8.660254e-01 -5.000000e-01  0.000000e+00
   outer loop
     vertex  2.228719e+01  0.000000e+00  1.000000e+01
     vertex  1.114359e+01 -1.930127e+01  1.500000e+01
     vertex  1.114359e+01 -1.930127e+01  1.000000e+01
   endloop
 endfacet
 facet normal  8.660254e-01 -5.000000e-01  0.000000e+00
   outer loop
     vertex  2.228719e+01  0.000000e+00  1.000000e+01
     vertex  2.228719e+01  0.000000e+00  1.500000e+01
     vertex  1.114359e+01 -1.930127e+01  1.500000e+01
   endloop
 endfacet
 facet normal  0.000000e+00  0.000000e+00  1.000000e+00
   outer loop
     vertex -1.651368e+01  0.000000e+00  1.500000e+01
     vertex -2.228719e+01  0.000000e+00  1.500000e+01
     vertex -1.114359e+01 -1.930127e+01  1.500000e+01
   endloop
 endfacet
 facet normal  0.000000e+00  0.000000e+00  1.000000e+00
   outer loop
     vertex -1.651368e+01  0.000000e+00  1.500000e+01
     vertex -1.114359e+01 -1.930127e+01  1.500000e+01
     vertex -8.256842e+00 -1.430127e+01  1.500000e+01
   endloop
 endfacet
 facet normal  0.000000e+00  0.000000e+00  1.000000e+00
   outer loop
     vertex  8.256842e+00 -1.430127e+01  1.500000e+01
     vertex -1.114359e+01 -1.930127e+01  1.500000e+01
     vertex  1.114359e+01 -1.930127e+01  1.500000e+01
   endloop
 endfacet
 facet normal  0.000000e+00  0.000000e+00  1.000000e+00
   outer loop
     vertex  8.256842e+00 -1.430127e+01  1.500000e+01
     vertex -8.256842e+00 -1.430127e+01  1.500000e+01
     vertex -1.114359e+01 -1.930127e+01  1.500000e+01
   endloop
 endfacet
 facet normal  0.000000e+00  0.000000e+00  1.000000e+00
   outer loop
     vertex -1.114359e+01  1.930127e+01  1.500000e+01
     vertex -1.651368e+01  0.000000e+00  1.500000e+01
     vertex -8.256842e+00  1.430127e+01  1.500000e+01
   endloop
 endfacet
 facet normal  0.000000e+00  0.000000e+00  1.000000e+00
   outer loop
     vertex -1.114359e+01  1.930127e+01  1.500000e+01
     vertex -2.228719e+01  0.000000e+00  1.500000e+01
     vertex -1.651368e+01  0.000000e+00  1.500000e+01
   endloop
 endfacet
 facet normal  0.000000e+00  0.000000e+00  1.000000e+00
   outer loop
     vertex  2.228719e+01  0.000000e+00  1.500000e+01
     vertex  1.651368e+01  0.000000e+00  1.500000e+01
     vertex  8.256842e+00 -1.430127e+01  1.500000e+01
   endloop
 endfacet
 facet normal  0.000000e+00  0.000000e+00  1.000000e+00
   outer loop
     vertex  2.228719e+01  0.000000e+00  1.500000e+01
     vertex  8.256842e+00 -1.430127e+01  1.500000e+01
     vertex  1.114359e+01 -1.930127e+01  1.500000e+01
   endloop
 endfacet
 facet normal  0.000000e+00  0.000000e+00  1.000000e+00
   outer loop
     vertex  8.256842e+00  1.430127e+01  1.500000e+01
     vertex -1.114359e+01  1.930127e+01  1.500000e+01
     vertex -8.256842e+00  1.430127e+01  1.500000e+01
   endloop
 endfacet
 facet normal  0.000000e+00  0.000000e+00  1.000000e+00
   outer loop
     vertex  1.114359e+01  1.930127e+01  1.500000e+01
     vertex  8.256842e+00  1.430127e+01  1.500000e+01
     vertex  1.651368e+01  0.000000e+00  1.500000e+01
   endloop
 endfacet
 facet normal  0.000000e+00  0.000000e+00  1.000000e+00
   outer loop
     vertex  1.114359e+01  1.930127e+01  1.500000e+01
     vertex  1.651368e+01  0.000000e+00  1.500000e+01
     vertex  2.228719e+01  0.000000e+00  1.500000e+01
   endloop
 endfacet
 facet normal  0.000000e+00  0.000000e+00  1.000000e+00
   outer loop
     vertex  1.114359e+01  1.930127e+01  1.500000e+01
     vertex -1.114359e+01  1.930127e+01  1.500000e+01
     vertex  8.256842e+00  1.430127e+01  1.500000e+01
   endloop
 endfacet
 facet normal -8.660254e-01 -5.000000e-01  0.000000e+00
   outer loop
     vertex  8.256842e+00  1.430127e+01  1.000000e+01
     vertex  1.651368e+01  0.000000e+00  1.000000e+01
     vertex  1.651368e+01  0.000000e+00  1.500000e+01
   endloop
 endfacet
 facet normal -8.660254e-01 -5.000000e-01  0.000000e+00
   outer loop
     vertex  8.256842e+00  1.430127e+01  1.000000e+01
     vertex  1.651368e+01  0.000000e+00  1.500000e+01
     vertex  8.256842e+00  1.430127e+01  1.500000e+01
   endloop
 endfacet
 facet normal  0.000000e+00 -1.000000e+00  0.000000e+00
   outer loop
     vertex -8.256842e+00  1.430127e+01  1.000000e+01
     vertex  8.256842e+00  1.430127e+01  1.000000e+01
     vertex  8.256842e+00  1.430127e+01  1.500000e+01
   endloop
 endfacet
 facet normal  0.000000e+00 -1.000000e+00  0.000000e+00
   outer loop
     vertex -8.256842e+00  1.430127e+01  1.000000e+01
     vertex  8.256842e+00  1.430127e+01  1.500000e+01
     vertex -8.256842e+00  1.430127e+01  1.500000e+01
   endloop
 endfacet
 facet normal  8.660254e-01 -5.000000e-01  0.000000e+00
   outer loop
     vertex -1.651368e+01  0.000000e+00  1.000000e+01
     vertex -8.256842e+00  1.430127e+01  1.000000e+01
     vertex -8.256842e+00  1.430127e+01  1.500000e+01
   endloop
 endfacet
 facet normal  8.660254e-01 -5.000000e-01  0.000000e+00
   outer loop
     vertex -1.651368e+01  0.000000e+00  1.000000e+01
     vertex -8.256842e+00  1.430127e+01  1.500000e+01
     vertex -1.651368e+01  0.000000e+00  1.500000e+01
   endloop
 endfacet
 facet normal  8.660254e-01  5.000000e-01  0.000000e+00
   outer loop
     vertex -8.256842e+00 -1.430127e+01  1.000000e+01
     vertex -1.651368e+01  0.000000e+00  1.000000e+01
     vertex -1.651368e+01  0.000000e+00  1.500000e+01
   endloop
 endfacet
 facet normal  8.660254e-01  5.000000e-01 -0.000000e+00
   outer loop
     vertex -8.256842e+00 -1.430127e+01  1.000000e+01
     vertex -1.651368e+01  0.000000e+00  1.500000e+01
     vertex -8.256842e+00 -1.430127e+01  1.500000e+01
   endloop
 endfacet
 facet normal  0.000000e+00  1.000000e+00  0.000000e+00
   outer loop
     vertex  8.256842e+00 -1.430127e+01  1.000000e+01
     vertex -8.256842e+00 -1.430127e+01  1.000000e+01
     vertex -8.256842e+00 -1.430127e+01  1.500000e+01
   endloop
 endfacet
 facet normal  0.000000e+00  1.000000e+00 -0.000000e+00
   outer loop
     vertex  8.256842e+00 -1.430127e+01  1.000000e+01
     vertex -8.256842e+00 -1.430127e+01  1.500000e+01
     vertex  8.256842e+00 -1.430127e+01  1.500000e+01
   endloop
 endfacet
 facet normal -8.660254e-01  5.000000e-01  0.000000e+00
   outer loop
     vertex  1.651368e+01  0.000000e+00  1.000000e+01
     vertex  8.256842e+00 -1.430127e+01  1.000000e+01
     vertex  8.256842e+00 -1.430127e+01  1.500000e+01
   endloop
 endfacet
 facet normal -8.660254e-01  5.000000e-01  0.000000e+00
   outer loop
     vertex  1.651368e+01  0.000000e+00  1.000000e+01
     vertex  8.256842e+00 -1.430127e+01  1.500000e+01
     vertex  1.651368e+01  0.000000e+00  1.500000e+01
   endloop
 endfacet
 facet normal  0.000000e+00  0.000000e+00  1.000000e+00
   outer loop
     vertex -1.304958e+01  0.000000e+00  1.000000e+01
     vertex -1.651368e+01  0.000000e+00  1.000000e+01
     vertex -8.256842e+00 -1.430127e+01  1.000000e+01
   endloop
 endfacet
 facet normal  0.000000e+00  0.000000e+00  1.000000e+00
   outer loop
     vertex -1.304958e+01  0.000000e+00  1.000000e+01
     vertex -8.256842e+00 -1.430127e+01  1.000000e+01
     vertex -6.524791e+00 -1.130127e+01  1.000000e+01
   endloop
 endfacet
 facet normal  0.000000e+00  0.000000e+00  1.000000e+00
   outer loop
     vertex  8.256842e+00 -1.430127e+01  1.000000e+01
     vertex -6.524791e+00 -1.130127e+01  1.000000e+01
     vertex -8.256842e+00 -1.430127e+01  1.000000e+01
   endloop
 endfacet
 facet normal  0.000000e+00  0.000000e+00  1.000000e+00
   outer loop
     vertex  6.524791e+00 -1.130127e+01  1.000000e+01
     vertex -6.524791e+00 -1.130127e+01  1.000000e+01
     vertex  8.256842e+00 -1.430127e+01  1.000000e+01
   endloop
 endfacet
 facet normal  0.000000e+00  0.000000e+00  1.000000e+00
   outer loop
     vertex -8.256842e+00  1.430127e+01  1.000000e+01
     vertex -1.304958e+01  0.000000e+00  1.000000e+01
     vertex -6.524791e+00  1.130127e+01  1.000000e+01
   endloop
 endfacet
 facet normal  0.000000e+00  0.000000e+00  1.000000e+00
   outer loop
     vertex -8.256842e+00  1.430127e+01  1.000000e+01
     vertex -1.651368e+01  0.000000e+00  1.000000e+01
     vertex -1.304958e+01  0.000000e+00  1.000000e+01
   endloop
 endfacet
 facet normal  0.000000e+00  0.000000e+00  1.000000e+00
   outer loop
     vertex  1.304958e+01  0.000000e+00  1.000000e+01
     vertex  6.524791e+00 -1.130127e+01  1.000000e+01
     vertex  8.256842e+00 -1.430127e+01  1.000000e+01
   endloop
 endfacet
 facet normal  0.000000e+00  0.000000e+00  1.000000e+00
   outer loop
     vertex  1.651368e+01  0.000000e+00  1.000000e+01
     vertex  1.304958e+01  0.000000e+00  1.000000e+01
     vertex  8.256842e+00 -1.430127e+01  1.000000e+01
   endloop
 endfacet
 facet normal  0.000000e+00  0.000000e+00  1.000000e+00
   outer loop
     vertex  6.524791e+00  1.130127e+01  1.000000e+01
     vertex -8.256842e+00  1.430127e+01  1.000000e+01
     vertex -6.524791e+00  1.130127e+01  1.000000e+01
   endloop
 endfacet
 facet normal  0.000000e+00  0.000000e+00  1.000000e+00
   outer loop
     vertex  8.256842e+00  1.430127e+01  1.000000e+01
     vertex  6.524791e+00  1.130127e+01  1.000000e+01
     vertex  1.304958e+01  0.000000e+00  1.000000e+01
   endloop
 endfacet
 facet normal  0.000000e+00  0.000000e+00  1.000000e+00
   outer loop
     vertex  8.256842e+00  1.430127e+01  1.000000e+01
     vertex  1.304958e+01  0.000000e+00  1.000000e+01
     vertex  1.651368e+01  0.000000e+00  1.000000e+01
   endloop
 endfacet
 facet normal  0.000000e+00  0.000000e+00  1.000000e+00
   outer loop
     vertex  8.256842e+00  1.430127e+01  1.000000e+01
     vertex -8.256842e+00  1.430127e+01  1.000000e+01
     vertex  6.524791e+00  1.130127e+01  1.000000e+01
   endloop
 endfacet
 facet normal  8.660254e-01  5.000000e-01  0.000000e+00
   outer loop
     vertex  6.524791e+00  1.130127e+01  1.000000e+01
     vertex  1.304958e+01  0.000000e+00  1.500000e+01
     vertex  1.304958e+01  0.000000e+00  1.000000e+01
   endloop
 endfacet
 facet normal  8.660254e-01  5.000000e-01 -0.000000e+00
   outer loop
     vertex  6.524791e+00  1.130127e+01  1.000000e+01
     vertex  6.524791e+00  1.130127e+01  1.500000e+01
     vertex  1.304958e+01  0.000000e+00  1.500000e+01
   endloop
 endfacet
 facet normal  0.000000e+00  1.000000e+00  0.000000e+00
   outer loop
     vertex -6.524791e+00  1.130127e+01  1.000000e+01
     vertex  6.524791e+00  1.130127e+01  1.500000e+01
     vertex  6.524791e+00  1.130127e+01  1.000000e+01
   endloop
 endfacet
 facet normal  0.000000e+00  1.000000e+00  0.000000e+00
   outer loop
     vertex -6.524791e+00  1.130127e+01  1.000000e+01
     vertex -6.524791e+00  1.130127e+01  1.500000e+01
     vertex  6.524791e+00  1.130127e+01  1.500000e+01
   endloop
 endfacet
 facet normal -8.660254e-01  5.000000e-01  0.000000e+00
   outer loop
     vertex -1.304958e+01  0.000000e+00  1.000000e+01
     vertex -6.524791e+00  1.130127e+01  1.500000e+01
     vertex -6.524791e+00  1.130127e+01  1.000000e+01
   endloop
 endfacet
 facet normal -8.660254e-01  5.000000e-01  0.000000e+00
   outer loop
     vertex -1.304958e+01  0.000000e+00  1.000000e+01
     vertex -1.304958e+01  0.000000e+00  1.500000e+01
     vertex -6.524791e+00  1.130127e+01  1.500000e+01
   endloop
 endfacet
 facet normal -8.660254e-01 -5.000000e-01  0.000000e+00
   outer loop
     vertex -6.524791e+00 -1.130127e+01  1.000000e+01
     vertex -1.304958e+01  0.000000e+00  1.500000e+01
     vertex -1.304958e+01  0.000000e+00  1.000000e+01
   endloop
 endfacet
 facet normal -8.660254e-01 -5.000000e-01  0.000000e+00
   outer loop
     vertex -6.524791e+00 -1.130127e+01  1.000000e+01
     vertex -6.524791e+00 -1.130127e+01  1.500000e+01
     vertex -1.304958e+01  0.000000e+00  1.500000e+01
   endloop
 endfacet
 facet normal  0.000000e+00 -1.000000e+00  0.000000e+00
   outer loop
     vertex  6.524791e+00 -1.130127e+01  1.000000e+01
     vertex -6.524791e+00 -1.130127e+01  1.500000e+01
     vertex -6.524791e+00 -1.130127e+01  1.000000e+01
   endloop
 endfacet
 facet normal  0.000000e+00 -1.000000e+00  0.000000e+00
   outer loop
     vertex  6.524791e+00 -1.130127e+01  1.000000e+01
     vertex  6.524791e+00 -1.130127e+01  1.500000e+01
     vertex -6.524791e+00 -1.130127e+01  1.500000e+01
   endloop
 endfacet
 facet normal  8.660254e-01 -5.000000e-01  0.000000e+00
   outer loop
     vertex  1.304958e+01  0.000000e+00  1.000000e+01
     vertex  6.524791e+00 -1.130127e+01  1.500000e+01
     vertex  6.524791e+00 -1.130127e+01  1.000000e+01
   endloop
 endfacet
 facet normal  8.660254e-01 -5.000000e-01  0.000000e+00
   outer loop
     vertex  1.304958e+01  0.000000e+00  1.000000e+01
     vertex  1.304958e+01  0.000000e+00  1.500000e+01
     vertex  6.524791e+00 -1.130127e+01  1.500000e+01
   endloop
 endfacet
 facet normal  0.000000e+00  0.000000e+00  1.000000e+00
   outer loop
     vertex -7.276080e+00  0.000000e+00  1.500000e+01
     vertex -1.304958e+01  0.000000e+00  1.500000e+01
     vertex -6.524791e+00 -1.130127e+01  1.500000e+01
   endloop
 endfacet
 facet normal  0.000000e+00  0.000000e+00  1.000000e+00
   outer loop
     vertex -7.276080e+00  0.000000e+00  1.500000e+01
     vertex -6.524791e+00 -1.130127e+01  1.500000e+01
     vertex -3.638040e+00 -6.301270e+00  1.500000e+01
   endloop
 endfacet
 facet normal  0.000000e+00  0.000000e+00  1.000000e+00
   outer loop
     vertex  6.524791e+00 -1.130127e+01  1.500000e+01
     vertex -3.638040e+00 -6.301270e+00  1.500000e+01
     vertex -6.524791e+00 -1.130127e+01  1.500000e+01
   endloop
 endfacet
 facet normal  0.000000e+00  0.000000e+00  1.000000e+00
   outer loop
     vertex  3.638040e+00 -6.301270e+00  1.500000e+01
     vertex -3.638040e+00 -6.301270e+00  1.500000e+01
     vertex  6.524791e+00 -1.130127e+01  1.500000e+01
   endloop
 endfacet
 facet normal  0.000000e+00  0.000000e+00  1.000000e+00
   outer loop
     vertex -6.524791e+00  1.130127e+01  1.500000e+01
     vertex -7.276080e+00  0.000000e+00  1.500000e+01
     vertex -3.638040e+00  6.301270e+00  1.500000e+01
   endloop
 endfacet
 facet normal  0.000000e+00  0.000000e+00  1.000000e+00
   outer loop
     vertex -6.524791e+00  1.130127e+01  1.500000e+01
     vertex -1.304958e+01  0.000000e+00  1.500000e+01
     vertex -7.276080e+00  0.000000e+00  1.500000e+01
   endloop
 endfacet
 facet normal  0.000000e+00  0.000000e+00  1.000000e+00
   outer loop
     vertex  7.276080e+00  0.000000e+00  1.500000e+01
     vertex  3.638040e+00 -6.301270e+00  1.500000e+01
     vertex  6.524791e+00 -1.130127e+01  1.500000e+01
   endloop
 endfacet
 facet normal  0.000000e+00  0.000000e+00  1.000000e+00
   outer loop
     vertex  1.304958e+01  0.000000e+00  1.500000e+01
     vertex  7.276080e+00  0.000000e+00  1.500000e+01
     vertex  6.524791e+00 -1.130127e+01  1.500000e+01
   endloop
 endfacet
 facet normal  0.000000e+00  0.000000e+00  1.000000e+00
   outer loop
     vertex  6.524791e+00  1.130127e+01  1.500000e+01
     vertex  3.638040e+00  6.301270e+00  1.500000e+01
     vertex  7.276080e+00  0.000000e+00  1.500000e+01
   endloop
 endfacet
 facet normal  0.000000e+00  0.000000e+00  1.000000e+00
   outer loop
     vertex  6.524791e+00  1.130127e+01  1.500000e+01
     vertex -3.638040e+00  6.301270e+00  1.500000e+01
     vertex  3.638040e+00  6.301270e+00  1.500000e+01
   endloop
 endfacet
 facet normal  0.000000e+00  0.000000e+00  1.000000e+00
   outer loop
     vertex  6.524791e+00  1.130127e+01  1.500000e+01
     vertex  7.276080e+00  0.000000e+00  1.500000e+01
     vertex  1.304958e+01  0.000000e+00  1.500000e+01
   endloop
 endfacet
 facet normal  0.000000e+00  0.000000e+00  1.000000e+00
   outer loop
     vertex  6.524791e+00  1.130127e+01  1.500000e+01
     vertex -6.524791e+00  1.130127e+01  1.500000e+01
     vertex -3.638040e+00  6.301270e+00  1.500000e+01
   endloop
 endfacet
 facet normal -8.660254e-01 -5.000000e-01  0.000000e+00
   outer loop
     vertex  3.638040e+00  6.301270e+00  1.000000e+01
     vertex  7.276080e+00  0.000000e+00  1.000000e+01
     vertex  7.276080e+00  0.000000e+00  1.500000e+01
   endloop
 endfacet
 facet normal -8.660254e-01 -5.000000e-01  0.000000e+00
   outer loop
     vertex  3.638040e+00  6.301270e+00  1.000000e+01
     vertex  7.276080e+00  0.000000e+00  1.500000e+01
     vertex  3.638040e+00  6.301270e+00  1.500000e+01
   endloop
 endfacet
 facet normal  0.000000e+00 -1.000000e+00  0.000000e+00
   outer loop
     vertex -3.638040e+00  6.301270e+00  1.000000e+01
     vertex  3.638040e+00  6.301270e+00  1.000000e+01
     vertex  3.638040e+00  6.301270e+00  1.500000e+01
   endloop
 endfacet
 facet normal  0.000000e+00 -1.000000e+00  0.000000e+00
   outer loop
     vertex -3.638040e+00  6.301270e+00  1.000000e+01
     vertex  3.638040e+00  6.301270e+00  1.500000e+01
     vertex -3.638040e+00  6.301270e+00  1.500000e+01
   endloop
 endfacet
 facet normal  8.660254e-01 -5.000000e-01  0.000000e+00
   outer loop
     vertex -7.276080e+00  0.000000e+00  1.000000e+01
     vertex -3.638040e+00  6.301270e+00  1.000000e+01
     vertex -3.638040e+00  6.301270e+00  1.500000e+01
   endloop
 endfacet
 facet normal  8.660254e-01 -5.000000e-01  0.000000e+00
   outer loop
     vertex -7.276080e+00  0.000000e+00  1.000000e+01
     vertex -3.638040e+00  6.301270e+00  1.500000e+01
     vertex -7.276080e+00  0.000000e+00  1.500000e+01
   endloop
 endfacet
 facet normal  8.660254e-01  5.000000e-01  0.000000e+00
   outer loop
     vertex -3.638040e+00 -6.301270e+00  1.000000e+01
     vertex -7.276080e+00  0.000000e+00  1.000000e+01
     vertex -7.276080e+00  0.000000e+00  1.500000e+01
   endloop
 endfacet
 facet normal  8.660254e-01  5.000000e-01 -0.000000e+00
   outer loop
     vertex -3.638040e+00 -6.301270e+00  1.000000e+01
     vertex -7.276080e+00  0.000000e+00  1.500000e+01
     vertex -3.638040e+00 -6.301270e+00  1.500000e+01
   endloop
 endfacet
 facet normal  0.000000e+00  1.000000e+00  0.000000e+00
   outer loop
     vertex  3.638040e+00 -6.301270e+00  1.000000e+01
     vertex -3.638040e+00 -6.301270e+00  1.000000e+01
     vertex -3.638040e+00 -6.301270e+00  1.500000e+01
   endloop
 endfacet
 facet normal  0.000000e+00  1.000000e+00 -0.000000e+00
   outer loop
     vertex  3.638040e+00 -6.301270e+00  1.000000e+01
     vertex -3.638040e+00 -6.301270e+00  1.500000e+01
     vertex  3.638040e+00 -6.301270e+00  1.500000e+01
   endloop
 endfacet
 facet normal -8.660254e-01  5.000000e-01  0.000000e+00
   outer loop
     vertex  7.276080e+00  0.000000e+00  1.000000e+01
     vertex  3.638040e+00 -6.301270e+00  1.000000e+01
     vertex  3.638040e+00 -6.301270e+00  1.500000e+01
   endloop
 endfacet
 facet normal -8.660254e-01  5.000000e-01  0.000000e+00
   outer loop
     vertex  7.276080e+00  0.000000e+00  1.000000e+01
     vertex  3.638040e+00 -6.301270e+00  1.500000e+01
     vertex  7.276080e+00  0.000000e+00  1.500000e+01
   endloop
 endfacet
 facet normal  0.000000e+00  0.000000e+00  1.000000e+00
   outer loop
     vertex -3.811978e+00  0.000000e+00  1.000000e+01
     vertex -7.276080e+00  0.000000e+00  1.000000e+01
     vertex -3.638040e+00 -6.301270e+00  1.000000e+01
   endloop
 endfacet
 facet normal  0.000000e+00  0.000000e+00  1.000000e+00
   outer loop
     vertex -3.811978e+00  0.000000e+00  1.000000e+01
     vertex -3.638040e+00 -6.301270e+00  1.000000e+01
     vertex -1.905989e+00 -3.301270e+00  1.000000e+01
   endloop
 endfacet
 facet normal  0.000000e+00  0.000000e+00  1.000000e+00
   outer loop
     vertex  1.905989e+00 -3.301270e+00  1.000000e+01
     vertex -3.638040e+00 -6.301270e+00  1.000000e+01
     vertex  3.638040e+00 -6.301270e+00  1.000000e+01
   endloop
 endfacet
 facet normal  0.000000e+00  0.000000e+00  1.000000e+00
   outer loop
     vertex  1.905989e+00 -3.301270e+00  1.000000e+01
     vertex -1.905989e+00 -3.301270e+00  1.000000e+01
     vertex -3.638040e+00 -6.301270e+00  1.000000e+01
   endloop
 endfacet
 facet normal  0.000000e+00  0.000000e+00  1.000000e+00
   outer loop
     vertex -3.638040e+00  6.301270e+00  1.000000e+01
     vertex -3.811978e+00  0.000000e+00  1.000000e+01
     vertex -1.905989e+00  3.301270e+00  1.000000e+01
   endloop
 endfacet
 facet normal  0.000000e+00  0.000000e+00  1.000000e+00
   outer loop
     vertex -3.638040e+00  6.301270e+00  1.000000e+01
     vertex -7.276080e+00  0.000000e+00  1.000000e+01
     vertex -3.811978e+00  0.000000e+00  1.000000e+01
   endloop
 endfacet
 facet normal  0.000000e+00  0.000000e+00  1.000000e+00
   outer loop
     vertex  3.811978e+00  0.000000e+00  1.000000e+01
     vertex  1.905989e+00 -3.301270e+00  1.000000e+01
     vertex  3.638040e+00 -6.301270e+00  1.000000e+01
   endloop
 endfacet
 facet normal  0.000000e+00  0.000000e+00  1.000000e+00
   outer loop
     vertex  7.276080e+00  0.000000e+00  1.000000e+01
     vertex  1.905989e+00  3.301270e+00  1.000000e+01
     vertex  3.811978e+00  0.000000e+00  1.000000e+01
   endloop
 endfacet
 facet normal  0.000000e+00  0.000000e+00  1.000000e+00
   outer loop
     vertex  7.276080e+00  0.000000e+00  1.000000e+01
     vertex  3.811978e+00  0.000000e+00  1.000000e+01
     vertex  3.638040e+00 -6.301270e+00  1.000000e+01
   endloop
 endfacet
 facet normal  0.000000e+00  0.000000e+00  1.000000e+00
   outer loop
     vertex  3.638040e+00  6.301270e+00  1.000000e+01
     vertex -1.905989e+00  3.301270e+00  1.000000e+01
     vertex  1.905989e+00  3.301270e+00  1.000000e+01
   endloop
 endfacet
 facet normal  0.000000e+00  0.000000e+00  1.000000e+00
   outer loop
     vertex  3.638040e+00  6.301270e+00  1.000000e+01
     vertex  1.905989e+00  3.301270e+00  1.000000e+01
     vertex  7.276080e+00  0.000000e+00  1.000000e+01
   endloop
 endfacet
 facet normal  0.000000e+00  0.000000e+00  1.000000e+00
   outer loop
     vertex  3.638040e+00  6.301270e+00  1.000000e+01
     vertex -3.638040e+00  6.301270e+00  1.000000e+01
     vertex -1.905989e+00  3.301270e+00  1.000000e+01
   endloop
 endfacet
 facet normal  8.660254e-01  5.000000e-01  0.000000e+00
   outer loop
     vertex  1.905989e+00  3.301270e+00  1.000000e+01
     vertex  3.811978e+00  0.000000e+00  1.500000e+01
     vertex  3.811978e+00  0.000000e+00  1.000000e+01
   endloop
 endfacet
 facet normal  8.660254e-01  5.000000e-01 -0.000000e+00
   outer loop
     vertex  1.905989e+00  3.301270e+00  1.000000e+01
     vertex  1.905989e+00  3.301270e+00  1.500000e+01
     vertex  3.811978e+00  0.000000e+00  1.500000e+01
   endloop
 endfacet
 facet normal  0.000000e+00  1.000000e+00  0.000000e+00
   outer loop
     vertex -1.905989e+00  3.301270e+00  1.000000e+01
     vertex  1.905989e+00  3.301270e+00  1.500000e+01
     vertex  1.905989e+00  3.301270e+00  1.000000e+01
   endloop
 endfacet
 facet normal  0.000000e+00  1.000000e+00  0.000000e+00
   outer loop
     vertex -1.905989e+00  3.301270e+00  1.000000e+01
     vertex -1.905989e+00  3.301270e+00  1.500000e+01
     vertex  1.905989e+00  3.301270e+00  1.500000e+01
   endloop
 endfacet
 facet normal -8.660254e-01  5.000000e-01  0.000000e+00
   outer loop
     vertex -3.811978e+00  0.000000e+00  1.000000e+01
     vertex -1.905989e+00  3.301270e+00  1.500000e+01
     vertex -1.905989e+00  3.301270e+00  1.000000e+01
   endloop
 endfacet
 facet normal -8.660254e-01  5.000000e-01  0.000000e+00
   outer loop
     vertex -3.811978e+00  0.000000e+00  1.000000e+01
     vertex -3.811978e+00  0.000000e+00  1.500000e+01
     vertex -1.905989e+00  3.301270e+00  1.500000e+01
   endloop
 endfacet
 facet normal -8.660254e-01 -5.000000e-01  0.000000e+00
   outer loop
     vertex -1.905989e+00 -3.301270e+00  1.000000e+01
     vertex -3.811978e+00  0.000000e+00  1.500000e+01
     vertex -3.811978e+00  0.000000e+00  1.000000e+01
   endloop
 endfacet
 facet normal -8.660254e-01 -5.000000e-01  0.000000e+00
   outer loop
     vertex -1.905989e+00 -3.301270e+00  1.000000e+01
     vertex -1.905989e+00 -3.301270e+00  1.500000e+01
     vertex -3.811978e+00  0.000000e+00  1.500000e+01
   endloop
 endfacet
 facet normal  0.000000e+00 -1.000000e+00  0.000000e+00
   outer loop
     vertex  1.905989e+00 -3.301270e+00  1.000000e+01
     vertex -1.905989e+00 -3.301270e+00  1.500000e+01
     vertex -1.905989e+00 -3.301270e+00  1.000000e+01
   endloop
 endfacet
 facet normal  0.000000e+00 -1.000000e+00  0.000000e+00
   outer loop
     vertex  1.905989e+00 -3.301270e+00  1.000000e+01
     vertex  1.905989e+00 -3.301270e+00  1.500000e+01
     vertex -1.905989e+00 -3.301270e+00  1.500000e+01
   endloop
 endfacet
 facet normal  8.660254e-01 -5.000000e-01  0.000000e+00
   outer loop
     vertex  3.811978e+00  0.000000e+00  1.000000e+01
     vertex  1.905989e+00 -3.301270e+00  1.500000e+01
     vertex  1.905989e+00 -3.301270e+00  1.000000e+01
   endloop
 endfacet
 facet normal  8.660254e-01 -5.000000e-01  0.000000e+00
   outer loop
     vertex  3.811978e+00  0.000000e+00  1.000000e+01
     vertex  3.811978e+00  0.000000e+00  1.500000e+01
     vertex  1.905989e+00 -3.301270e+00  1.500000e+01
   endloop
 endfacet
 facet normal  0.000000e+00  0.000000e+00  1.000000e+00
   outer loop
     vertex  1.905989e+00 -3.301270e+00  1.500000e+01
     vertex -3.811978e+00  0.000000e+00  1.500000e+01
     vertex -1.905989e+00 -3.301270e+00  1.500000e+01
   endloop
 endfacet
 facet normal  0.000000e+00  0.000000e+00  1.000000e+00
   outer loop
     vertex  3.811978e+00  0.000000e+00  1.500000e+01
     vertex -3.811978e+00  0.000000e+00  1.500000e+01
     vertex  1.905989e+00 -3.301270e+00  1.500000e+01
   endloop
 endfacet
 facet normal  0.000000e+00  0.000000e+00  1.000000e+00
   outer loop
     vertex  1.905989e+00  3.301270e+00  1.500000e+01
     vertex -1.905989e+00  3.301270e+00  1.500000e+01
     vertex -3.811978e+00  0.000000e+00  1.500000e+01
   endloop
 endfacet
 facet normal  0.000000e+00  0.000000e+00  1.000000e+00
   outer loop
     vertex  1.905989e+00  3.301270e+00  1.500000e+01
     vertex -3.811978e+00  0.000000e+00  1.500000e+01
     vertex  3.811978e+00  0.000000e+00  1.500000e+01
   endloop
 endfacet
endsolid
