solid 
 facet normal -1.000000e+00  0.000000e+00  0.000000e+00
   outer loop
     vertex -2.500000e+01 -2.500000e+01  2.000000e+01
     vertex -2.500000e+01  2.500000e+01  0.000000e+00
     vertex -2.500000e+01 -2.500000e+01  0.000000e+00
   endloop
 endfacet
 facet normal -1.000000e+00  0.000000e+00  0.000000e+00
   outer loop
     vertex -2.500000e+01 -2.500000e+01  2.000000e+01
     vertex -2.500000e+01  2.500000e+01  2.000000e+01
     vertex -2.500000e+01  2.500000e+01  0.000000e+00
   endloop
 endfacet
 facet normal  0.000000e+00 -1.000000e+00 -0.000000e+00
   outer loop
     vertex  2.500000e+01 -2.500000e+01  2.000000e+01
     vertex -2.500000e+01 -2.500000e+01  0.000000e+00
     vertex  2.500000e+01 -2.500000e+01  0.000000e+00
   endloop
 endfacet
 facet normal -0.000000e+00 -1.000000e+00  0.000000e+00
   outer loop
     vertex  2.500000e+01 -2.500000e+01  2.000000e+01
     vertex -2.500000e+01 -2.500000e+01  2.000000e+01
     vertex -2.500000e+01 -2.500000e+01  0.000000e+00
   endloop
 endfacet
 facet normal  0.000000e+00  0.000000e+00  1.000000e+00
   outer loop
     vertex -1.414214e+01 -2.449490e+01  2.000000e+01
     vertex -2.200000e+01 -2.200000e+01  2.000000e+01
     vertex -2.500000e+01 -2.500000e+01  2.000000e+01
   endloop
 endfacet
 facet normal  0.000000e+00  0.000000e+00  1.000000e+00
   outer loop
     vertex -1.481064e+01 -2.200000e+01  2.000000e+01
     vertex -2.200000e+01 -2.200000e+01  2.000000e+01
     vertex -1.414214e+01 -2.449490e+01  2.000000e+01
   endloop
 endfacet
 facet normal  0.000000e+00  0.000000e+00  1.000000e+00
   outer loop
     vertex -2.200000e+01  4.831052e+00  2.000000e+01
     vertex -2.500000e+01 -2.500000e+01  2.000000e+01
     vertex -2.200000e+01 -2.200000e+01  2.000000e+01
   endloop
 endfacet
 facet normal  0.000000e+00  0.000000e+00  1.000000e+00
   outer loop
     vertex -2.449490e+01  1.414214e+01  2.000000e+01
     vertex -2.500000e+01 -2.500000e+01  2.000000e+01
     vertex -2.200000e+01  4.831052e+00  2.000000e+01
   endloop
 endfacet
 facet normal  0.000000e+00  0.000000e+00  1.000000e+00
   outer loop
     vertex -2.200000e+01  2.200000e+01  2.000000e+01
     vertex -2.449490e+01  1.414214e+01  2.000000e+01
     vertex -2.200000e+01  1.481064e+01  2.000000e+01
   endloop
 endfacet
 facet normal  0.000000e+00  0.000000e+00  1.000000e+00
   outer loop
     vertex -2.200000e+01  2.200000e+01  2.000000e+01
     vertex -2.500000e+01  2.500000e+01  2.000000e+01
     vertex -2.449490e+01  1.414214e+01  2.000000e+01
   endloop
 endfacet
 facet normal  0.000000e+00  0.000000e+00  1.000000e+00
   outer loop
     vertex  2.500000e+01 -2.500000e+01  2.000000e+01
     vertex -4.831052e+00 -2.200000e+01  2.000000e+01
     vertex -1.414214e+01 -2.449490e+01  2.000000e+01
   endloop
 endfacet
 facet normal  0.000000e+00  0.000000e+00  1.000000e+00
   outer loop
     vertex  2.500000e+01 -2.500000e+01  2.000000e+01
     vertex  2.200000e+01 -2.200000e+01  2.000000e+01
     vertex -4.831052e+00 -2.200000e+01  2.000000e+01
   endloop
 endfacet
 facet normal  0.000000e+00  0.000000e+00  1.000000e+00
   outer loop
     vertex  2.449490e+01 -1.414214e+01  2.000000e+01
     vertex  2.200000e+01 -1.481064e+01  2.000000e+01
     vertex  2.200000e+01 -2.200000e+01  2.000000e+01
   endloop
 endfacet
 facet normal  0.000000e+00  0.000000e+00  1.000000e+00
   outer loop
     vertex  2.449490e+01 -1.414214e+01  2.000000e+01
     vertex  2.200000e+01 -2.200000e+01  2.000000e+01
     vertex  2.500000e+01 -2.500000e+01  2.000000e+01
   endloop
 endfacet
 facet normal  0.000000e+00  0.000000e+00  1.000000e+00
   outer loop
     vertex  4.831052e+00  2.200000e+01  2.000000e+01
     vertex -2.500000e+01  2.500000e+01  2.000000e+01
     vertex -2.200000e+01  2.200000e+01  2.000000e+01
   endloop
 endfacet
 facet normal  0.000000e+00  0.000000e+00  1.000000e+00
   outer loop
     vertex  2.200000e+01  2.200000e+01  2.000000e+01
     vertex  1.414214e+01  2.449490e+01  2.000000e+01
     vertex  1.481064e+01  2.200000e+01  2.000000e+01
   endloop
 endfacet
 facet normal  0.000000e+00  0.000000e+00  1.000000e+00
   outer loop
     vertex  2.500000e+01  2.500000e+01  2.000000e+01
     vertex  2.200000e+01  2.200000e+01  2.000000e+01
     vertex  2.200000e+01 -4.831052e+00  2.000000e+01
   endloop
 endfacet
 facet normal  0.000000e+00  0.000000e+00  1.000000e+00
   outer loop
     vertex  2.500000e+01  2.500000e+01  2.000000e+01
     vertex  2.200000e+01 -4.831052e+00  2.000000e+01
     vertex  2.449490e+01 -1.414214e+01  2.000000e+01
   endloop
 endfacet
 facet normal  0.000000e+00  0.000000e+00  1.000000e+00
   outer loop
     vertex  2.500000e+01  2.500000e+01  2.000000e+01
     vertex  1.414214e+01  2.449490e+01  2.000000e+01
     vertex  2.200000e+01  2.200000e+01  2.000000e+01
   endloop
 endfacet
 facet normal  0.000000e+00  0.000000e+00  1.000000e+00
   outer loop
     vertex -2.500000e+01  2.500000e+01  2.000000e+01
     vertex -2.500000e+01 -2.500000e+01  2.000000e+01
     vertex -2.449490e+01  1.414214e+01  2.000000e+01
   endloop
 endfacet
 facet normal  0.000000e+00  0.000000e+00  1.000000e+00
   outer loop
     vertex -2.500000e+01 -2.500000e+01  2.000000e+01
     vertex  2.500000e+01 -2.500000e+01  2.000000e+01
     vertex -1.414214e+01 -2.449490e+01  2.000000e+01
   endloop
 endfacet
 facet normal  0.000000e+00 -0.000000e+00  1.000000e+00
   outer loop
     vertex  2.500000e+01 -2.500000e+01  2.000000e+01
     vertex  2.500000e+01  2.500000e+01  2.000000e+01
     vertex  2.449490e+01 -1.414214e+01  2.000000e+01
   endloop
 endfacet
 facet normal  0.000000e+00  0.000000e+00  1.000000e+00
   outer loop
     vertex  2.500000e+01  2.500000e+01  2.000000e+01
     vertex -2.500000e+01  2.500000e+01  2.000000e+01
     vertex  1.414214e+01  2.449490e+01  2.000000e+01
   endloop
 endfacet
 facet normal  0.000000e+00  0.000000e+00  1.000000e+00
   outer loop
     vertex  1.414214e+01  2.449490e+01  2.000000e+01
     vertex -2.500000e+01  2.500000e+01  2.000000e+01
     vertex  4.831052e+00  2.200000e+01  2.000000e+01
   endloop
 endfacet
 facet normal  0.000000e+00  1.000000e+00  0.000000e+00
   outer loop
     vertex  2.500000e+01  2.500000e+01  2.000000e+01
     vertex  2.500000e+01  2.500000e+01  0.000000e+00
     vertex -2.500000e+01  2.500000e+01  0.000000e+00
   endloop
 endfacet
 facet normal  0.000000e+00  1.000000e+00  0.000000e+00
   outer loop
     vertex  2.500000e+01  2.500000e+01  2.000000e+01
     vertex -2.500000e+01  2.500000e+01  0.000000e+00
     vertex -2.500000e+01  2.500000e+01  2.000000e+01
   endloop
 endfacet
 facet normal -0.000000e+00  0.000000e+00 -1.000000e+00
   outer loop
     vertex  2.500000e+01  2.500000e+01  0.000000e+00
     vertex -2.500000e+01 -2.500000e+01  0.000000e+00
     vertex -2.500000e+01  2.500000e+01  0.000000e+00
   endloop
 endfacet
 facet normal  0.000000e+00 -0.000000e+00 -1.000000e+00
   outer loop
     vertex  2.500000e+01  2.500000e+01  0.000000e+00
     vertex  2.500000e+01 -2.500000e+01  0.000000e+00
     vertex -2.500000e+01 -2.500000e+01  0.000000e+00
   endloop
 endfacet
 facet normal  1.000000e+00  0.000000e+00  0.000000e+00
   outer loop
     vertex  2.500000e+01 -2.500000e+01  2.000000e+01
     vertex  2.500000e+01 -2.500000e+01  0.000000e+00
     vertex  2.500000e+01  2.500000e+01  0.000000e+00
   endloop
 endfacet
 facet normal  1.000000e+00 -0.000000e+00  0.000000e+00
   outer loop
     vertex  2.500000e+01 -2.500000e+01  2.000000e+01
     vertex  2.500000e+01  2.500000e+01  0.000000e+00
     vertex  2.500000e+01  2.500000e+01  2.000000e+01
   endloop
 endfacet
 facet normal  2.588190e-01 -9.659258e-01  0.000000e+00
   outer loop
     vertex -1.414214e+01 -2.449490e+01  4.000000e+01
     vertex -1.414214e+01 -2.449490e+01  2.000000e+01
     vertex -4.831052e+00 -2.200000e+01  2.000000e+01
   endloop
 endfacet
 facet normal  2.588190e-01 -9.659258e-01  0.000000e+00
   outer loop
     vertex  2.449490e+01 -1.414214e+01  4.000000e+01
     vertex  2.200000e+01 -1.481064e+01  2.000000e+01
     vertex  2.449490e+01 -1.414214e+01  2.000000e+01
   endloop
 endfacet
 facet normal  2.588190e-01 -9.659258e-01  1.918481e-17
   outer loop
     vertex  2.449490e+01 -1.414214e+01  4.000000e+01
     vertex -4.831052e+00 -2.200000e+01  2.000000e+01
     vertex  2.200000e+01 -1.481064e+01  2.000000e+01
   endloop
 endfacet
 facet normal  2.588190e-01 -9.659258e-01 -1.421085e-16
   outer loop
     vertex  2.449490e+01 -1.414214e+01  4.000000e+01
     vertex -1.414214e+01 -2.449490e+01  4.000000e+01
     vertex -4.831052e+00 -2.200000e+01  2.000000e+01
   endloop
 endfacet
 facet normal  0.000000e+00  1.000000e+00  0.000000e+00
   outer loop
     vertex -1.481064e+01 -2.200000e+01  2.000000e+01
     vertex -2.200000e+01 -2.200000e+01  3.000000e+00
     vertex -2.200000e+01 -2.200000e+01  2.000000e+01
   endloop
 endfacet
 facet normal  0.000000e+00  1.000000e+00  0.000000e+00
   outer loop
     vertex -4.831052e+00 -2.200000e+01  2.000000e+01
     vertex -2.200000e+01 -2.200000e+01  3.000000e+00
     vertex -1.481064e+01 -2.200000e+01  2.000000e+01
   endloop
 endfacet
 facet normal  0.000000e+00  1.000000e+00  0.000000e+00
   outer loop
     vertex  2.200000e+01 -2.200000e+01  3.000000e+00
     vertex -2.200000e+01 -2.200000e+01  3.000000e+00
     vertex -4.831052e+00 -2.200000e+01  2.000000e+01
   endloop
 endfacet
 facet normal  0.000000e+00  1.000000e+00  0.000000e+00
   outer loop
     vertex  2.200000e+01 -2.200000e+01  2.000000e+01
     vertex  2.200000e+01 -2.200000e+01  3.000000e+00
     vertex -4.831052e+00 -2.200000e+01  2.000000e+01
   endloop
 endfacet
 facet normal -1.000000e+00  0.000000e+00  0.000000e+00
   outer loop
     vertex  2.200000e+01 -4.831052e+00  2.000000e+01
     vertex  2.200000e+01  2.200000e+01  2.000000e+01
     vertex  2.200000e+01  2.200000e+01  3.000000e+00
   endloop
 endfacet
 facet normal -1.000000e+00  0.000000e+00  0.000000e+00
   outer loop
     vertex  2.200000e+01 -2.200000e+01  3.000000e+00
     vertex  2.200000e+01 -4.831052e+00  2.000000e+01
     vertex  2.200000e+01  2.200000e+01  3.000000e+00
   endloop
 endfacet
 facet normal -1.000000e+00  0.000000e+00 -0.000000e+00
   outer loop
     vertex  2.200000e+01 -1.481064e+01  2.000000e+01
     vertex  2.200000e+01 -4.831052e+00  2.000000e+01
     vertex  2.200000e+01 -2.200000e+01  3.000000e+00
   endloop
 endfacet
 facet normal -1.000000e+00  0.000000e+00  0.000000e+00
   outer loop
     vertex  2.200000e+01 -2.200000e+01  2.000000e+01
     vertex  2.200000e+01 -1.481064e+01  2.000000e+01
     vertex  2.200000e+01 -2.200000e+01  3.000000e+00
   endloop
 endfacet
 facet normal  9.659258e-01  2.588190e-01  0.000000e+00
   outer loop
     vertex  1.414214e+01  2.449490e+01  4.000000e+01
     vertex  1.481064e+01  2.200000e+01  2.000000e+01
     vertex  1.414214e+01  2.449490e+01  2.000000e+01
   endloop
 endfacet
 facet normal  9.659258e-01  2.588190e-01 -5.115950e-17
   outer loop
     vertex  2.200000e+01 -4.831052e+00  2.000000e+01
     vertex  1.481064e+01  2.200000e+01  2.000000e+01
     vertex  1.414214e+01  2.449490e+01  4.000000e+01
   endloop
 endfacet
 facet normal  9.659258e-01  2.588190e-01  0.000000e+00
   outer loop
     vertex  2.449490e+01 -1.414214e+01  4.000000e+01
     vertex  2.449490e+01 -1.414214e+01  2.000000e+01
     vertex  2.200000e+01 -4.831052e+00  2.000000e+01
   endloop
 endfacet
 facet normal  9.659258e-01  2.588190e-01 -1.598721e-16
   outer loop
     vertex  2.449490e+01 -1.414214e+01  4.000000e+01
     vertex  2.200000e+01 -4.831052e+00  2.000000e+01
     vertex  1.414214e+01  2.449490e+01  4.000000e+01
   endloop
 endfacet
 facet normal -0.000000e+00 -1.000000e+00  0.000000e+00
   outer loop
     vertex  4.831052e+00  2.200000e+01  2.000000e+01
     vertex -2.200000e+01  2.200000e+01  2.000000e+01
     vertex -2.200000e+01  2.200000e+01  3.000000e+00
   endloop
 endfacet
 facet normal  0.000000e+00 -1.000000e+00  0.000000e+00
   outer loop
     vertex  2.200000e+01  2.200000e+01  3.000000e+00
     vertex  4.831052e+00  2.200000e+01  2.000000e+01
     vertex -2.200000e+01  2.200000e+01  3.000000e+00
   endloop
 endfacet
 facet normal -0.000000e+00 -1.000000e+00 -0.000000e+00
   outer loop
     vertex  1.481064e+01  2.200000e+01  2.000000e+01
     vertex  4.831052e+00  2.200000e+01  2.000000e+01
     vertex  2.200000e+01  2.200000e+01  3.000000e+00
   endloop
 endfacet
 facet normal -0.000000e+00 -1.000000e+00 -0.000000e+00
   outer loop
     vertex  2.200000e+01  2.200000e+01  2.000000e+01
     vertex  1.481064e+01  2.200000e+01  2.000000e+01
     vertex  2.200000e+01  2.200000e+01  3.000000e+00
   endloop
 endfacet
 facet normal -2.588190e-01  9.659258e-01  0.000000e+00
   outer loop
     vertex -2.449490e+01  1.414214e+01  4.000000e+01
     vertex -2.200000e+01  1.481064e+01  2.000000e+01
     vertex -2.449490e+01  1.414214e+01  2.000000e+01
   endloop
 endfacet
 facet normal -2.588190e-01  9.659258e-01 -1.023190e-16
   outer loop
     vertex  4.831052e+00  2.200000e+01  2.000000e+01
     vertex -2.200000e+01  1.481064e+01  2.000000e+01
     vertex -2.449490e+01  1.414214e+01  4.000000e+01
   endloop
 endfacet
 facet normal -2.588190e-01  9.659258e-01  0.000000e+00
   outer loop
     vertex  1.414214e+01  2.449490e+01  4.000000e+01
     vertex  1.414214e+01  2.449490e+01  2.000000e+01
     vertex  4.831052e+00  2.200000e+01  2.000000e+01
   endloop
 endfacet
 facet normal -2.588190e-01  9.659258e-01  1.243450e-16
   outer loop
     vertex  1.414214e+01  2.449490e+01  4.000000e+01
     vertex  4.831052e+00  2.200000e+01  2.000000e+01
     vertex -2.449490e+01  1.414214e+01  4.000000e+01
   endloop
 endfacet
 facet normal  1.000000e+00 -0.000000e+00  0.000000e+00
   outer loop
     vertex -2.200000e+01  1.481064e+01  2.000000e+01
     vertex -2.200000e+01  2.200000e+01  3.000000e+00
     vertex -2.200000e+01  2.200000e+01  2.000000e+01
   endloop
 endfacet
 facet normal  1.000000e+00 -0.000000e+00  0.000000e+00
   outer loop
     vertex -2.200000e+01  4.831052e+00  2.000000e+01
     vertex -2.200000e+01  2.200000e+01  3.000000e+00
     vertex -2.200000e+01  1.481064e+01  2.000000e+01
   endloop
 endfacet
 facet normal  1.000000e+00  0.000000e+00  0.000000e+00
   outer loop
     vertex -2.200000e+01 -2.200000e+01  3.000000e+00
     vertex -2.200000e+01  2.200000e+01  3.000000e+00
     vertex -2.200000e+01  4.831052e+00  2.000000e+01
   endloop
 endfacet
 facet normal  1.000000e+00 -0.000000e+00  0.000000e+00
   outer loop
     vertex -2.200000e+01 -2.200000e+01  2.000000e+01
     vertex -2.200000e+01 -2.200000e+01  3.000000e+00
     vertex -2.200000e+01  4.831052e+00  2.000000e+01
   endloop
 endfacet
 facet normal -9.659258e-01 -2.588190e-01 -0.000000e+00
   outer loop
     vertex -2.449490e+01  1.414214e+01  4.000000e+01
     vertex -2.449490e+01  1.414214e+01  2.000000e+01
     vertex -2.200000e+01  4.831052e+00  2.000000e+01
   endloop
 endfacet
 facet normal -9.659258e-01 -2.588190e-01 -0.000000e+00
   outer loop
     vertex -1.414214e+01 -2.449490e+01  4.000000e+01
     vertex -1.481064e+01 -2.200000e+01  2.000000e+01
     vertex -1.414214e+01 -2.449490e+01  2.000000e+01
   endloop
 endfacet
 facet normal -9.659258e-01 -2.588190e-01 -6.394937e-18
   outer loop
     vertex -1.414214e+01 -2.449490e+01  4.000000e+01
     vertex -2.200000e+01  4.831052e+00  2.000000e+01
     vertex -1.481064e+01 -2.200000e+01  2.000000e+01
   endloop
 endfacet
 facet normal -9.659258e-01 -2.588190e-01  1.421085e-16
   outer loop
     vertex -1.414214e+01 -2.449490e+01  4.000000e+01
     vertex -2.449490e+01  1.414214e+01  4.000000e+01
     vertex -2.200000e+01  4.831052e+00  2.000000e+01
   endloop
 endfacet
 facet normal  0.000000e+00  0.000000e+00 -1.000000e+00
   outer loop
     vertex -4.831052e+00 -2.200000e+01  2.000000e+01
     vertex -1.481064e+01 -2.200000e+01  2.000000e+01
     vertex -1.202082e+01 -2.082066e+01  2.000000e+01
   endloop
 endfacet
 facet normal  0.000000e+00  0.000000e+00 -1.000000e+00
   outer loop
     vertex -2.200000e+01  4.831052e+00  2.000000e+01
     vertex -1.202082e+01 -2.082066e+01  2.000000e+01
     vertex -1.481064e+01 -2.200000e+01  2.000000e+01
   endloop
 endfacet
 facet normal  0.000000e+00  0.000000e+00 -1.000000e+00
   outer loop
     vertex -2.200000e+01  1.481064e+01  2.000000e+01
     vertex -2.082066e+01  1.202082e+01  2.000000e+01
     vertex -2.200000e+01  4.831052e+00  2.000000e+01
   endloop
 endfacet
 facet normal  0.000000e+00 -0.000000e+00 -1.000000e+00
   outer loop
     vertex  2.082066e+01 -1.202082e+01  2.000000e+01
     vertex  2.200000e+01 -1.481064e+01  2.000000e+01
     vertex -4.831052e+00 -2.200000e+01  2.000000e+01
   endloop
 endfacet
 facet normal  0.000000e+00 -0.000000e+00 -1.000000e+00
   outer loop
     vertex  2.200000e+01 -4.831052e+00  2.000000e+01
     vertex  2.200000e+01 -1.481064e+01  2.000000e+01
     vertex  2.082066e+01 -1.202082e+01  2.000000e+01
   endloop
 endfacet
 facet normal  0.000000e+00  0.000000e+00 -1.000000e+00
   outer loop
     vertex  4.831052e+00  2.200000e+01  2.000000e+01
     vertex -2.082066e+01  1.202082e+01  2.000000e+01
     vertex -2.200000e+01  1.481064e+01  2.000000e+01
   endloop
 endfacet
 facet normal -0.000000e+00  0.000000e+00 -1.000000e+00
   outer loop
     vertex  1.481064e+01  2.200000e+01  2.000000e+01
     vertex  1.202082e+01  2.082066e+01  2.000000e+01
     vertex  4.831052e+00  2.200000e+01  2.000000e+01
   endloop
 endfacet
 facet normal  0.000000e+00 -0.000000e+00 -1.000000e+00
   outer loop
     vertex  1.481064e+01  2.200000e+01  2.000000e+01
     vertex  2.200000e+01 -4.831052e+00  2.000000e+01
     vertex  1.202082e+01  2.082066e+01  2.000000e+01
   endloop
 endfacet
 facet normal  0.000000e+00  0.000000e+00 -1.000000e+00
   outer loop
     vertex  2.082066e+01 -1.202082e+01  2.000000e+01
     vertex -4.831052e+00 -2.200000e+01  2.000000e+01
     vertex -1.202082e+01 -2.082066e+01  2.000000e+01
   endloop
 endfacet
 facet normal  0.000000e+00  0.000000e+00 -1.000000e+00
   outer loop
     vertex -1.202082e+01 -2.082066e+01  2.000000e+01
     vertex -2.200000e+01  4.831052e+00  2.000000e+01
     vertex -2.082066e+01  1.202082e+01  2.000000e+01
   endloop
 endfacet
 facet normal  0.000000e+00  0.000000e+00 -1.000000e+00
   outer loop
     vertex -2.082066e+01  1.202082e+01  2.000000e+01
     vertex  4.831052e+00  2.200000e+01  2.000000e+01
     vertex  1.202082e+01  2.082066e+01  2.000000e+01
   endloop
 endfacet
 facet normal  0.000000e+00  0.000000e+00 -1.000000e+00
   outer loop
     vertex  1.202082e+01  2.082066e+01  2.000000e+01
     vertex  2.200000e+01 -4.831052e+00  2.000000e+01
     vertex  2.082066e+01 -1.202082e+01  2.000000e+01
   endloop
 endfacet
 facet normal  0.000000e+00  0.000000e+00  1.000000e+00
   outer loop
     vertex -5.490381e+00 -2.049038e+01  4.000000e+01
     vertex -1.202082e+01 -2.082066e+01  4.000000e+01
     vertex -1.414214e+01 -2.449490e+01  4.000000e+01
   endloop
 endfacet
 facet normal  0.000000e+00  0.000000e+00  1.000000e+00
   outer loop
     vertex -6.200152e+00 -1.926102e+01  4.000000e+01
     vertex -1.202082e+01 -2.082066e+01  4.000000e+01
     vertex -5.490381e+00 -2.049038e+01  4.000000e+01
   endloop
 endfacet
 facet normal  0.000000e+00  0.000000e+00  1.000000e+00
   outer loop
     vertex -1.784148e+01  9.023465e-01  4.000000e+01
     vertex -1.414214e+01 -2.449490e+01  4.000000e+01
     vertex -1.202082e+01 -2.082066e+01  4.000000e+01
   endloop
 endfacet
 facet normal  0.000000e+00  0.000000e+00  1.000000e+00
   outer loop
     vertex -2.049038e+01  5.490381e+00  4.000000e+01
     vertex -1.414214e+01 -2.449490e+01  4.000000e+01
     vertex -1.784148e+01  9.023465e-01  4.000000e+01
   endloop
 endfacet
 facet normal  0.000000e+00  0.000000e+00  1.000000e+00
   outer loop
     vertex -2.082066e+01  1.202082e+01  4.000000e+01
     vertex -2.049038e+01  5.490381e+00  4.000000e+01
     vertex -1.926102e+01  6.200152e+00  4.000000e+01
   endloop
 endfacet
 facet normal  0.000000e+00  0.000000e+00  1.000000e+00
   outer loop
     vertex -2.082066e+01  1.202082e+01  4.000000e+01
     vertex -2.449490e+01  1.414214e+01  4.000000e+01
     vertex -2.049038e+01  5.490381e+00  4.000000e+01
   endloop
 endfacet
 facet normal  0.000000e+00  0.000000e+00  1.000000e+00
   outer loop
     vertex  2.449490e+01 -1.414214e+01  4.000000e+01
     vertex -9.023465e-01 -1.784148e+01  4.000000e+01
     vertex -5.490381e+00 -2.049038e+01  4.000000e+01
   endloop
 endfacet
 facet normal  0.000000e+00  0.000000e+00  1.000000e+00
   outer loop
     vertex  2.449490e+01 -1.414214e+01  4.000000e+01
     vertex  2.082066e+01 -1.202082e+01  4.000000e+01
     vertex -9.023465e-01 -1.784148e+01  4.000000e+01
   endloop
 endfacet
 facet normal  0.000000e+00  0.000000e+00  1.000000e+00
   outer loop
     vertex  2.449490e+01 -1.414214e+01  4.000000e+01
     vertex -5.490381e+00 -2.049038e+01  4.000000e+01
     vertex -1.414214e+01 -2.449490e+01  4.000000e+01
   endloop
 endfacet
 facet normal  0.000000e+00  0.000000e+00  1.000000e+00
   outer loop
     vertex  2.049038e+01 -5.490381e+00  4.000000e+01
     vertex  1.926102e+01 -6.200152e+00  4.000000e+01
     vertex  2.082066e+01 -1.202082e+01  4.000000e+01
   endloop
 endfacet
 facet normal  0.000000e+00  0.000000e+00  1.000000e+00
   outer loop
     vertex  2.049038e+01 -5.490381e+00  4.000000e+01
     vertex  2.082066e+01 -1.202082e+01  4.000000e+01
     vertex  2.449490e+01 -1.414214e+01  4.000000e+01
   endloop
 endfacet
 facet normal  0.000000e+00  0.000000e+00  1.000000e+00
   outer loop
     vertex  9.023465e-01  1.784148e+01  4.000000e+01
     vertex -2.449490e+01  1.414214e+01  4.000000e+01
     vertex -2.082066e+01  1.202082e+01  4.000000e+01
   endloop
 endfacet
 facet normal  0.000000e+00  0.000000e+00  1.000000e+00
   outer loop
     vertex  1.202082e+01  2.082066e+01  4.000000e+01
     vertex  5.490381e+00  2.049038e+01  4.000000e+01
     vertex  6.200152e+00  1.926102e+01  4.000000e+01
   endloop
 endfacet
 facet normal  0.000000e+00  0.000000e+00  1.000000e+00
   outer loop
     vertex  1.414214e+01  2.449490e+01  4.000000e+01
     vertex  1.202082e+01  2.082066e+01  4.000000e+01
     vertex  1.784148e+01 -9.023465e-01  4.000000e+01
   endloop
 endfacet
 facet normal  0.000000e+00  0.000000e+00  1.000000e+00
   outer loop
     vertex  1.414214e+01  2.449490e+01  4.000000e+01
     vertex  1.784148e+01 -9.023465e-01  4.000000e+01
     vertex  2.049038e+01 -5.490381e+00  4.000000e+01
   endloop
 endfacet
 facet normal  0.000000e+00  0.000000e+00  1.000000e+00
   outer loop
     vertex  1.414214e+01  2.449490e+01  4.000000e+01
     vertex  5.490381e+00  2.049038e+01  4.000000e+01
     vertex  1.202082e+01  2.082066e+01  4.000000e+01
   endloop
 endfacet
 facet normal  0.000000e+00  0.000000e+00  1.000000e+00
   outer loop
     vertex -2.449490e+01  1.414214e+01  4.000000e+01
     vertex -1.414214e+01 -2.449490e+01  4.000000e+01
     vertex -2.049038e+01  5.490381e+00  4.000000e+01
   endloop
 endfacet
 facet normal  0.000000e+00  0.000000e+00  1.000000e+00
   outer loop
     vertex  2.449490e+01 -1.414214e+01  4.000000e+01
     vertex  1.414214e+01  2.449490e+01  4.000000e+01
     vertex  2.049038e+01 -5.490381e+00  4.000000e+01
   endloop
 endfacet
 facet normal  0.000000e+00  0.000000e+00  1.000000e+00
   outer loop
     vertex  1.414214e+01  2.449490e+01  4.000000e+01
     vertex -2.449490e+01  1.414214e+01  4.000000e+01
     vertex  5.490381e+00  2.049038e+01  4.000000e+01
   endloop
 endfacet
 facet normal  0.000000e+00  0.000000e+00  1.000000e+00
   outer loop
     vertex  5.490381e+00  2.049038e+01  4.000000e+01
     vertex -2.449490e+01  1.414214e+01  4.000000e+01
     vertex  9.023465e-01  1.784148e+01  4.000000e+01
   endloop
 endfacet
 facet normal  0.000000e+00  0.000000e+00  1.000000e+00
   outer loop
     vertex  2.200000e+01 -2.200000e+01  3.000000e+00
     vertex -2.200000e+01  2.200000e+01  3.000000e+00
     vertex -2.200000e+01 -2.200000e+01  3.000000e+00
   endloop
 endfacet
 facet normal  0.000000e+00  0.000000e+00  1.000000e+00
   outer loop
     vertex  2.200000e+01  2.200000e+01  3.000000e+00
     vertex -2.200000e+01  2.200000e+01  3.000000e+00
     vertex  2.200000e+01 -2.200000e+01  3.000000e+00
   endloop
 endfacet
 facet normal -2.588190e-01  9.659258e-01  0.000000e+00
   outer loop
     vertex -6.200152e+00 -1.926102e+01  4.000000e+01
     vertex -1.202082e+01 -2.082066e+01  2.000000e+01
     vertex -1.202082e+01 -2.082066e+01  4.000000e+01
   endloop
 endfacet
 facet normal -2.588190e-01  9.659258e-01  8.096885e-17
   outer loop
     vertex -9.023465e-01 -1.784148e+01  4.000000e+01
     vertex -1.202082e+01 -2.082066e+01  2.000000e+01
     vertex -6.200152e+00 -1.926102e+01  4.000000e+01
   endloop
 endfacet
 facet normal -2.588190e-01  9.659258e-01  4.179663e-17
   outer loop
     vertex  2.082066e+01 -1.202082e+01  2.000000e+01
     vertex -1.202082e+01 -2.082066e+01  2.000000e+01
     vertex -9.023465e-01 -1.784148e+01  4.000000e+01
   endloop
 endfacet
 facet normal -2.588190e-01  9.659258e-01  0.000000e+00
   outer loop
     vertex  2.082066e+01 -1.202082e+01  4.000000e+01
     vertex  2.082066e+01 -1.202082e+01  2.000000e+01
     vertex -9.023465e-01 -1.784148e+01  4.000000e+01
   endloop
 endfacet
 facet normal  9.659258e-01  2.588190e-01  0.000000e+00
   outer loop
     vertex -1.926102e+01  6.200152e+00  4.000000e+01
     vertex -2.082066e+01  1.202082e+01  2.000000e+01
     vertex -2.082066e+01  1.202082e+01  4.000000e+01
   endloop
 endfacet
 facet normal  9.659258e-01  2.588190e-01  2.267128e-16
   outer loop
     vertex -1.784148e+01  9.023465e-01  4.000000e+01
     vertex -2.082066e+01  1.202082e+01  2.000000e+01
     vertex -1.926102e+01  6.200152e+00  4.000000e+01
   endloop
 endfacet
 facet normal  9.659258e-01  2.588190e-01 -4.179663e-17
   outer loop
     vertex -1.202082e+01 -2.082066e+01  2.000000e+01
     vertex -2.082066e+01  1.202082e+01  2.000000e+01
     vertex -1.784148e+01  9.023465e-01  4.000000e+01
   endloop
 endfacet
 facet normal  9.659258e-01  2.588190e-01  0.000000e+00
   outer loop
     vertex -1.202082e+01 -2.082066e+01  4.000000e+01
     vertex -1.202082e+01 -2.082066e+01  2.000000e+01
     vertex -1.784148e+01  9.023465e-01  4.000000e+01
   endloop
 endfacet
 facet normal -9.659258e-01 -2.588190e-01  6.269495e-17
   outer loop
     vertex  1.784148e+01 -9.023465e-01  4.000000e+01
     vertex  1.202082e+01  2.082066e+01  2.000000e+01
     vertex  2.082066e+01 -1.202082e+01  2.000000e+01
   endloop
 endfacet
 facet normal -9.659258e-01 -2.588190e-01  0.000000e+00
   outer loop
     vertex  1.784148e+01 -9.023465e-01  4.000000e+01
     vertex  1.202082e+01  2.082066e+01  4.000000e+01
     vertex  1.202082e+01  2.082066e+01  2.000000e+01
   endloop
 endfacet
 facet normal -9.659258e-01 -2.588190e-01  3.886505e-16
   outer loop
     vertex  1.926102e+01 -6.200152e+00  4.000000e+01
     vertex  1.784148e+01 -9.023465e-01  4.000000e+01
     vertex  2.082066e+01 -1.202082e+01  2.000000e+01
   endloop
 endfacet
 facet normal -9.659258e-01 -2.588190e-01 -0.000000e+00
   outer loop
     vertex  2.082066e+01 -1.202082e+01  4.000000e+01
     vertex  1.926102e+01 -6.200152e+00  4.000000e+01
     vertex  2.082066e+01 -1.202082e+01  2.000000e+01
   endloop
 endfacet
 facet normal  2.588190e-01 -9.659258e-01 -2.089832e-17
   outer loop
     vertex  9.023465e-01  1.784148e+01  4.000000e+01
     vertex -2.082066e+01  1.202082e+01  2.000000e+01
     vertex  1.202082e+01  2.082066e+01  2.000000e+01
   endloop
 endfacet
 facet normal  2.588190e-01 -9.659258e-01  0.000000e+00
   outer loop
     vertex  9.023465e-01  1.784148e+01  4.000000e+01
     vertex -2.082066e+01  1.202082e+01  4.000000e+01
     vertex -2.082066e+01  1.202082e+01  2.000000e+01
   endloop
 endfacet
 facet normal  2.588190e-01 -9.659258e-01  5.991695e-16
   outer loop
     vertex  6.200152e+00  1.926102e+01  4.000000e+01
     vertex  9.023465e-01  1.784148e+01  4.000000e+01
     vertex  1.202082e+01  2.082066e+01  2.000000e+01
   endloop
 endfacet
 facet normal  2.588190e-01 -9.659258e-01  0.000000e+00
   outer loop
     vertex  1.202082e+01  2.082066e+01  4.000000e+01
     vertex  6.200152e+00  1.926102e+01  4.000000e+01
     vertex  1.202082e+01  2.082066e+01  2.000000e+01
   endloop
 endfacet
 facet normal  5.000000e-01 -8.660254e-01  0.000000e+00
   outer loop
     vertex -5.490381e+00 -2.049038e+01  6.000000e+01
     vertex -5.490381e+00 -2.049038e+01  4.000000e+01
     vertex -9.023465e-01 -1.784148e+01  4.000000e+01
   endloop
 endfacet
 facet normal  5.000000e-01 -8.660254e-01  0.000000e+00
   outer loop
     vertex  2.049038e+01 -5.490381e+00  6.000000e+01
     vertex  1.926102e+01 -6.200152e+00  4.000000e+01
     vertex  2.049038e+01 -5.490381e+00  4.000000e+01
   endloop
 endfacet
 facet normal  5.000000e-01 -8.660254e-01  1.602201e-16
   outer loop
     vertex  2.049038e+01 -5.490381e+00  6.000000e+01
     vertex -9.023465e-01 -1.784148e+01  4.000000e+01
     vertex  1.926102e+01 -6.200152e+00  4.000000e+01
   endloop
 endfacet
 facet normal  5.000000e-01 -8.660254e-01  0.000000e+00
   outer loop
     vertex  2.049038e+01 -5.490381e+00  6.000000e+01
     vertex -5.490381e+00 -2.049038e+01  6.000000e+01
     vertex -9.023465e-01 -1.784148e+01  4.000000e+01
   endloop
 endfacet
 facet normal  8.660254e-01  5.000000e-01  0.000000e+00
   outer loop
     vertex  5.490381e+00  2.049038e+01  6.000000e+01
     vertex  6.200152e+00  1.926102e+01  4.000000e+01
     vertex  5.490381e+00  2.049038e+01  4.000000e+01
   endloop
 endfacet
 facet normal  8.660254e-01  5.000000e-01  6.103624e-17
   outer loop
     vertex  1.784148e+01 -9.023465e-01  4.000000e+01
     vertex  6.200152e+00  1.926102e+01  4.000000e+01
     vertex  5.490381e+00  2.049038e+01  6.000000e+01
   endloop
 endfacet
 facet normal  8.660254e-01  5.000000e-01  0.000000e+00
   outer loop
     vertex  2.049038e+01 -5.490381e+00  6.000000e+01
     vertex  2.049038e+01 -5.490381e+00  4.000000e+01
     vertex  1.784148e+01 -9.023465e-01  4.000000e+01
   endloop
 endfacet
 facet normal  8.660254e-01  5.000000e-01  9.473903e-17
   outer loop
     vertex  2.049038e+01 -5.490381e+00  6.000000e+01
     vertex  1.784148e+01 -9.023465e-01  4.000000e+01
     vertex  5.490381e+00  2.049038e+01  6.000000e+01
   endloop
 endfacet
 facet normal -5.000000e-01  8.660254e-01  0.000000e+00
   outer loop
     vertex -2.049038e+01  5.490381e+00  6.000000e+01
     vertex -1.926102e+01  6.200152e+00  4.000000e+01
     vertex -2.049038e+01  5.490381e+00  4.000000e+01
   endloop
 endfacet
 facet normal -5.000000e-01  8.660254e-01 -6.103624e-17
   outer loop
     vertex  9.023465e-01  1.784148e+01  4.000000e+01
     vertex -1.926102e+01  6.200152e+00  4.000000e+01
     vertex -2.049038e+01  5.490381e+00  6.000000e+01
   endloop
 endfacet
 facet normal -5.000000e-01  8.660254e-01  0.000000e+00
   outer loop
     vertex  5.490381e+00  2.049038e+01  6.000000e+01
     vertex  5.490381e+00  2.049038e+01  4.000000e+01
     vertex  9.023465e-01  1.784148e+01  4.000000e+01
   endloop
 endfacet
 facet normal -5.000000e-01  8.660254e-01 -1.184238e-16
   outer loop
     vertex  5.490381e+00  2.049038e+01  6.000000e+01
     vertex  9.023465e-01  1.784148e+01  4.000000e+01
     vertex -2.049038e+01  5.490381e+00  6.000000e+01
   endloop
 endfacet
 facet normal -8.660254e-01 -5.000000e-01 -0.000000e+00
   outer loop
     vertex -2.049038e+01  5.490381e+00  6.000000e+01
     vertex -2.049038e+01  5.490381e+00  4.000000e+01
     vertex -1.784148e+01  9.023465e-01  4.000000e+01
   endloop
 endfacet
 facet normal -8.660254e-01 -5.000000e-01 -0.000000e+00
   outer loop
     vertex -5.490381e+00 -2.049038e+01  6.000000e+01
     vertex -6.200152e+00 -1.926102e+01  4.000000e+01
     vertex -5.490381e+00 -2.049038e+01  4.000000e+01
   endloop
 endfacet
 facet normal -8.660254e-01 -5.000000e-01 -7.629530e-18
   outer loop
     vertex -5.490381e+00 -2.049038e+01  6.000000e+01
     vertex -1.784148e+01  9.023465e-01  4.000000e+01
     vertex -6.200152e+00 -1.926102e+01  4.000000e+01
   endloop
 endfacet
 facet normal -8.660254e-01 -5.000000e-01 -1.894781e-16
   outer loop
     vertex -5.490381e+00 -2.049038e+01  6.000000e+01
     vertex -2.049038e+01  5.490381e+00  6.000000e+01
     vertex -1.784148e+01  9.023465e-01  4.000000e+01
   endloop
 endfacet
 facet normal -0.000000e+00  0.000000e+00 -1.000000e+00
   outer loop
     vertex -9.023465e-01 -1.784148e+01  4.000000e+01
     vertex -6.200152e+00 -1.926102e+01  4.000000e+01
     vertex -4.392305e+00 -1.639230e+01  4.000000e+01
   endloop
 endfacet
 facet normal  0.000000e+00  0.000000e+00 -1.000000e+00
   outer loop
     vertex -1.784148e+01  9.023465e-01  4.000000e+01
     vertex -4.392305e+00 -1.639230e+01  4.000000e+01
     vertex -6.200152e+00 -1.926102e+01  4.000000e+01
   endloop
 endfacet
 facet normal  0.000000e+00 -0.000000e+00 -1.000000e+00
   outer loop
     vertex -1.639230e+01  4.392305e+00  4.000000e+01
     vertex -4.392305e+00 -1.639230e+01  4.000000e+01
     vertex -1.784148e+01  9.023465e-01  4.000000e+01
   endloop
 endfacet
 facet normal  0.000000e+00  0.000000e+00 -1.000000e+00
   outer loop
     vertex -1.926102e+01  6.200152e+00  4.000000e+01
     vertex -1.639230e+01  4.392305e+00  4.000000e+01
     vertex -1.784148e+01  9.023465e-01  4.000000e+01
   endloop
 endfacet
 facet normal  0.000000e+00 -0.000000e+00 -1.000000e+00
   outer loop
     vertex  1.639230e+01 -4.392305e+00  4.000000e+01
     vertex  1.926102e+01 -6.200152e+00  4.000000e+01
     vertex -9.023465e-01 -1.784148e+01  4.000000e+01
   endloop
 endfacet
 facet normal  0.000000e+00  0.000000e+00 -1.000000e+00
   outer loop
     vertex  1.639230e+01 -4.392305e+00  4.000000e+01
     vertex -9.023465e-01 -1.784148e+01  4.000000e+01
     vertex -4.392305e+00 -1.639230e+01  4.000000e+01
   endloop
 endfacet
 facet normal  0.000000e+00 -0.000000e+00 -1.000000e+00
   outer loop
     vertex  1.784148e+01 -9.023465e-01  4.000000e+01
     vertex  1.926102e+01 -6.200152e+00  4.000000e+01
     vertex  1.639230e+01 -4.392305e+00  4.000000e+01
   endloop
 endfacet
 facet normal  0.000000e+00  0.000000e+00 -1.000000e+00
   outer loop
     vertex  9.023465e-01  1.784148e+01  4.000000e+01
     vertex -1.639230e+01  4.392305e+00  4.000000e+01
     vertex -1.926102e+01  6.200152e+00  4.000000e+01
   endloop
 endfacet
 facet normal -0.000000e+00  0.000000e+00 -1.000000e+00
   outer loop
     vertex  4.392305e+00  1.639230e+01  4.000000e+01
     vertex -1.639230e+01  4.392305e+00  4.000000e+01
     vertex  9.023465e-01  1.784148e+01  4.000000e+01
   endloop
 endfacet
 facet normal  0.000000e+00  0.000000e+00 -1.000000e+00
   outer loop
     vertex  4.392305e+00  1.639230e+01  4.000000e+01
     vertex  1.784148e+01 -9.023465e-01  4.000000e+01
     vertex  1.639230e+01 -4.392305e+00  4.000000e+01
   endloop
 endfacet
 facet normal  0.000000e+00  0.000000e+00 -1.000000e+00
   outer loop
     vertex  6.200152e+00  1.926102e+01  4.000000e+01
     vertex  4.392305e+00  1.639230e+01  4.000000e+01
     vertex  9.023465e-01  1.784148e+01  4.000000e+01
   endloop
 endfacet
 facet normal  0.000000e+00 -0.000000e+00 -1.000000e+00
   outer loop
     vertex  6.200152e+00  1.926102e+01  4.000000e+01
     vertex  1.784148e+01 -9.023465e-01  4.000000e+01
     vertex  4.392305e+00  1.639230e+01  4.000000e+01
   endloop
 endfacet
 facet normal  0.000000e+00  0.000000e+00  1.000000e+00
   outer loop
     vertex  1.639230e+01 -4.392305e+00  6.000000e+01
     vertex -5.490381e+00 -2.049038e+01  6.000000e+01
     vertex  2.049038e+01 -5.490381e+00  6.000000e+01
   endloop
 endfacet
 facet normal  0.000000e+00  0.000000e+00  1.000000e+00
   outer loop
     vertex  1.639230e+01 -4.392305e+00  6.000000e+01
     vertex -4.392305e+00 -1.639230e+01  6.000000e+01
     vertex -5.490381e+00 -2.049038e+01  6.000000e+01
   endloop
 endfacet
 facet normal  0.000000e+00  0.000000e+00  1.000000e+00
   outer loop
     vertex -1.639230e+01  4.392305e+00  6.000000e+01
     vertex -2.049038e+01  5.490381e+00  6.000000e+01
     vertex -5.490381e+00 -2.049038e+01  6.000000e+01
   endloop
 endfacet
 facet normal  0.000000e+00  0.000000e+00  1.000000e+00
   outer loop
     vertex -1.639230e+01  4.392305e+00  6.000000e+01
     vertex -5.490381e+00 -2.049038e+01  6.000000e+01
     vertex -4.392305e+00 -1.639230e+01  6.000000e+01
   endloop
 endfacet
 facet normal  0.000000e+00  0.000000e+00  1.000000e+00
   outer loop
     vertex  5.490381e+00  2.049038e+01  6.000000e+01
     vertex  4.392305e+00  1.639230e+01  6.000000e+01
     vertex  1.639230e+01 -4.392305e+00  6.000000e+01
   endloop
 endfacet
 facet normal  0.000000e+00  0.000000e+00  1.000000e+00
   outer loop
     vertex  5.490381e+00  2.049038e+01  6.000000e+01
     vertex  1.639230e+01 -4.392305e+00  6.000000e+01
     vertex  2.049038e+01 -5.490381e+00  6.000000e+01
   endloop
 endfacet
 facet normal  0.000000e+00  0.000000e+00  1.000000e+00
   outer loop
     vertex  5.490381e+00  2.049038e+01  6.000000e+01
     vertex -2.049038e+01  5.490381e+00  6.000000e+01
     vertex -1.639230e+01  4.392305e+00  6.000000e+01
   endloop
 endfacet
 facet normal  0.000000e+00  0.000000e+00  1.000000e+00
   outer loop
     vertex  5.490381e+00  2.049038e+01  6.000000e+01
     vertex -1.639230e+01  4.392305e+00  6.000000e+01
     vertex  4.392305e+00  1.639230e+01  6.000000e+01
   endloop
 endfacet
 facet normal -5.000000e-01  8.660254e-01  0.000000e+00
   outer loop
     vertex  1.639230e+01 -4.392305e+00  6.000000e+01
     vertex  1.639230e+01 -4.392305e+00  4.000000e+01
     vertex -4.392305e+00 -1.639230e+01  4.000000e+01
   endloop
 endfacet
 facet normal -5.000000e-01  8.660254e-01  0.000000e+00
   outer loop
     vertex  1.639230e+01 -4.392305e+00  6.000000e+01
     vertex -4.392305e+00 -1.639230e+01  4.000000e+01
     vertex -4.392305e+00 -1.639230e+01  6.000000e+01
   endloop
 endfacet
 facet normal  8.660254e-01  5.000000e-01  0.000000e+00
   outer loop
     vertex -4.392305e+00 -1.639230e+01  6.000000e+01
     vertex -4.392305e+00 -1.639230e+01  4.000000e+01
     vertex -1.639230e+01  4.392305e+00  4.000000e+01
   endloop
 endfacet
 facet normal  8.660254e-01  5.000000e-01  0.000000e+00
   outer loop
     vertex -4.392305e+00 -1.639230e+01  6.000000e+01
     vertex -1.639230e+01  4.392305e+00  4.000000e+01
     vertex -1.639230e+01  4.392305e+00  6.000000e+01
   endloop
 endfacet
 facet normal -8.660254e-01 -5.000000e-01  0.000000e+00
   outer loop
     vertex  1.639230e+01 -4.392305e+00  4.000000e+01
     vertex  4.392305e+00  1.639230e+01  6.000000e+01
     vertex  4.392305e+00  1.639230e+01  4.000000e+01
   endloop
 endfacet
 facet normal -8.660254e-01 -5.000000e-01 -0.000000e+00
   outer loop
     vertex  1.639230e+01 -4.392305e+00  6.000000e+01
     vertex  4.392305e+00  1.639230e+01  6.000000e+01
     vertex  1.639230e+01 -4.392305e+00  4.000000e+01
   endloop
 endfacet
 facet normal  5.000000e-01 -8.660254e-01  0.000000e+00
   outer loop
     vertex  4.392305e+00  1.639230e+01  4.000000e+01
     vertex -1.639230e+01  4.392305e+00  6.000000e+01
     vertex -1.639230e+01  4.392305e+00  4.000000e+01
   endloop
 endfacet
 facet normal  5.000000e-01 -8.660254e-01  0.000000e+00
   outer loop
     vertex  4.392305e+00  1.639230e+01  6.000000e+01
     vertex -1.639230e+01  4.392305e+00  6.000000e+01
     vertex  4.392305e+00  1.639230e+01  4.000000e+01
   endloop
 endfacet
endsolid
