solid 
 facet normal -1.000000e+00  0.000000e+00  0.000000e+00
   outer loop
     vertex -3.000000e+01 -1.750000e+01  3.000000e+00
     vertex -3.000000e+01  1.750000e+01  0.000000e+00
     vertex -3.000000e+01 -1.750000e+01  0.000000e+00
   endloop
 endfacet
 facet normal -1.000000e+00  0.000000e+00  0.000000e+00
   outer loop
     vertex -3.000000e+01 -1.750000e+01  3.000000e+00
     vertex -3.000000e+01  1.750000e+01  3.000000e+00
     vertex -3.000000e+01  1.750000e+01  0.000000e+00
   endloop
 endfacet
 facet normal  0.000000e+00 -1.000000e+00 -0.000000e+00
   outer loop
     vertex  3.000000e+01 -1.750000e+01  3.000000e+00
     vertex -3.000000e+01 -1.750000e+01  0.000000e+00
     vertex  3.000000e+01 -1.750000e+01  0.000000e+00
   endloop
 endfacet
 facet normal -0.000000e+00 -1.000000e+00  0.000000e+00
   outer loop
     vertex  3.000000e+01 -1.750000e+01  3.000000e+00
     vertex -3.000000e+01 -1.750000e+01  3.000000e+00
     vertex -3.000000e+01 -1.750000e+01  0.000000e+00
   endloop
 endfacet
 facet normal  0.000000e+00  0.000000e+00  1.000000e+00
   outer loop
     vertex -1.475000e+01 -1.000000e+01  3.000000e+00
     vertex -1.675000e+01 -1.000000e+01  3.000000e+00
     vertex -3.000000e+01 -1.750000e+01  3.000000e+00
   endloop
 endfacet
 facet normal  0.000000e+00  0.000000e+00  1.000000e+00
   outer loop
     vertex -1.225000e+01 -1.000000e+01  3.000000e+00
     vertex -1.475000e+01 -1.000000e+01  3.000000e+00
     vertex -3.000000e+01 -1.750000e+01  3.000000e+00
   endloop
 endfacet
 facet normal  0.000000e+00  0.000000e+00  1.000000e+00
   outer loop
     vertex -1.025000e+01 -1.000000e+01  3.000000e+00
     vertex -1.225000e+01 -1.000000e+01  3.000000e+00
     vertex -3.000000e+01 -1.750000e+01  3.000000e+00
   endloop
 endfacet
 facet normal  0.000000e+00  0.000000e+00  1.000000e+00
   outer loop
     vertex -7.750000e+00 -1.000000e+01  3.000000e+00
     vertex -1.025000e+01 -1.000000e+01  3.000000e+00
     vertex -3.000000e+01 -1.750000e+01  3.000000e+00
   endloop
 endfacet
 facet normal  0.000000e+00  0.000000e+00  1.000000e+00
   outer loop
     vertex -5.750000e+00 -1.000000e+01  3.000000e+00
     vertex -7.750000e+00 -1.000000e+01  3.000000e+00
     vertex -3.000000e+01 -1.750000e+01  3.000000e+00
   endloop
 endfacet
 facet normal  0.000000e+00  0.000000e+00  1.000000e+00
   outer loop
     vertex -3.250000e+00 -1.000000e+01  3.000000e+00
     vertex -5.750000e+00 -1.000000e+01  3.000000e+00
     vertex -3.000000e+01 -1.750000e+01  3.000000e+00
   endloop
 endfacet
 facet normal  0.000000e+00  0.000000e+00  1.000000e+00
   outer loop
     vertex -3.000000e+01  1.750000e+01  3.000000e+00
     vertex -3.000000e+01 -1.750000e+01  3.000000e+00
     vertex -1.675000e+01 -1.000000e+01  3.000000e+00
   endloop
 endfacet
 facet normal  0.000000e+00  0.000000e+00  1.000000e+00
   outer loop
     vertex -1.250000e+00 -1.000000e+01  3.000000e+00
     vertex -3.250000e+00 -1.000000e+01  3.000000e+00
     vertex -3.000000e+01 -1.750000e+01  3.000000e+00
   endloop
 endfacet
 facet normal  0.000000e+00  0.000000e+00  1.000000e+00
   outer loop
     vertex -1.675000e+01  1.000000e+01  3.000000e+00
     vertex -3.000000e+01  1.750000e+01  3.000000e+00
     vertex -1.675000e+01 -1.000000e+01  3.000000e+00
   endloop
 endfacet
 facet normal  0.000000e+00  0.000000e+00  1.000000e+00
   outer loop
     vertex -1.475000e+01  1.000000e+01  3.000000e+00
     vertex -3.000000e+01  1.750000e+01  3.000000e+00
     vertex -1.675000e+01  1.000000e+01  3.000000e+00
   endloop
 endfacet
 facet normal  0.000000e+00  0.000000e+00  1.000000e+00
   outer loop
     vertex -1.475000e+01  1.000000e+01  3.000000e+00
     vertex -1.475000e+01 -1.000000e+01  3.000000e+00
     vertex -1.225000e+01 -1.000000e+01  3.000000e+00
   endloop
 endfacet
 facet normal  0.000000e+00  0.000000e+00  1.000000e+00
   outer loop
     vertex -1.225000e+01  1.000000e+01  3.000000e+00
     vertex -1.475000e+01  1.000000e+01  3.000000e+00
     vertex -1.225000e+01 -1.000000e+01  3.000000e+00
   endloop
 endfacet
 facet normal  0.000000e+00  0.000000e+00  1.000000e+00
   outer loop
     vertex -1.225000e+01  1.000000e+01  3.000000e+00
     vertex -3.000000e+01  1.750000e+01  3.000000e+00
     vertex -1.475000e+01  1.000000e+01  3.000000e+00
   endloop
 endfacet
 facet normal  0.000000e+00  0.000000e+00  1.000000e+00
   outer loop
     vertex -1.025000e+01  1.000000e+01  3.000000e+00
     vertex -1.025000e+01 -1.000000e+01  3.000000e+00
     vertex -7.750000e+00 -1.000000e+01  3.000000e+00
   endloop
 endfacet
 facet normal  0.000000e+00  0.000000e+00  1.000000e+00
   outer loop
     vertex -1.025000e+01  1.000000e+01  3.000000e+00
     vertex -3.000000e+01  1.750000e+01  3.000000e+00
     vertex -1.225000e+01  1.000000e+01  3.000000e+00
   endloop
 endfacet
 facet normal  0.000000e+00  0.000000e+00  1.000000e+00
   outer loop
     vertex -7.750000e+00  1.000000e+01  3.000000e+00
     vertex -1.025000e+01  1.000000e+01  3.000000e+00
     vertex -7.750000e+00 -1.000000e+01  3.000000e+00
   endloop
 endfacet
 facet normal  0.000000e+00  0.000000e+00  1.000000e+00
   outer loop
     vertex -7.750000e+00  1.000000e+01  3.000000e+00
     vertex -3.000000e+01  1.750000e+01  3.000000e+00
     vertex -1.025000e+01  1.000000e+01  3.000000e+00
   endloop
 endfacet
 facet normal  0.000000e+00  0.000000e+00  1.000000e+00
   outer loop
     vertex -5.750000e+00  1.000000e+01  3.000000e+00
     vertex -5.750000e+00 -1.000000e+01  3.000000e+00
     vertex -3.250000e+00 -1.000000e+01  3.000000e+00
   endloop
 endfacet
 facet normal  0.000000e+00  0.000000e+00  1.000000e+00
   outer loop
     vertex -3.250000e+00  1.000000e+01  3.000000e+00
     vertex -5.750000e+00  1.000000e+01  3.000000e+00
     vertex -3.250000e+00 -1.000000e+01  3.000000e+00
   endloop
 endfacet
 facet normal  0.000000e+00  0.000000e+00  1.000000e+00
   outer loop
     vertex -1.250000e+00  1.000000e+01  3.000000e+00
     vertex -1.250000e+00 -1.000000e+01  3.000000e+00
     vertex  1.250000e+00 -1.000000e+01  3.000000e+00
   endloop
 endfacet
 facet normal  0.000000e+00  0.000000e+00  1.000000e+00
   outer loop
     vertex  1.250000e+00  1.000000e+01  3.000000e+00
     vertex -1.250000e+00  1.000000e+01  3.000000e+00
     vertex  1.250000e+00 -1.000000e+01  3.000000e+00
   endloop
 endfacet
 facet normal  0.000000e+00  0.000000e+00  1.000000e+00
   outer loop
     vertex  3.000000e+01 -1.750000e+01  3.000000e+00
     vertex  3.250000e+00 -1.000000e+01  3.000000e+00
     vertex  1.250000e+00 -1.000000e+01  3.000000e+00
   endloop
 endfacet
 facet normal  0.000000e+00  0.000000e+00  1.000000e+00
   outer loop
     vertex  3.000000e+01 -1.750000e+01  3.000000e+00
     vertex  7.750000e+00 -1.000000e+01  3.000000e+00
     vertex  5.750000e+00 -1.000000e+01  3.000000e+00
   endloop
 endfacet
 facet normal  0.000000e+00  0.000000e+00  1.000000e+00
   outer loop
     vertex  3.000000e+01 -1.750000e+01  3.000000e+00
     vertex  1.225000e+01 -1.000000e+01  3.000000e+00
     vertex  1.025000e+01 -1.000000e+01  3.000000e+00
   endloop
 endfacet
 facet normal  0.000000e+00  0.000000e+00  1.000000e+00
   outer loop
     vertex  3.000000e+01 -1.750000e+01  3.000000e+00
     vertex  1.675000e+01 -1.000000e+01  3.000000e+00
     vertex  1.475000e+01 -1.000000e+01  3.000000e+00
   endloop
 endfacet
 facet normal  0.000000e+00  0.000000e+00  1.000000e+00
   outer loop
     vertex  3.000000e+01 -1.750000e+01  3.000000e+00
     vertex -1.250000e+00 -1.000000e+01  3.000000e+00
     vertex -3.000000e+01 -1.750000e+01  3.000000e+00
   endloop
 endfacet
 facet normal  0.000000e+00  0.000000e+00  1.000000e+00
   outer loop
     vertex  3.000000e+01 -1.750000e+01  3.000000e+00
     vertex  1.250000e+00 -1.000000e+01  3.000000e+00
     vertex -1.250000e+00 -1.000000e+01  3.000000e+00
   endloop
 endfacet
 facet normal  0.000000e+00  0.000000e+00  1.000000e+00
   outer loop
     vertex  3.000000e+01 -1.750000e+01  3.000000e+00
     vertex  5.750000e+00 -1.000000e+01  3.000000e+00
     vertex  3.250000e+00 -1.000000e+01  3.000000e+00
   endloop
 endfacet
 facet normal  0.000000e+00  0.000000e+00  1.000000e+00
   outer loop
     vertex  3.000000e+01 -1.750000e+01  3.000000e+00
     vertex  1.025000e+01 -1.000000e+01  3.000000e+00
     vertex  7.750000e+00 -1.000000e+01  3.000000e+00
   endloop
 endfacet
 facet normal  0.000000e+00  0.000000e+00  1.000000e+00
   outer loop
     vertex  3.000000e+01 -1.750000e+01  3.000000e+00
     vertex  1.475000e+01 -1.000000e+01  3.000000e+00
     vertex  1.225000e+01 -1.000000e+01  3.000000e+00
   endloop
 endfacet
 facet normal  0.000000e+00  0.000000e+00  1.000000e+00
   outer loop
     vertex  3.250000e+00  1.000000e+01  3.000000e+00
     vertex  3.250000e+00 -1.000000e+01  3.000000e+00
     vertex  5.750000e+00 -1.000000e+01  3.000000e+00
   endloop
 endfacet
 facet normal  0.000000e+00  0.000000e+00  1.000000e+00
   outer loop
     vertex  5.750000e+00  1.000000e+01  3.000000e+00
     vertex  3.250000e+00  1.000000e+01  3.000000e+00
     vertex  5.750000e+00 -1.000000e+01  3.000000e+00
   endloop
 endfacet
 facet normal  0.000000e+00  0.000000e+00  1.000000e+00
   outer loop
     vertex  7.750000e+00  1.000000e+01  3.000000e+00
     vertex  7.750000e+00 -1.000000e+01  3.000000e+00
     vertex  1.025000e+01 -1.000000e+01  3.000000e+00
   endloop
 endfacet
 facet normal  0.000000e+00  0.000000e+00  1.000000e+00
   outer loop
     vertex  1.025000e+01  1.000000e+01  3.000000e+00
     vertex  7.750000e+00  1.000000e+01  3.000000e+00
     vertex  1.025000e+01 -1.000000e+01  3.000000e+00
   endloop
 endfacet
 facet normal  0.000000e+00  0.000000e+00  1.000000e+00
   outer loop
     vertex  1.225000e+01  1.000000e+01  3.000000e+00
     vertex  1.225000e+01 -1.000000e+01  3.000000e+00
     vertex  1.475000e+01 -1.000000e+01  3.000000e+00
   endloop
 endfacet
 facet normal  0.000000e+00  0.000000e+00  1.000000e+00
   outer loop
     vertex  1.475000e+01  1.000000e+01  3.000000e+00
     vertex  1.225000e+01  1.000000e+01  3.000000e+00
     vertex  1.475000e+01 -1.000000e+01  3.000000e+00
   endloop
 endfacet
 facet normal  0.000000e+00  0.000000e+00  1.000000e+00
   outer loop
     vertex  1.675000e+01  1.000000e+01  3.000000e+00
     vertex  1.675000e+01 -1.000000e+01  3.000000e+00
     vertex  3.000000e+01 -1.750000e+01  3.000000e+00
   endloop
 endfacet
 facet normal  0.000000e+00  0.000000e+00  1.000000e+00
   outer loop
     vertex  3.000000e+01  1.750000e+01  3.000000e+00
     vertex  1.675000e+01  1.000000e+01  3.000000e+00
     vertex  3.000000e+01 -1.750000e+01  3.000000e+00
   endloop
 endfacet
 facet normal  0.000000e+00  0.000000e+00  1.000000e+00
   outer loop
     vertex  3.000000e+01  1.750000e+01  3.000000e+00
     vertex  1.025000e+01  1.000000e+01  3.000000e+00
     vertex  1.225000e+01  1.000000e+01  3.000000e+00
   endloop
 endfacet
 facet normal  0.000000e+00  0.000000e+00  1.000000e+00
   outer loop
     vertex  3.000000e+01  1.750000e+01  3.000000e+00
     vertex  1.475000e+01  1.000000e+01  3.000000e+00
     vertex  1.675000e+01  1.000000e+01  3.000000e+00
   endloop
 endfacet
 facet normal  0.000000e+00  0.000000e+00  1.000000e+00
   outer loop
     vertex  3.000000e+01  1.750000e+01  3.000000e+00
     vertex  1.225000e+01  1.000000e+01  3.000000e+00
     vertex  1.475000e+01  1.000000e+01  3.000000e+00
   endloop
 endfacet
 facet normal  0.000000e+00  0.000000e+00  1.000000e+00
   outer loop
     vertex  3.000000e+01  1.750000e+01  3.000000e+00
     vertex  7.750000e+00  1.000000e+01  3.000000e+00
     vertex  1.025000e+01  1.000000e+01  3.000000e+00
   endloop
 endfacet
 facet normal  0.000000e+00  0.000000e+00  1.000000e+00
   outer loop
     vertex  3.000000e+01  1.750000e+01  3.000000e+00
     vertex -3.000000e+01  1.750000e+01  3.000000e+00
     vertex -7.750000e+00  1.000000e+01  3.000000e+00
   endloop
 endfacet
 facet normal  0.000000e+00  0.000000e+00  1.000000e+00
   outer loop
     vertex  3.000000e+01  1.750000e+01  3.000000e+00
     vertex -7.750000e+00  1.000000e+01  3.000000e+00
     vertex -5.750000e+00  1.000000e+01  3.000000e+00
   endloop
 endfacet
 facet normal  0.000000e+00  0.000000e+00  1.000000e+00
   outer loop
     vertex  3.000000e+01  1.750000e+01  3.000000e+00
     vertex -5.750000e+00  1.000000e+01  3.000000e+00
     vertex -3.250000e+00  1.000000e+01  3.000000e+00
   endloop
 endfacet
 facet normal  0.000000e+00  0.000000e+00  1.000000e+00
   outer loop
     vertex  3.000000e+01  1.750000e+01  3.000000e+00
     vertex -3.250000e+00  1.000000e+01  3.000000e+00
     vertex -1.250000e+00  1.000000e+01  3.000000e+00
   endloop
 endfacet
 facet normal  0.000000e+00  0.000000e+00  1.000000e+00
   outer loop
     vertex  3.000000e+01  1.750000e+01  3.000000e+00
     vertex -1.250000e+00  1.000000e+01  3.000000e+00
     vertex  1.250000e+00  1.000000e+01  3.000000e+00
   endloop
 endfacet
 facet normal  0.000000e+00  0.000000e+00  1.000000e+00
   outer loop
     vertex  3.000000e+01  1.750000e+01  3.000000e+00
     vertex  1.250000e+00  1.000000e+01  3.000000e+00
     vertex  3.250000e+00  1.000000e+01  3.000000e+00
   endloop
 endfacet
 facet normal  0.000000e+00  0.000000e+00  1.000000e+00
   outer loop
     vertex  3.000000e+01  1.750000e+01  3.000000e+00
     vertex  3.250000e+00  1.000000e+01  3.000000e+00
     vertex  5.750000e+00  1.000000e+01  3.000000e+00
   endloop
 endfacet
 facet normal  0.000000e+00  0.000000e+00  1.000000e+00
   outer loop
     vertex  3.000000e+01  1.750000e+01  3.000000e+00
     vertex  5.750000e+00  1.000000e+01  3.000000e+00
     vertex  7.750000e+00  1.000000e+01  3.000000e+00
   endloop
 endfacet
 facet normal  0.000000e+00  1.000000e+00  0.000000e+00
   outer loop
     vertex  3.000000e+01  1.750000e+01  3.000000e+00
     vertex  3.000000e+01  1.750000e+01  0.000000e+00
     vertex -3.000000e+01  1.750000e+01  0.000000e+00
   endloop
 endfacet
 facet normal  0.000000e+00  1.000000e+00  0.000000e+00
   outer loop
     vertex  3.000000e+01  1.750000e+01  3.000000e+00
     vertex -3.000000e+01  1.750000e+01  0.000000e+00
     vertex -3.000000e+01  1.750000e+01  3.000000e+00
   endloop
 endfacet
 facet normal -0.000000e+00  0.000000e+00 -1.000000e+00
   outer loop
     vertex -2.800000e+01  1.550000e+01  0.000000e+00
     vertex -3.000000e+01 -1.750000e+01  0.000000e+00
     vertex -3.000000e+01  1.750000e+01  0.000000e+00
   endloop
 endfacet
 facet normal  0.000000e+00 -0.000000e+00 -1.000000e+00
   outer loop
     vertex -2.800000e+01  1.550000e+01  0.000000e+00
     vertex -2.800000e+01 -1.550000e+01  0.000000e+00
     vertex -3.000000e+01 -1.750000e+01  0.000000e+00
   endloop
 endfacet
 facet normal  0.000000e+00 -0.000000e+00 -1.000000e+00
   outer loop
     vertex  2.800000e+01 -1.550000e+01  0.000000e+00
     vertex  3.000000e+01 -1.750000e+01  0.000000e+00
     vertex -3.000000e+01 -1.750000e+01  0.000000e+00
   endloop
 endfacet
 facet normal -0.000000e+00  0.000000e+00 -1.000000e+00
   outer loop
     vertex  2.800000e+01 -1.550000e+01  0.000000e+00
     vertex -3.000000e+01 -1.750000e+01  0.000000e+00
     vertex -2.800000e+01 -1.550000e+01  0.000000e+00
   endloop
 endfacet
 facet normal  0.000000e+00  0.000000e+00 -1.000000e+00
   outer loop
     vertex  3.000000e+01  1.750000e+01  0.000000e+00
     vertex  2.800000e+01 -1.550000e+01  0.000000e+00
     vertex  2.800000e+01  1.550000e+01  0.000000e+00
   endloop
 endfacet
 facet normal  0.000000e+00 -0.000000e+00 -1.000000e+00
   outer loop
     vertex  3.000000e+01  1.750000e+01  0.000000e+00
     vertex  3.000000e+01 -1.750000e+01  0.000000e+00
     vertex  2.800000e+01 -1.550000e+01  0.000000e+00
   endloop
 endfacet
 facet normal -0.000000e+00  0.000000e+00 -1.000000e+00
   outer loop
     vertex  3.000000e+01  1.750000e+01  0.000000e+00
     vertex -2.800000e+01  1.550000e+01  0.000000e+00
     vertex -3.000000e+01  1.750000e+01  0.000000e+00
   endloop
 endfacet
 facet normal  0.000000e+00  0.000000e+00 -1.000000e+00
   outer loop
     vertex  3.000000e+01  1.750000e+01  0.000000e+00
     vertex  2.800000e+01  1.550000e+01  0.000000e+00
     vertex -2.800000e+01  1.550000e+01  0.000000e+00
   endloop
 endfacet
 facet normal  1.000000e+00  0.000000e+00  0.000000e+00
   outer loop
     vertex  3.000000e+01 -1.750000e+01  3.000000e+00
     vertex  3.000000e+01 -1.750000e+01  0.000000e+00
     vertex  3.000000e+01  1.750000e+01  0.000000e+00
   endloop
 endfacet
 facet normal  1.000000e+00 -0.000000e+00  0.000000e+00
   outer loop
     vertex  3.000000e+01 -1.750000e+01  3.000000e+00
     vertex  3.000000e+01  1.750000e+01  0.000000e+00
     vertex  3.000000e+01  1.750000e+01  3.000000e+00
   endloop
 endfacet
 facet normal  0.000000e+00  1.000000e+00  0.000000e+00
   outer loop
     vertex -1.475000e+01 -1.000000e+01  3.000000e+00
     vertex -1.475000e+01 -1.000000e+01  0.000000e+00
     vertex -1.675000e+01 -1.000000e+01  0.000000e+00
   endloop
 endfacet
 facet normal  0.000000e+00  1.000000e+00  0.000000e+00
   outer loop
     vertex -1.475000e+01 -1.000000e+01  3.000000e+00
     vertex -1.675000e+01 -1.000000e+01  0.000000e+00
     vertex -1.675000e+01 -1.000000e+01  3.000000e+00
   endloop
 endfacet
 facet normal -1.000000e+00  0.000000e+00  0.000000e+00
   outer loop
     vertex -1.475000e+01 -1.000000e+01  3.000000e+00
     vertex -1.475000e+01  1.000000e+01  0.000000e+00
     vertex -1.475000e+01 -1.000000e+01  0.000000e+00
   endloop
 endfacet
 facet normal -1.000000e+00  0.000000e+00  0.000000e+00
   outer loop
     vertex -1.475000e+01 -1.000000e+01  3.000000e+00
     vertex -1.475000e+01  1.000000e+01  3.000000e+00
     vertex -1.475000e+01  1.000000e+01  0.000000e+00
   endloop
 endfacet
 facet normal  1.000000e+00  0.000000e+00  0.000000e+00
   outer loop
     vertex -1.675000e+01 -1.000000e+01  3.000000e+00
     vertex -1.675000e+01 -1.000000e+01  0.000000e+00
     vertex -1.675000e+01  1.000000e+01  0.000000e+00
   endloop
 endfacet
 facet normal  1.000000e+00 -0.000000e+00  0.000000e+00
   outer loop
     vertex -1.675000e+01 -1.000000e+01  3.000000e+00
     vertex -1.675000e+01  1.000000e+01  0.000000e+00
     vertex -1.675000e+01  1.000000e+01  3.000000e+00
   endloop
 endfacet
 facet normal  0.000000e+00 -1.000000e+00 -0.000000e+00
   outer loop
     vertex -1.475000e+01  1.000000e+01  3.000000e+00
     vertex -1.675000e+01  1.000000e+01  0.000000e+00
     vertex -1.475000e+01  1.000000e+01  0.000000e+00
   endloop
 endfacet
 facet normal -0.000000e+00 -1.000000e+00  0.000000e+00
   outer loop
     vertex -1.475000e+01  1.000000e+01  3.000000e+00
     vertex -1.675000e+01  1.000000e+01  3.000000e+00
     vertex -1.675000e+01  1.000000e+01  0.000000e+00
   endloop
 endfacet
 facet normal  0.000000e+00  1.000000e+00  0.000000e+00
   outer loop
     vertex -1.025000e+01 -1.000000e+01  3.000000e+00
     vertex -1.025000e+01 -1.000000e+01  0.000000e+00
     vertex -1.225000e+01 -1.000000e+01  0.000000e+00
   endloop
 endfacet
 facet normal  0.000000e+00  1.000000e+00  0.000000e+00
   outer loop
     vertex -1.025000e+01 -1.000000e+01  3.000000e+00
     vertex -1.225000e+01 -1.000000e+01  0.000000e+00
     vertex -1.225000e+01 -1.000000e+01  3.000000e+00
   endloop
 endfacet
 facet normal -1.000000e+00  0.000000e+00  0.000000e+00
   outer loop
     vertex -1.025000e+01 -1.000000e+01  3.000000e+00
     vertex -1.025000e+01  1.000000e+01  0.000000e+00
     vertex -1.025000e+01 -1.000000e+01  0.000000e+00
   endloop
 endfacet
 facet normal -1.000000e+00  0.000000e+00  0.000000e+00
   outer loop
     vertex -1.025000e+01 -1.000000e+01  3.000000e+00
     vertex -1.025000e+01  1.000000e+01  3.000000e+00
     vertex -1.025000e+01  1.000000e+01  0.000000e+00
   endloop
 endfacet
 facet normal  1.000000e+00  0.000000e+00  0.000000e+00
   outer loop
     vertex -1.225000e+01 -1.000000e+01  3.000000e+00
     vertex -1.225000e+01 -1.000000e+01  0.000000e+00
     vertex -1.225000e+01  1.000000e+01  0.000000e+00
   endloop
 endfacet
 facet normal  1.000000e+00 -0.000000e+00  0.000000e+00
   outer loop
     vertex -1.225000e+01 -1.000000e+01  3.000000e+00
     vertex -1.225000e+01  1.000000e+01  0.000000e+00
     vertex -1.225000e+01  1.000000e+01  3.000000e+00
   endloop
 endfacet
 facet normal  0.000000e+00 -1.000000e+00 -0.000000e+00
   outer loop
     vertex -1.025000e+01  1.000000e+01  3.000000e+00
     vertex -1.225000e+01  1.000000e+01  0.000000e+00
     vertex -1.025000e+01  1.000000e+01  0.000000e+00
   endloop
 endfacet
 facet normal -0.000000e+00 -1.000000e+00  0.000000e+00
   outer loop
     vertex -1.025000e+01  1.000000e+01  3.000000e+00
     vertex -1.225000e+01  1.000000e+01  3.000000e+00
     vertex -1.225000e+01  1.000000e+01  0.000000e+00
   endloop
 endfacet
 facet normal  0.000000e+00  1.000000e+00  0.000000e+00
   outer loop
     vertex -5.750000e+00 -1.000000e+01  3.000000e+00
     vertex -5.750000e+00 -1.000000e+01  0.000000e+00
     vertex -7.750000e+00 -1.000000e+01  0.000000e+00
   endloop
 endfacet
 facet normal  0.000000e+00  1.000000e+00  0.000000e+00
   outer loop
     vertex -5.750000e+00 -1.000000e+01  3.000000e+00
     vertex -7.750000e+00 -1.000000e+01  0.000000e+00
     vertex -7.750000e+00 -1.000000e+01  3.000000e+00
   endloop
 endfacet
 facet normal -1.000000e+00  0.000000e+00  0.000000e+00
   outer loop
     vertex -5.750000e+00 -1.000000e+01  3.000000e+00
     vertex -5.750000e+00  1.000000e+01  0.000000e+00
     vertex -5.750000e+00 -1.000000e+01  0.000000e+00
   endloop
 endfacet
 facet normal -1.000000e+00  0.000000e+00  0.000000e+00
   outer loop
     vertex -5.750000e+00 -1.000000e+01  3.000000e+00
     vertex -5.750000e+00  1.000000e+01  3.000000e+00
     vertex -5.750000e+00  1.000000e+01  0.000000e+00
   endloop
 endfacet
 facet normal  1.000000e+00  0.000000e+00  0.000000e+00
   outer loop
     vertex -7.750000e+00 -1.000000e+01  3.000000e+00
     vertex -7.750000e+00 -1.000000e+01  0.000000e+00
     vertex -7.750000e+00  1.000000e+01  0.000000e+00
   endloop
 endfacet
 facet normal  1.000000e+00 -0.000000e+00  0.000000e+00
   outer loop
     vertex -7.750000e+00 -1.000000e+01  3.000000e+00
     vertex -7.750000e+00  1.000000e+01  0.000000e+00
     vertex -7.750000e+00  1.000000e+01  3.000000e+00
   endloop
 endfacet
 facet normal  0.000000e+00 -1.000000e+00 -0.000000e+00
   outer loop
     vertex -5.750000e+00  1.000000e+01  3.000000e+00
     vertex -7.750000e+00  1.000000e+01  0.000000e+00
     vertex -5.750000e+00  1.000000e+01  0.000000e+00
   endloop
 endfacet
 facet normal -0.000000e+00 -1.000000e+00  0.000000e+00
   outer loop
     vertex -5.750000e+00  1.000000e+01  3.000000e+00
     vertex -7.750000e+00  1.000000e+01  3.000000e+00
     vertex -7.750000e+00  1.000000e+01  0.000000e+00
   endloop
 endfacet
 facet normal  0.000000e+00  1.000000e+00  0.000000e+00
   outer loop
     vertex -1.250000e+00 -1.000000e+01  3.000000e+00
     vertex -1.250000e+00 -1.000000e+01  0.000000e+00
     vertex -3.250000e+00 -1.000000e+01  0.000000e+00
   endloop
 endfacet
 facet normal  0.000000e+00  1.000000e+00  0.000000e+00
   outer loop
     vertex -1.250000e+00 -1.000000e+01  3.000000e+00
     vertex -3.250000e+00 -1.000000e+01  0.000000e+00
     vertex -3.250000e+00 -1.000000e+01  3.000000e+00
   endloop
 endfacet
 facet normal -1.000000e+00  0.000000e+00  0.000000e+00
   outer loop
     vertex -1.250000e+00 -1.000000e+01  3.000000e+00
     vertex -1.250000e+00  1.000000e+01  0.000000e+00
     vertex -1.250000e+00 -1.000000e+01  0.000000e+00
   endloop
 endfacet
 facet normal -1.000000e+00  0.000000e+00  0.000000e+00
   outer loop
     vertex -1.250000e+00 -1.000000e+01  3.000000e+00
     vertex -1.250000e+00  1.000000e+01  3.000000e+00
     vertex -1.250000e+00  1.000000e+01  0.000000e+00
   endloop
 endfacet
 facet normal  1.000000e+00  0.000000e+00  0.000000e+00
   outer loop
     vertex -3.250000e+00 -1.000000e+01  3.000000e+00
     vertex -3.250000e+00 -1.000000e+01  0.000000e+00
     vertex -3.250000e+00  1.000000e+01  0.000000e+00
   endloop
 endfacet
 facet normal  1.000000e+00 -0.000000e+00  0.000000e+00
   outer loop
     vertex -3.250000e+00 -1.000000e+01  3.000000e+00
     vertex -3.250000e+00  1.000000e+01  0.000000e+00
     vertex -3.250000e+00  1.000000e+01  3.000000e+00
   endloop
 endfacet
 facet normal  0.000000e+00 -1.000000e+00 -0.000000e+00
   outer loop
     vertex -1.250000e+00  1.000000e+01  3.000000e+00
     vertex -3.250000e+00  1.000000e+01  0.000000e+00
     vertex -1.250000e+00  1.000000e+01  0.000000e+00
   endloop
 endfacet
 facet normal -0.000000e+00 -1.000000e+00  0.000000e+00
   outer loop
     vertex -1.250000e+00  1.000000e+01  3.000000e+00
     vertex -3.250000e+00  1.000000e+01  3.000000e+00
     vertex -3.250000e+00  1.000000e+01  0.000000e+00
   endloop
 endfacet
 facet normal  0.000000e+00  1.000000e+00  0.000000e+00
   outer loop
     vertex  3.250000e+00 -1.000000e+01  3.000000e+00
     vertex  3.250000e+00 -1.000000e+01  0.000000e+00
     vertex  1.250000e+00 -1.000000e+01  0.000000e+00
   endloop
 endfacet
 facet normal  0.000000e+00  1.000000e+00  0.000000e+00
   outer loop
     vertex  3.250000e+00 -1.000000e+01  3.000000e+00
     vertex  1.250000e+00 -1.000000e+01  0.000000e+00
     vertex  1.250000e+00 -1.000000e+01  3.000000e+00
   endloop
 endfacet
 facet normal -1.000000e+00  0.000000e+00  0.000000e+00
   outer loop
     vertex  3.250000e+00 -1.000000e+01  3.000000e+00
     vertex  3.250000e+00  1.000000e+01  0.000000e+00
     vertex  3.250000e+00 -1.000000e+01  0.000000e+00
   endloop
 endfacet
 facet normal -1.000000e+00  0.000000e+00  0.000000e+00
   outer loop
     vertex  3.250000e+00 -1.000000e+01  3.000000e+00
     vertex  3.250000e+00  1.000000e+01  3.000000e+00
     vertex  3.250000e+00  1.000000e+01  0.000000e+00
   endloop
 endfacet
 facet normal  1.000000e+00  0.000000e+00  0.000000e+00
   outer loop
     vertex  1.250000e+00 -1.000000e+01  3.000000e+00
     vertex  1.250000e+00 -1.000000e+01  0.000000e+00
     vertex  1.250000e+00  1.000000e+01  0.000000e+00
   endloop
 endfacet
 facet normal  1.000000e+00 -0.000000e+00  0.000000e+00
   outer loop
     vertex  1.250000e+00 -1.000000e+01  3.000000e+00
     vertex  1.250000e+00  1.000000e+01  0.000000e+00
     vertex  1.250000e+00  1.000000e+01  3.000000e+00
   endloop
 endfacet
 facet normal  0.000000e+00 -1.000000e+00 -0.000000e+00
   outer loop
     vertex  3.250000e+00  1.000000e+01  3.000000e+00
     vertex  1.250000e+00  1.000000e+01  0.000000e+00
     vertex  3.250000e+00  1.000000e+01  0.000000e+00
   endloop
 endfacet
 facet normal -0.000000e+00 -1.000000e+00  0.000000e+00
   outer loop
     vertex  3.250000e+00  1.000000e+01  3.000000e+00
     vertex  1.250000e+00  1.000000e+01  3.000000e+00
     vertex  1.250000e+00  1.000000e+01  0.000000e+00
   endloop
 endfacet
 facet normal  0.000000e+00  1.000000e+00  0.000000e+00
   outer loop
     vertex  7.750000e+00 -1.000000e+01  3.000000e+00
     vertex  7.750000e+00 -1.000000e+01  0.000000e+00
     vertex  5.750000e+00 -1.000000e+01  0.000000e+00
   endloop
 endfacet
 facet normal  0.000000e+00  1.000000e+00  0.000000e+00
   outer loop
     vertex  7.750000e+00 -1.000000e+01  3.000000e+00
     vertex  5.750000e+00 -1.000000e+01  0.000000e+00
     vertex  5.750000e+00 -1.000000e+01  3.000000e+00
   endloop
 endfacet
 facet normal -1.000000e+00  0.000000e+00  0.000000e+00
   outer loop
     vertex  7.750000e+00 -1.000000e+01  3.000000e+00
     vertex  7.750000e+00  1.000000e+01  0.000000e+00
     vertex  7.750000e+00 -1.000000e+01  0.000000e+00
   endloop
 endfacet
 facet normal -1.000000e+00  0.000000e+00  0.000000e+00
   outer loop
     vertex  7.750000e+00 -1.000000e+01  3.000000e+00
     vertex  7.750000e+00  1.000000e+01  3.000000e+00
     vertex  7.750000e+00  1.000000e+01  0.000000e+00
   endloop
 endfacet
 facet normal  1.000000e+00  0.000000e+00  0.000000e+00
   outer loop
     vertex  5.750000e+00 -1.000000e+01  3.000000e+00
     vertex  5.750000e+00 -1.000000e+01  0.000000e+00
     vertex  5.750000e+00  1.000000e+01  0.000000e+00
   endloop
 endfacet
 facet normal  1.000000e+00 -0.000000e+00  0.000000e+00
   outer loop
     vertex  5.750000e+00 -1.000000e+01  3.000000e+00
     vertex  5.750000e+00  1.000000e+01  0.000000e+00
     vertex  5.750000e+00  1.000000e+01  3.000000e+00
   endloop
 endfacet
 facet normal  0.000000e+00 -1.000000e+00 -0.000000e+00
   outer loop
     vertex  7.750000e+00  1.000000e+01  3.000000e+00
     vertex  5.750000e+00  1.000000e+01  0.000000e+00
     vertex  7.750000e+00  1.000000e+01  0.000000e+00
   endloop
 endfacet
 facet normal -0.000000e+00 -1.000000e+00  0.000000e+00
   outer loop
     vertex  7.750000e+00  1.000000e+01  3.000000e+00
     vertex  5.750000e+00  1.000000e+01  3.000000e+00
     vertex  5.750000e+00  1.000000e+01  0.000000e+00
   endloop
 endfacet
 facet normal  0.000000e+00  1.000000e+00  0.000000e+00
   outer loop
     vertex  1.225000e+01 -1.000000e+01  3.000000e+00
     vertex  1.225000e+01 -1.000000e+01  0.000000e+00
     vertex  1.025000e+01 -1.000000e+01  0.000000e+00
   endloop
 endfacet
 facet normal  0.000000e+00  1.000000e+00  0.000000e+00
   outer loop
     vertex  1.225000e+01 -1.000000e+01  3.000000e+00
     vertex  1.025000e+01 -1.000000e+01  0.000000e+00
     vertex  1.025000e+01 -1.000000e+01  3.000000e+00
   endloop
 endfacet
 facet normal -1.000000e+00  0.000000e+00  0.000000e+00
   outer loop
     vertex  1.225000e+01 -1.000000e+01  3.000000e+00
     vertex  1.225000e+01  1.000000e+01  0.000000e+00
     vertex  1.225000e+01 -1.000000e+01  0.000000e+00
   endloop
 endfacet
 facet normal -1.000000e+00  0.000000e+00  0.000000e+00
   outer loop
     vertex  1.225000e+01 -1.000000e+01  3.000000e+00
     vertex  1.225000e+01  1.000000e+01  3.000000e+00
     vertex  1.225000e+01  1.000000e+01  0.000000e+00
   endloop
 endfacet
 facet normal  1.000000e+00  0.000000e+00  0.000000e+00
   outer loop
     vertex  1.025000e+01 -1.000000e+01  3.000000e+00
     vertex  1.025000e+01 -1.000000e+01  0.000000e+00
     vertex  1.025000e+01  1.000000e+01  0.000000e+00
   endloop
 endfacet
 facet normal  1.000000e+00 -0.000000e+00  0.000000e+00
   outer loop
     vertex  1.025000e+01 -1.000000e+01  3.000000e+00
     vertex  1.025000e+01  1.000000e+01  0.000000e+00
     vertex  1.025000e+01  1.000000e+01  3.000000e+00
   endloop
 endfacet
 facet normal  0.000000e+00 -1.000000e+00 -0.000000e+00
   outer loop
     vertex  1.225000e+01  1.000000e+01  3.000000e+00
     vertex  1.025000e+01  1.000000e+01  0.000000e+00
     vertex  1.225000e+01  1.000000e+01  0.000000e+00
   endloop
 endfacet
 facet normal -0.000000e+00 -1.000000e+00  0.000000e+00
   outer loop
     vertex  1.225000e+01  1.000000e+01  3.000000e+00
     vertex  1.025000e+01  1.000000e+01  3.000000e+00
     vertex  1.025000e+01  1.000000e+01  0.000000e+00
   endloop
 endfacet
 facet normal  0.000000e+00  1.000000e+00  0.000000e+00
   outer loop
     vertex  1.675000e+01 -1.000000e+01  3.000000e+00
     vertex  1.675000e+01 -1.000000e+01  0.000000e+00
     vertex  1.475000e+01 -1.000000e+01  0.000000e+00
   endloop
 endfacet
 facet normal  0.000000e+00  1.000000e+00  0.000000e+00
   outer loop
     vertex  1.675000e+01 -1.000000e+01  3.000000e+00
     vertex  1.475000e+01 -1.000000e+01  0.000000e+00
     vertex  1.475000e+01 -1.000000e+01  3.000000e+00
   endloop
 endfacet
 facet normal -1.000000e+00  0.000000e+00  0.000000e+00
   outer loop
     vertex  1.675000e+01 -1.000000e+01  3.000000e+00
     vertex  1.675000e+01  1.000000e+01  0.000000e+00
     vertex  1.675000e+01 -1.000000e+01  0.000000e+00
   endloop
 endfacet
 facet normal -1.000000e+00  0.000000e+00  0.000000e+00
   outer loop
     vertex  1.675000e+01 -1.000000e+01  3.000000e+00
     vertex  1.675000e+01  1.000000e+01  3.000000e+00
     vertex  1.675000e+01  1.000000e+01  0.000000e+00
   endloop
 endfacet
 facet normal  0.000000e+00 -1.000000e+00 -0.000000e+00
   outer loop
     vertex  1.675000e+01  1.000000e+01  3.000000e+00
     vertex  1.475000e+01  1.000000e+01  0.000000e+00
     vertex  1.675000e+01  1.000000e+01  0.000000e+00
   endloop
 endfacet
 facet normal -0.000000e+00 -1.000000e+00  0.000000e+00
   outer loop
     vertex  1.675000e+01  1.000000e+01  3.000000e+00
     vertex  1.475000e+01  1.000000e+01  3.000000e+00
     vertex  1.475000e+01  1.000000e+01  0.000000e+00
   endloop
 endfacet
 facet normal  1.000000e+00  0.000000e+00  0.000000e+00
   outer loop
     vertex  1.475000e+01 -1.000000e+01  3.000000e+00
     vertex  1.475000e+01 -1.000000e+01  0.000000e+00
     vertex  1.475000e+01  1.000000e+01  0.000000e+00
   endloop
 endfacet
 facet normal  1.000000e+00 -0.000000e+00  0.000000e+00
   outer loop
     vertex  1.475000e+01 -1.000000e+01  3.000000e+00
     vertex  1.475000e+01  1.000000e+01  0.000000e+00
     vertex  1.475000e+01  1.000000e+01  3.000000e+00
   endloop
 endfacet
 facet normal  0.000000e+00 -1.000000e+00 -0.000000e+00
   outer loop
     vertex  2.800000e+01 -1.550000e+01  0.000000e+00
     vertex -2.800000e+01 -1.550000e+01 -1.500000e+00
     vertex  2.800000e+01 -1.550000e+01 -1.500000e+00
   endloop
 endfacet
 facet normal -0.000000e+00 -1.000000e+00  0.000000e+00
   outer loop
     vertex  2.800000e+01 -1.550000e+01  0.000000e+00
     vertex -2.800000e+01 -1.550000e+01  0.000000e+00
     vertex -2.800000e+01 -1.550000e+01 -1.500000e+00
   endloop
 endfacet
 facet normal  1.000000e+00  0.000000e+00  0.000000e+00
   outer loop
     vertex  2.800000e+01 -1.550000e+01  0.000000e+00
     vertex  2.800000e+01 -1.550000e+01 -1.500000e+00
     vertex  2.800000e+01  1.550000e+01 -1.500000e+00
   endloop
 endfacet
 facet normal  1.000000e+00 -0.000000e+00  0.000000e+00
   outer loop
     vertex  2.800000e+01 -1.550000e+01  0.000000e+00
     vertex  2.800000e+01  1.550000e+01 -1.500000e+00
     vertex  2.800000e+01  1.550000e+01  0.000000e+00
   endloop
 endfacet
 facet normal  0.000000e+00  1.000000e+00  0.000000e+00
   outer loop
     vertex  2.800000e+01  1.550000e+01  0.000000e+00
     vertex  2.800000e+01  1.550000e+01 -1.500000e+00
     vertex -2.800000e+01  1.550000e+01 -1.500000e+00
   endloop
 endfacet
 facet normal  0.000000e+00  1.000000e+00  0.000000e+00
   outer loop
     vertex  2.800000e+01  1.550000e+01  0.000000e+00
     vertex -2.800000e+01  1.550000e+01 -1.500000e+00
     vertex -2.800000e+01  1.550000e+01  0.000000e+00
   endloop
 endfacet
 facet normal -1.000000e+00  0.000000e+00  0.000000e+00
   outer loop
     vertex -2.800000e+01 -1.550000e+01  0.000000e+00
     vertex -2.800000e+01  1.550000e+01 -1.500000e+00
     vertex -2.800000e+01 -1.550000e+01 -1.500000e+00
   endloop
 endfacet
 facet normal -1.000000e+00  0.000000e+00  0.000000e+00
   outer loop
     vertex -2.800000e+01 -1.550000e+01  0.000000e+00
     vertex -2.800000e+01  1.550000e+01  0.000000e+00
     vertex -2.800000e+01  1.550000e+01 -1.500000e+00
   endloop
 endfacet
 facet normal -0.000000e+00  0.000000e+00 -1.000000e+00
   outer loop
     vertex -1.475000e+01 -1.000000e+01  0.000000e+00
     vertex -2.650000e+01 -1.400000e+01  0.000000e+00
     vertex -1.675000e+01 -1.000000e+01  0.000000e+00
   endloop
 endfacet
 facet normal -0.000000e+00  0.000000e+00 -1.000000e+00
   outer loop
     vertex -1.225000e+01 -1.000000e+01  0.000000e+00
     vertex -2.650000e+01 -1.400000e+01  0.000000e+00
     vertex -1.475000e+01 -1.000000e+01  0.000000e+00
   endloop
 endfacet
 facet normal -0.000000e+00  0.000000e+00 -1.000000e+00
   outer loop
     vertex -1.025000e+01 -1.000000e+01  0.000000e+00
     vertex -2.650000e+01 -1.400000e+01  0.000000e+00
     vertex -1.225000e+01 -1.000000e+01  0.000000e+00
   endloop
 endfacet
 facet normal -0.000000e+00  0.000000e+00 -1.000000e+00
   outer loop
     vertex -7.750000e+00 -1.000000e+01  0.000000e+00
     vertex -2.650000e+01 -1.400000e+01  0.000000e+00
     vertex -1.025000e+01 -1.000000e+01  0.000000e+00
   endloop
 endfacet
 facet normal -0.000000e+00  0.000000e+00 -1.000000e+00
   outer loop
     vertex -5.750000e+00 -1.000000e+01  0.000000e+00
     vertex -2.650000e+01 -1.400000e+01  0.000000e+00
     vertex -7.750000e+00 -1.000000e+01  0.000000e+00
   endloop
 endfacet
 facet normal -0.000000e+00  0.000000e+00 -1.000000e+00
   outer loop
     vertex -3.250000e+00 -1.000000e+01  0.000000e+00
     vertex -2.650000e+01 -1.400000e+01  0.000000e+00
     vertex -5.750000e+00 -1.000000e+01  0.000000e+00
   endloop
 endfacet
 facet normal -0.000000e+00  0.000000e+00 -1.000000e+00
   outer loop
     vertex -1.250000e+00 -1.000000e+01  0.000000e+00
     vertex -2.650000e+01 -1.400000e+01  0.000000e+00
     vertex -3.250000e+00 -1.000000e+01  0.000000e+00
   endloop
 endfacet
 facet normal -0.000000e+00  0.000000e+00 -1.000000e+00
   outer loop
     vertex  1.250000e+00 -1.000000e+01  0.000000e+00
     vertex -2.650000e+01 -1.400000e+01  0.000000e+00
     vertex -1.250000e+00 -1.000000e+01  0.000000e+00
   endloop
 endfacet
 facet normal -0.000000e+00  0.000000e+00 -1.000000e+00
   outer loop
     vertex -1.675000e+01  1.000000e+01  0.000000e+00
     vertex -2.650000e+01 -1.400000e+01  0.000000e+00
     vertex -2.650000e+01  1.400000e+01  0.000000e+00
   endloop
 endfacet
 facet normal  0.000000e+00 -0.000000e+00 -1.000000e+00
   outer loop
     vertex -1.675000e+01  1.000000e+01  0.000000e+00
     vertex -1.675000e+01 -1.000000e+01  0.000000e+00
     vertex -2.650000e+01 -1.400000e+01  0.000000e+00
   endloop
 endfacet
 facet normal  0.000000e+00  0.000000e+00 -1.000000e+00
   outer loop
     vertex -1.475000e+01  1.000000e+01  0.000000e+00
     vertex -1.225000e+01 -1.000000e+01  0.000000e+00
     vertex -1.475000e+01 -1.000000e+01  0.000000e+00
   endloop
 endfacet
 facet normal  0.000000e+00  0.000000e+00 -1.000000e+00
   outer loop
     vertex -1.475000e+01  1.000000e+01  0.000000e+00
     vertex -1.675000e+01  1.000000e+01  0.000000e+00
     vertex -2.650000e+01  1.400000e+01  0.000000e+00
   endloop
 endfacet
 facet normal -0.000000e+00 -0.000000e+00 -1.000000e+00
   outer loop
     vertex -1.225000e+01  1.000000e+01  0.000000e+00
     vertex -1.225000e+01 -1.000000e+01  0.000000e+00
     vertex -1.475000e+01  1.000000e+01  0.000000e+00
   endloop
 endfacet
 facet normal  0.000000e+00  0.000000e+00 -1.000000e+00
   outer loop
     vertex -1.225000e+01  1.000000e+01  0.000000e+00
     vertex -1.475000e+01  1.000000e+01  0.000000e+00
     vertex -2.650000e+01  1.400000e+01  0.000000e+00
   endloop
 endfacet
 facet normal -0.000000e+00  0.000000e+00 -1.000000e+00
   outer loop
     vertex -7.750000e+00  1.000000e+01  0.000000e+00
     vertex -1.025000e+01 -1.000000e+01  0.000000e+00
     vertex -1.025000e+01  1.000000e+01  0.000000e+00
   endloop
 endfacet
 facet normal  0.000000e+00 -0.000000e+00 -1.000000e+00
   outer loop
     vertex -7.750000e+00  1.000000e+01  0.000000e+00
     vertex -7.750000e+00 -1.000000e+01  0.000000e+00
     vertex -1.025000e+01 -1.000000e+01  0.000000e+00
   endloop
 endfacet
 facet normal -0.000000e+00  0.000000e+00 -1.000000e+00
   outer loop
     vertex -3.250000e+00  1.000000e+01  0.000000e+00
     vertex -5.750000e+00 -1.000000e+01  0.000000e+00
     vertex -5.750000e+00  1.000000e+01  0.000000e+00
   endloop
 endfacet
 facet normal  0.000000e+00 -0.000000e+00 -1.000000e+00
   outer loop
     vertex -3.250000e+00  1.000000e+01  0.000000e+00
     vertex -3.250000e+00 -1.000000e+01  0.000000e+00
     vertex -5.750000e+00 -1.000000e+01  0.000000e+00
   endloop
 endfacet
 facet normal -0.000000e+00  0.000000e+00 -1.000000e+00
   outer loop
     vertex  1.250000e+00  1.000000e+01  0.000000e+00
     vertex -1.250000e+00 -1.000000e+01  0.000000e+00
     vertex -1.250000e+00  1.000000e+01  0.000000e+00
   endloop
 endfacet
 facet normal  0.000000e+00 -0.000000e+00 -1.000000e+00
   outer loop
     vertex  1.250000e+00  1.000000e+01  0.000000e+00
     vertex  1.250000e+00 -1.000000e+01  0.000000e+00
     vertex -1.250000e+00 -1.000000e+01  0.000000e+00
   endloop
 endfacet
 facet normal  0.000000e+00  0.000000e+00 -1.000000e+00
   outer loop
     vertex  2.650000e+01 -1.400000e+01  0.000000e+00
     vertex  1.250000e+00 -1.000000e+01  0.000000e+00
     vertex  3.250000e+00 -1.000000e+01  0.000000e+00
   endloop
 endfacet
 facet normal  0.000000e+00  0.000000e+00 -1.000000e+00
   outer loop
     vertex  2.650000e+01 -1.400000e+01  0.000000e+00
     vertex  5.750000e+00 -1.000000e+01  0.000000e+00
     vertex  7.750000e+00 -1.000000e+01  0.000000e+00
   endloop
 endfacet
 facet normal  0.000000e+00  0.000000e+00 -1.000000e+00
   outer loop
     vertex  2.650000e+01 -1.400000e+01  0.000000e+00
     vertex  1.025000e+01 -1.000000e+01  0.000000e+00
     vertex  1.225000e+01 -1.000000e+01  0.000000e+00
   endloop
 endfacet
 facet normal  0.000000e+00  0.000000e+00 -1.000000e+00
   outer loop
     vertex  2.650000e+01 -1.400000e+01  0.000000e+00
     vertex  1.475000e+01 -1.000000e+01  0.000000e+00
     vertex  1.675000e+01 -1.000000e+01  0.000000e+00
   endloop
 endfacet
 facet normal  0.000000e+00  0.000000e+00 -1.000000e+00
   outer loop
     vertex  2.650000e+01 -1.400000e+01  0.000000e+00
     vertex -2.650000e+01 -1.400000e+01  0.000000e+00
     vertex  1.250000e+00 -1.000000e+01  0.000000e+00
   endloop
 endfacet
 facet normal  0.000000e+00  0.000000e+00 -1.000000e+00
   outer loop
     vertex  2.650000e+01 -1.400000e+01  0.000000e+00
     vertex  3.250000e+00 -1.000000e+01  0.000000e+00
     vertex  5.750000e+00 -1.000000e+01  0.000000e+00
   endloop
 endfacet
 facet normal  0.000000e+00  0.000000e+00 -1.000000e+00
   outer loop
     vertex  2.650000e+01 -1.400000e+01  0.000000e+00
     vertex  7.750000e+00 -1.000000e+01  0.000000e+00
     vertex  1.025000e+01 -1.000000e+01  0.000000e+00
   endloop
 endfacet
 facet normal  0.000000e+00  0.000000e+00 -1.000000e+00
   outer loop
     vertex  2.650000e+01 -1.400000e+01  0.000000e+00
     vertex  1.225000e+01 -1.000000e+01  0.000000e+00
     vertex  1.475000e+01 -1.000000e+01  0.000000e+00
   endloop
 endfacet
 facet normal -0.000000e+00  0.000000e+00 -1.000000e+00
   outer loop
     vertex  5.750000e+00  1.000000e+01  0.000000e+00
     vertex  3.250000e+00 -1.000000e+01  0.000000e+00
     vertex  3.250000e+00  1.000000e+01  0.000000e+00
   endloop
 endfacet
 facet normal  0.000000e+00 -0.000000e+00 -1.000000e+00
   outer loop
     vertex  5.750000e+00  1.000000e+01  0.000000e+00
     vertex  5.750000e+00 -1.000000e+01  0.000000e+00
     vertex  3.250000e+00 -1.000000e+01  0.000000e+00
   endloop
 endfacet
 facet normal -0.000000e+00  0.000000e+00 -1.000000e+00
   outer loop
     vertex  1.025000e+01  1.000000e+01  0.000000e+00
     vertex  7.750000e+00 -1.000000e+01  0.000000e+00
     vertex  7.750000e+00  1.000000e+01  0.000000e+00
   endloop
 endfacet
 facet normal  0.000000e+00 -0.000000e+00 -1.000000e+00
   outer loop
     vertex  1.025000e+01  1.000000e+01  0.000000e+00
     vertex  1.025000e+01 -1.000000e+01  0.000000e+00
     vertex  7.750000e+00 -1.000000e+01  0.000000e+00
   endloop
 endfacet
 facet normal  0.000000e+00  0.000000e+00 -1.000000e+00
   outer loop
     vertex  1.225000e+01  1.000000e+01  0.000000e+00
     vertex  1.475000e+01 -1.000000e+01  0.000000e+00
     vertex  1.225000e+01 -1.000000e+01  0.000000e+00
   endloop
 endfacet
 facet normal -0.000000e+00 -0.000000e+00 -1.000000e+00
   outer loop
     vertex  1.475000e+01  1.000000e+01  0.000000e+00
     vertex  1.475000e+01 -1.000000e+01  0.000000e+00
     vertex  1.225000e+01  1.000000e+01  0.000000e+00
   endloop
 endfacet
 facet normal  0.000000e+00  0.000000e+00 -1.000000e+00
   outer loop
     vertex  2.650000e+01  1.400000e+01  0.000000e+00
     vertex  1.475000e+01  1.000000e+01  0.000000e+00
     vertex  1.225000e+01  1.000000e+01  0.000000e+00
   endloop
 endfacet
 facet normal  0.000000e+00  0.000000e+00 -1.000000e+00
   outer loop
     vertex  2.650000e+01  1.400000e+01  0.000000e+00
     vertex  1.675000e+01  1.000000e+01  0.000000e+00
     vertex  1.475000e+01  1.000000e+01  0.000000e+00
   endloop
 endfacet
 facet normal  0.000000e+00  0.000000e+00 -1.000000e+00
   outer loop
     vertex  2.650000e+01  1.400000e+01  0.000000e+00
     vertex  1.675000e+01 -1.000000e+01  0.000000e+00
     vertex  1.675000e+01  1.000000e+01  0.000000e+00
   endloop
 endfacet
 facet normal  0.000000e+00 -0.000000e+00 -1.000000e+00
   outer loop
     vertex  2.650000e+01  1.400000e+01  0.000000e+00
     vertex  2.650000e+01 -1.400000e+01  0.000000e+00
     vertex  1.675000e+01 -1.000000e+01  0.000000e+00
   endloop
 endfacet
 facet normal -0.000000e+00  0.000000e+00 -1.000000e+00
   outer loop
     vertex  2.650000e+01  1.400000e+01  0.000000e+00
     vertex -1.225000e+01  1.000000e+01  0.000000e+00
     vertex -2.650000e+01  1.400000e+01  0.000000e+00
   endloop
 endfacet
 facet normal  0.000000e+00  0.000000e+00 -1.000000e+00
   outer loop
     vertex  2.650000e+01  1.400000e+01  0.000000e+00
     vertex -1.025000e+01  1.000000e+01  0.000000e+00
     vertex -1.225000e+01  1.000000e+01  0.000000e+00
   endloop
 endfacet
 facet normal  0.000000e+00  0.000000e+00 -1.000000e+00
   outer loop
     vertex  2.650000e+01  1.400000e+01  0.000000e+00
     vertex -7.750000e+00  1.000000e+01  0.000000e+00
     vertex -1.025000e+01  1.000000e+01  0.000000e+00
   endloop
 endfacet
 facet normal  0.000000e+00  0.000000e+00 -1.000000e+00
   outer loop
     vertex  2.650000e+01  1.400000e+01  0.000000e+00
     vertex -5.750000e+00  1.000000e+01  0.000000e+00
     vertex -7.750000e+00  1.000000e+01  0.000000e+00
   endloop
 endfacet
 facet normal  0.000000e+00  0.000000e+00 -1.000000e+00
   outer loop
     vertex  2.650000e+01  1.400000e+01  0.000000e+00
     vertex -3.250000e+00  1.000000e+01  0.000000e+00
     vertex -5.750000e+00  1.000000e+01  0.000000e+00
   endloop
 endfacet
 facet normal  0.000000e+00  0.000000e+00 -1.000000e+00
   outer loop
     vertex  2.650000e+01  1.400000e+01  0.000000e+00
     vertex -1.250000e+00  1.000000e+01  0.000000e+00
     vertex -3.250000e+00  1.000000e+01  0.000000e+00
   endloop
 endfacet
 facet normal  0.000000e+00  0.000000e+00 -1.000000e+00
   outer loop
     vertex  2.650000e+01  1.400000e+01  0.000000e+00
     vertex  1.250000e+00  1.000000e+01  0.000000e+00
     vertex -1.250000e+00  1.000000e+01  0.000000e+00
   endloop
 endfacet
 facet normal  0.000000e+00  0.000000e+00 -1.000000e+00
   outer loop
     vertex  2.650000e+01  1.400000e+01  0.000000e+00
     vertex  3.250000e+00  1.000000e+01  0.000000e+00
     vertex  1.250000e+00  1.000000e+01  0.000000e+00
   endloop
 endfacet
 facet normal  0.000000e+00  0.000000e+00 -1.000000e+00
   outer loop
     vertex  2.650000e+01  1.400000e+01  0.000000e+00
     vertex  5.750000e+00  1.000000e+01  0.000000e+00
     vertex  3.250000e+00  1.000000e+01  0.000000e+00
   endloop
 endfacet
 facet normal  0.000000e+00  0.000000e+00 -1.000000e+00
   outer loop
     vertex  2.650000e+01  1.400000e+01  0.000000e+00
     vertex  7.750000e+00  1.000000e+01  0.000000e+00
     vertex  5.750000e+00  1.000000e+01  0.000000e+00
   endloop
 endfacet
 facet normal  0.000000e+00  0.000000e+00 -1.000000e+00
   outer loop
     vertex  2.650000e+01  1.400000e+01  0.000000e+00
     vertex  1.025000e+01  1.000000e+01  0.000000e+00
     vertex  7.750000e+00  1.000000e+01  0.000000e+00
   endloop
 endfacet
 facet normal  0.000000e+00  0.000000e+00 -1.000000e+00
   outer loop
     vertex  2.650000e+01  1.400000e+01  0.000000e+00
     vertex  1.225000e+01  1.000000e+01  0.000000e+00
     vertex  1.025000e+01  1.000000e+01  0.000000e+00
   endloop
 endfacet
 facet normal  0.000000e+00 -0.000000e+00 -1.000000e+00
   outer loop
     vertex -2.650000e+01  1.400000e+01 -1.500000e+00
     vertex -2.650000e+01 -1.400000e+01 -1.500000e+00
     vertex -2.800000e+01 -1.550000e+01 -1.500000e+00
   endloop
 endfacet
 facet normal  0.000000e+00  0.000000e+00 -1.000000e+00
   outer loop
     vertex -2.800000e+01  1.550000e+01 -1.500000e+00
     vertex -2.650000e+01  1.400000e+01 -1.500000e+00
     vertex -2.800000e+01 -1.550000e+01 -1.500000e+00
   endloop
 endfacet
 facet normal  0.000000e+00 -0.000000e+00 -1.000000e+00
   outer loop
     vertex  2.650000e+01 -1.400000e+01 -1.500000e+00
     vertex  2.800000e+01 -1.550000e+01 -1.500000e+00
     vertex -2.800000e+01 -1.550000e+01 -1.500000e+00
   endloop
 endfacet
 facet normal -0.000000e+00  0.000000e+00 -1.000000e+00
   outer loop
     vertex  2.650000e+01 -1.400000e+01 -1.500000e+00
     vertex -2.800000e+01 -1.550000e+01 -1.500000e+00
     vertex -2.650000e+01 -1.400000e+01 -1.500000e+00
   endloop
 endfacet
 facet normal  0.000000e+00  0.000000e+00 -1.000000e+00
   outer loop
     vertex  2.650000e+01  1.400000e+01 -1.500000e+00
     vertex  2.800000e+01 -1.550000e+01 -1.500000e+00
     vertex  2.650000e+01 -1.400000e+01 -1.500000e+00
   endloop
 endfacet
 facet normal  0.000000e+00 -0.000000e+00 -1.000000e+00
   outer loop
     vertex  2.800000e+01  1.550000e+01 -1.500000e+00
     vertex  2.800000e+01 -1.550000e+01 -1.500000e+00
     vertex  2.650000e+01  1.400000e+01 -1.500000e+00
   endloop
 endfacet
 facet normal -0.000000e+00  0.000000e+00 -1.000000e+00
   outer loop
     vertex  2.800000e+01  1.550000e+01 -1.500000e+00
     vertex -2.650000e+01  1.400000e+01 -1.500000e+00
     vertex -2.800000e+01  1.550000e+01 -1.500000e+00
   endloop
 endfacet
 facet normal  0.000000e+00  0.000000e+00 -1.000000e+00
   outer loop
     vertex  2.800000e+01  1.550000e+01 -1.500000e+00
     vertex  2.650000e+01  1.400000e+01 -1.500000e+00
     vertex -2.650000e+01  1.400000e+01 -1.500000e+00
   endloop
 endfacet
 facet normal  1.000000e+00  0.000000e+00  0.000000e+00
   outer loop
     vertex -2.650000e+01 -1.400000e+01  0.000000e+00
     vertex -2.650000e+01 -1.400000e+01 -1.500000e+00
     vertex -2.650000e+01  1.400000e+01 -1.500000e+00
   endloop
 endfacet
 facet normal  1.000000e+00 -0.000000e+00  0.000000e+00
   outer loop
     vertex -2.650000e+01 -1.400000e+01  0.000000e+00
     vertex -2.650000e+01  1.400000e+01 -1.500000e+00
     vertex -2.650000e+01  1.400000e+01  0.000000e+00
   endloop
 endfacet
 facet normal  0.000000e+00  1.000000e+00  0.000000e+00
   outer loop
     vertex  2.650000e+01 -1.400000e+01  0.000000e+00
     vertex  2.650000e+01 -1.400000e+01 -1.500000e+00
     vertex -2.650000e+01 -1.400000e+01 -1.500000e+00
   endloop
 endfacet
 facet normal  0.000000e+00  1.000000e+00  0.000000e+00
   outer loop
     vertex  2.650000e+01 -1.400000e+01  0.000000e+00
     vertex -2.650000e+01 -1.400000e+01 -1.500000e+00
     vertex -2.650000e+01 -1.400000e+01  0.000000e+00
   endloop
 endfacet
 facet normal  0.000000e+00 -1.000000e+00 -0.000000e+00
   outer loop
     vertex  2.650000e+01  1.400000e+01  0.000000e+00
     vertex -2.650000e+01  1.400000e+01 -1.500000e+00
     vertex  2.650000e+01  1.400000e+01 -1.500000e+00
   endloop
 endfacet
 facet normal -0.000000e+00 -1.000000e+00  0.000000e+00
   outer loop
     vertex  2.650000e+01  1.400000e+01  0.000000e+00
     vertex -2.650000e+01  1.400000e+01  0.000000e+00
     vertex -2.650000e+01  1.400000e+01 -1.500000e+00
   endloop
 endfacet
 facet normal -1.000000e+00  0.000000e+00  0.000000e+00
   outer loop
     vertex  2.650000e+01 -1.400000e+01  0.000000e+00
     vertex  2.650000e+01  1.400000e+01 -1.500000e+00
     vertex  2.650000e+01 -1.400000e+01 -1.500000e+00
   endloop
 endfacet
 facet normal -1.000000e+00  0.000000e+00  0.000000e+00
   outer loop
     vertex  2.650000e+01 -1.400000e+01  0.000000e+00
     vertex  2.650000e+01  1.400000e+01  0.000000e+00
     vertex  2.650000e+01  1.400000e+01 -1.500000e+00
   endloop
 endfacet
endsolid
