solid 
 facet normal -1.000000e+00  0.000000e+00  0.000000e+00
   outer loop
     vertex  0.000000e+00  5.000000e+00  1.000000e+01
     vertex  0.000000e+00  3.000000e+01  0.000000e+00
     vertex  0.000000e+00  5.000000e+00  0.000000e+00
   endloop
 endfacet
 facet normal -1.000000e+00  0.000000e+00  0.000000e+00
   outer loop
     vertex  0.000000e+00  5.000000e+00  1.000000e+01
     vertex  0.000000e+00  3.000000e+01  1.500000e+01
     vertex  0.000000e+00  3.000000e+01  0.000000e+00
   endloop
 endfacet
 facet normal -1.000000e+00  0.000000e+00  0.000000e+00
   outer loop
     vertex  0.000000e+00  0.000000e+00  1.500000e+01
     vertex  0.000000e+00  5.000000e+00  1.000000e+01
     vertex  0.000000e+00  0.000000e+00  1.000000e+01
   endloop
 endfacet
 facet normal -1.000000e+00  0.000000e+00  0.000000e+00
   outer loop
     vertex  0.000000e+00  0.000000e+00  1.500000e+01
     vertex  0.000000e+00  3.000000e+01  1.500000e+01
     vertex  0.000000e+00  5.000000e+00  1.000000e+01
   endloop
 endfacet
 facet normal  0.000000e+00 -1.000000e+00  0.000000e+00
   outer loop
     vertex  1.150000e+01  0.000000e+00  1.000000e+01
     vertex  0.000000e+00  0.000000e+00  1.500000e+01
     vertex  0.000000e+00  0.000000e+00  1.000000e+01
   endloop
 endfacet
 facet normal  0.000000e+00 -1.000000e+00 -0.000000e+00
   outer loop
     vertex  1.200000e+01  0.000000e+00  1.000000e+01
     vertex  1.150000e+01  0.000000e+00  0.000000e+00
     vertex  1.200000e+01  0.000000e+00  0.000000e+00
   endloop
 endfacet
 facet normal -0.000000e+00 -1.000000e+00  0.000000e+00
   outer loop
     vertex  1.200000e+01  0.000000e+00  1.000000e+01
     vertex  1.150000e+01  0.000000e+00  1.000000e+01
     vertex  1.150000e+01  0.000000e+00  0.000000e+00
   endloop
 endfacet
 facet normal  0.000000e+00 -1.000000e+00  0.000000e+00
   outer loop
     vertex  1.200000e+01  0.000000e+00  1.000000e+01
     vertex  0.000000e+00  0.000000e+00  1.500000e+01
     vertex  1.150000e+01  0.000000e+00  1.000000e+01
   endloop
 endfacet
 facet normal  0.000000e+00 -1.000000e+00  0.000000e+00
   outer loop
     vertex  2.500000e+01  0.000000e+00  1.000000e+01
     vertex  0.000000e+00  0.000000e+00  1.500000e+01
     vertex  1.200000e+01  0.000000e+00  1.000000e+01
   endloop
 endfacet
 facet normal  0.000000e+00 -1.000000e+00 -0.000000e+00
   outer loop
     vertex  2.550000e+01  0.000000e+00  1.000000e+01
     vertex  2.500000e+01  0.000000e+00  0.000000e+00
     vertex  2.550000e+01  0.000000e+00  0.000000e+00
   endloop
 endfacet
 facet normal -0.000000e+00 -1.000000e+00  0.000000e+00
   outer loop
     vertex  2.550000e+01  0.000000e+00  1.000000e+01
     vertex  2.500000e+01  0.000000e+00  1.000000e+01
     vertex  2.500000e+01  0.000000e+00  0.000000e+00
   endloop
 endfacet
 facet normal  0.000000e+00 -1.000000e+00  0.000000e+00
   outer loop
     vertex  5.000000e+01  0.000000e+00  0.000000e+00
     vertex  3.850000e+01  0.000000e+00  1.000000e+01
     vertex  3.850000e+01  0.000000e+00  0.000000e+00
   endloop
 endfacet
 facet normal  0.000000e+00 -1.000000e+00  0.000000e+00
   outer loop
     vertex  5.000000e+01  0.000000e+00  1.500000e+01
     vertex  2.550000e+01  0.000000e+00  1.000000e+01
     vertex  3.850000e+01  0.000000e+00  1.000000e+01
   endloop
 endfacet
 facet normal  0.000000e+00 -1.000000e+00 -0.000000e+00
   outer loop
     vertex  5.000000e+01  0.000000e+00  1.500000e+01
     vertex  3.850000e+01  0.000000e+00  1.000000e+01
     vertex  5.000000e+01  0.000000e+00  0.000000e+00
   endloop
 endfacet
 facet normal  0.000000e+00 -1.000000e+00  0.000000e+00
   outer loop
     vertex  0.000000e+00  0.000000e+00  1.500000e+01
     vertex  2.550000e+01  0.000000e+00  1.000000e+01
     vertex  5.000000e+01  0.000000e+00  1.500000e+01
   endloop
 endfacet
 facet normal  0.000000e+00 -1.000000e+00  0.000000e+00
   outer loop
     vertex  0.000000e+00  0.000000e+00  1.500000e+01
     vertex  2.500000e+01  0.000000e+00  1.000000e+01
     vertex  2.550000e+01  0.000000e+00  1.000000e+01
   endloop
 endfacet
 facet normal  0.000000e+00  0.000000e+00  1.000000e+00
   outer loop
     vertex  5.000000e+01  3.000000e+01  1.500000e+01
     vertex  0.000000e+00  3.000000e+01  1.500000e+01
     vertex  0.000000e+00  0.000000e+00  1.500000e+01
   endloop
 endfacet
 facet normal  0.000000e+00  0.000000e+00  1.000000e+00
   outer loop
     vertex  5.000000e+01  3.000000e+01  1.500000e+01
     vertex  0.000000e+00  0.000000e+00  1.500000e+01
     vertex  5.000000e+01  0.000000e+00  1.500000e+01
   endloop
 endfacet
 facet normal -1.000000e+00  0.000000e+00  0.000000e+00
   outer loop
     vertex  0.000000e+00  3.000000e+01  1.500000e+01
     vertex  0.000000e+00  6.000000e+01  0.000000e+00
     vertex  0.000000e+00  3.000000e+01  0.000000e+00
   endloop
 endfacet
 facet normal -1.000000e+00  0.000000e+00  0.000000e+00
   outer loop
     vertex  0.000000e+00  3.000000e+01  1.500000e+01
     vertex  0.000000e+00  6.000000e+01  2.500000e+01
     vertex  0.000000e+00  6.000000e+01  0.000000e+00
   endloop
 endfacet
 facet normal -1.000000e+00  0.000000e+00  0.000000e+00
   outer loop
     vertex  0.000000e+00  3.000000e+01  2.500000e+01
     vertex  0.000000e+00  6.000000e+01  2.500000e+01
     vertex  0.000000e+00  3.000000e+01  1.500000e+01
   endloop
 endfacet
 facet normal -0.000000e+00  0.000000e+00 -1.000000e+00
   outer loop
     vertex  1.200000e+01  5.000000e+00  0.000000e+00
     vertex  1.150000e+01  0.000000e+00  0.000000e+00
     vertex  1.150000e+01  5.000000e+00  0.000000e+00
   endloop
 endfacet
 facet normal  0.000000e+00 -0.000000e+00 -1.000000e+00
   outer loop
     vertex  1.200000e+01  5.000000e+00  0.000000e+00
     vertex  1.200000e+01  0.000000e+00  0.000000e+00
     vertex  1.150000e+01  0.000000e+00  0.000000e+00
   endloop
 endfacet
 facet normal -0.000000e+00  0.000000e+00 -1.000000e+00
   outer loop
     vertex  2.550000e+01  5.000000e+00  0.000000e+00
     vertex  2.500000e+01  0.000000e+00  0.000000e+00
     vertex  2.500000e+01  5.000000e+00  0.000000e+00
   endloop
 endfacet
 facet normal  0.000000e+00 -0.000000e+00 -1.000000e+00
   outer loop
     vertex  2.550000e+01  5.000000e+00  0.000000e+00
     vertex  2.550000e+01  0.000000e+00  0.000000e+00
     vertex  2.500000e+01  0.000000e+00  0.000000e+00
   endloop
 endfacet
 facet normal -0.000000e+00  0.000000e+00 -1.000000e+00
   outer loop
     vertex  1.500000e+00  3.000000e+01  0.000000e+00
     vertex  0.000000e+00  5.000000e+00  0.000000e+00
     vertex  0.000000e+00  3.000000e+01  0.000000e+00
   endloop
 endfacet
 facet normal  0.000000e+00 -0.000000e+00 -1.000000e+00
   outer loop
     vertex  1.500000e+00  3.000000e+01  0.000000e+00
     vertex  1.150000e+01  5.000000e+00  0.000000e+00
     vertex  0.000000e+00  5.000000e+00  0.000000e+00
   endloop
 endfacet
 facet normal  0.000000e+00  0.000000e+00 -1.000000e+00
   outer loop
     vertex  1.050000e+01  3.000000e+01  0.000000e+00
     vertex  1.200000e+01  5.000000e+00  0.000000e+00
     vertex  1.150000e+01  5.000000e+00  0.000000e+00
   endloop
 endfacet
 facet normal -0.000000e+00 -0.000000e+00 -1.000000e+00
   outer loop
     vertex  1.050000e+01  3.000000e+01  0.000000e+00
     vertex  1.150000e+01  5.000000e+00  0.000000e+00
     vertex  1.500000e+00  3.000000e+01  0.000000e+00
   endloop
 endfacet
 facet normal  0.000000e+00 -0.000000e+00 -1.000000e+00
   outer loop
     vertex  1.950000e+01  3.000000e+01  0.000000e+00
     vertex  2.500000e+01  5.000000e+00  0.000000e+00
     vertex  1.200000e+01  5.000000e+00  0.000000e+00
   endloop
 endfacet
 facet normal -0.000000e+00  0.000000e+00 -1.000000e+00
   outer loop
     vertex  1.950000e+01  3.000000e+01  0.000000e+00
     vertex  1.200000e+01  5.000000e+00  0.000000e+00
     vertex  1.050000e+01  3.000000e+01  0.000000e+00
   endloop
 endfacet
 facet normal  0.000000e+00  0.000000e+00 -1.000000e+00
   outer loop
     vertex  5.000000e+01  0.000000e+00  0.000000e+00
     vertex  3.850000e+01  0.000000e+00  0.000000e+00
     vertex  3.850000e+01  5.000000e+00  0.000000e+00
   endloop
 endfacet
 facet normal  0.000000e+00 -0.000000e+00 -1.000000e+00
   outer loop
     vertex  2.850000e+01  3.000000e+01  0.000000e+00
     vertex  3.850000e+01  5.000000e+00  0.000000e+00
     vertex  2.550000e+01  5.000000e+00  0.000000e+00
   endloop
 endfacet
 facet normal  0.000000e+00  0.000000e+00 -1.000000e+00
   outer loop
     vertex  2.850000e+01  3.000000e+01  0.000000e+00
     vertex  2.550000e+01  5.000000e+00  0.000000e+00
     vertex  2.500000e+01  5.000000e+00  0.000000e+00
   endloop
 endfacet
 facet normal -0.000000e+00  0.000000e+00 -1.000000e+00
   outer loop
     vertex  2.850000e+01  3.000000e+01  0.000000e+00
     vertex  2.500000e+01  5.000000e+00  0.000000e+00
     vertex  1.950000e+01  3.000000e+01  0.000000e+00
   endloop
 endfacet
 facet normal -0.000000e+00 -0.000000e+00 -1.000000e+00
   outer loop
     vertex  3.750000e+01  3.000000e+01  0.000000e+00
     vertex  3.850000e+01  5.000000e+00  0.000000e+00
     vertex  2.850000e+01  3.000000e+01  0.000000e+00
   endloop
 endfacet
 facet normal  0.000000e+00 -0.000000e+00 -1.000000e+00
   outer loop
     vertex  5.000000e+01  3.000000e+01  0.000000e+00
     vertex  5.000000e+01  0.000000e+00  0.000000e+00
     vertex  3.850000e+01  5.000000e+00  0.000000e+00
   endloop
 endfacet
 facet normal -0.000000e+00  0.000000e+00 -1.000000e+00
   outer loop
     vertex  5.000000e+01  3.000000e+01  0.000000e+00
     vertex  3.850000e+01  5.000000e+00  0.000000e+00
     vertex  3.750000e+01  3.000000e+01  0.000000e+00
   endloop
 endfacet
 facet normal  0.000000e+00 -1.000000e+00 -0.000000e+00
   outer loop
     vertex  1.150000e+01  5.000000e+00  1.000000e+01
     vertex  0.000000e+00  5.000000e+00  0.000000e+00
     vertex  1.150000e+01  5.000000e+00  0.000000e+00
   endloop
 endfacet
 facet normal -0.000000e+00 -1.000000e+00  0.000000e+00
   outer loop
     vertex  1.150000e+01  5.000000e+00  1.000000e+01
     vertex  0.000000e+00  5.000000e+00  1.000000e+01
     vertex  0.000000e+00  5.000000e+00  0.000000e+00
   endloop
 endfacet
 facet normal -0.000000e+00  0.000000e+00 -1.000000e+00
   outer loop
     vertex  1.150000e+01  5.000000e+00  1.000000e+01
     vertex  0.000000e+00  0.000000e+00  1.000000e+01
     vertex  0.000000e+00  5.000000e+00  1.000000e+01
   endloop
 endfacet
 facet normal  0.000000e+00 -0.000000e+00 -1.000000e+00
   outer loop
     vertex  1.150000e+01  5.000000e+00  1.000000e+01
     vertex  1.150000e+01  0.000000e+00  1.000000e+01
     vertex  0.000000e+00  0.000000e+00  1.000000e+01
   endloop
 endfacet
 facet normal  1.000000e+00  0.000000e+00  0.000000e+00
   outer loop
     vertex  1.200000e+01  0.000000e+00  1.000000e+01
     vertex  1.200000e+01  0.000000e+00  0.000000e+00
     vertex  1.200000e+01  5.000000e+00  0.000000e+00
   endloop
 endfacet
 facet normal  1.000000e+00 -0.000000e+00  0.000000e+00
   outer loop
     vertex  1.200000e+01  0.000000e+00  1.000000e+01
     vertex  1.200000e+01  5.000000e+00  0.000000e+00
     vertex  1.200000e+01  5.000000e+00  1.000000e+01
   endloop
 endfacet
 facet normal -0.000000e+00  0.000000e+00 -1.000000e+00
   outer loop
     vertex  2.500000e+01  5.000000e+00  1.000000e+01
     vertex  1.200000e+01  0.000000e+00  1.000000e+01
     vertex  1.200000e+01  5.000000e+00  1.000000e+01
   endloop
 endfacet
 facet normal  0.000000e+00 -0.000000e+00 -1.000000e+00
   outer loop
     vertex  2.500000e+01  5.000000e+00  1.000000e+01
     vertex  2.500000e+01  0.000000e+00  1.000000e+01
     vertex  1.200000e+01  0.000000e+00  1.000000e+01
   endloop
 endfacet
 facet normal -1.000000e+00  0.000000e+00  0.000000e+00
   outer loop
     vertex  2.500000e+01  0.000000e+00  1.000000e+01
     vertex  2.500000e+01  5.000000e+00  0.000000e+00
     vertex  2.500000e+01  0.000000e+00  0.000000e+00
   endloop
 endfacet
 facet normal -1.000000e+00  0.000000e+00  0.000000e+00
   outer loop
     vertex  2.500000e+01  0.000000e+00  1.000000e+01
     vertex  2.500000e+01  5.000000e+00  1.000000e+01
     vertex  2.500000e+01  5.000000e+00  0.000000e+00
   endloop
 endfacet
 facet normal  1.000000e+00  0.000000e+00  0.000000e+00
   outer loop
     vertex  2.550000e+01  0.000000e+00  1.000000e+01
     vertex  2.550000e+01  0.000000e+00  0.000000e+00
     vertex  2.550000e+01  5.000000e+00  0.000000e+00
   endloop
 endfacet
 facet normal  1.000000e+00 -0.000000e+00  0.000000e+00
   outer loop
     vertex  2.550000e+01  0.000000e+00  1.000000e+01
     vertex  2.550000e+01  5.000000e+00  0.000000e+00
     vertex  2.550000e+01  5.000000e+00  1.000000e+01
   endloop
 endfacet
 facet normal -0.000000e+00  0.000000e+00 -1.000000e+00
   outer loop
     vertex  3.850000e+01  5.000000e+00  1.000000e+01
     vertex  2.550000e+01  0.000000e+00  1.000000e+01
     vertex  2.550000e+01  5.000000e+00  1.000000e+01
   endloop
 endfacet
 facet normal  0.000000e+00 -0.000000e+00 -1.000000e+00
   outer loop
     vertex  3.850000e+01  5.000000e+00  1.000000e+01
     vertex  3.850000e+01  0.000000e+00  1.000000e+01
     vertex  2.550000e+01  0.000000e+00  1.000000e+01
   endloop
 endfacet
 facet normal -1.000000e+00  0.000000e+00  0.000000e+00
   outer loop
     vertex  3.850000e+01  0.000000e+00  1.000000e+01
     vertex  3.850000e+01  5.000000e+00  0.000000e+00
     vertex  3.850000e+01  0.000000e+00  0.000000e+00
   endloop
 endfacet
 facet normal -1.000000e+00  0.000000e+00  0.000000e+00
   outer loop
     vertex  3.850000e+01  0.000000e+00  1.000000e+01
     vertex  3.850000e+01  5.000000e+00  1.000000e+01
     vertex  3.850000e+01  5.000000e+00  0.000000e+00
   endloop
 endfacet
 facet normal  1.000000e+00  0.000000e+00  0.000000e+00
   outer loop
     vertex  5.000000e+01  0.000000e+00  0.000000e+00
     vertex  5.000000e+01  3.000000e+01  0.000000e+00
     vertex  5.000000e+01  3.000000e+01  1.500000e+01
   endloop
 endfacet
 facet normal  1.000000e+00 -0.000000e+00  0.000000e+00
   outer loop
     vertex  5.000000e+01  0.000000e+00  1.500000e+01
     vertex  5.000000e+01  0.000000e+00  0.000000e+00
     vertex  5.000000e+01  3.000000e+01  1.500000e+01
   endloop
 endfacet
 facet normal -1.000000e+00  0.000000e+00  0.000000e+00
   outer loop
     vertex  1.150000e+01  0.000000e+00  1.000000e+01
     vertex  1.150000e+01  5.000000e+00  0.000000e+00
     vertex  1.150000e+01  0.000000e+00  0.000000e+00
   endloop
 endfacet
 facet normal -1.000000e+00  0.000000e+00  0.000000e+00
   outer loop
     vertex  1.150000e+01  0.000000e+00  1.000000e+01
     vertex  1.150000e+01  5.000000e+00  1.000000e+01
     vertex  1.150000e+01  5.000000e+00  0.000000e+00
   endloop
 endfacet
 facet normal  0.000000e+00 -1.000000e+00 -0.000000e+00
   outer loop
     vertex  5.000000e+01  3.000000e+01  2.500000e+01
     vertex  0.000000e+00  3.000000e+01  1.500000e+01
     vertex  5.000000e+01  3.000000e+01  1.500000e+01
   endloop
 endfacet
 facet normal -0.000000e+00 -1.000000e+00  0.000000e+00
   outer loop
     vertex  5.000000e+01  3.000000e+01  2.500000e+01
     vertex  0.000000e+00  3.000000e+01  2.500000e+01
     vertex  0.000000e+00  3.000000e+01  1.500000e+01
   endloop
 endfacet
 facet normal  0.000000e+00  0.000000e+00  1.000000e+00
   outer loop
     vertex  5.000000e+01  6.000000e+01  2.500000e+01
     vertex  0.000000e+00  6.000000e+01  2.500000e+01
     vertex  0.000000e+00  3.000000e+01  2.500000e+01
   endloop
 endfacet
 facet normal  0.000000e+00  0.000000e+00  1.000000e+00
   outer loop
     vertex  5.000000e+01  6.000000e+01  2.500000e+01
     vertex  0.000000e+00  3.000000e+01  2.500000e+01
     vertex  5.000000e+01  3.000000e+01  2.500000e+01
   endloop
 endfacet
 facet normal  0.000000e+00  1.000000e+00  0.000000e+00
   outer loop
     vertex  5.000000e+01  6.000000e+01  2.500000e+01
     vertex  5.000000e+01  6.000000e+01  0.000000e+00
     vertex  0.000000e+00  6.000000e+01  0.000000e+00
   endloop
 endfacet
 facet normal  0.000000e+00  1.000000e+00  0.000000e+00
   outer loop
     vertex  5.000000e+01  6.000000e+01  2.500000e+01
     vertex  0.000000e+00  6.000000e+01  0.000000e+00
     vertex  0.000000e+00  6.000000e+01  2.500000e+01
   endloop
 endfacet
 facet normal  0.000000e+00 -0.000000e+00 -1.000000e+00
   outer loop
     vertex  1.500000e+00  3.400000e+01  0.000000e+00
     vertex  1.500000e+00  3.000000e+01  0.000000e+00
     vertex  0.000000e+00  3.000000e+01  0.000000e+00
   endloop
 endfacet
 facet normal  0.000000e+00  0.000000e+00 -1.000000e+00
   outer loop
     vertex  0.000000e+00  6.000000e+01  0.000000e+00
     vertex  1.050000e+01  3.400000e+01  0.000000e+00
     vertex  1.500000e+00  3.400000e+01  0.000000e+00
   endloop
 endfacet
 facet normal  0.000000e+00  0.000000e+00 -1.000000e+00
   outer loop
     vertex  0.000000e+00  6.000000e+01  0.000000e+00
     vertex  1.950000e+01  3.400000e+01  0.000000e+00
     vertex  1.050000e+01  3.400000e+01  0.000000e+00
   endloop
 endfacet
 facet normal  0.000000e+00  0.000000e+00 -1.000000e+00
   outer loop
     vertex  0.000000e+00  6.000000e+01  0.000000e+00
     vertex  1.500000e+00  3.400000e+01  0.000000e+00
     vertex  0.000000e+00  3.000000e+01  0.000000e+00
   endloop
 endfacet
 facet normal  0.000000e+00  0.000000e+00 -1.000000e+00
   outer loop
     vertex  2.850000e+01  3.400000e+01  0.000000e+00
     vertex  1.950000e+01  3.400000e+01  0.000000e+00
     vertex  0.000000e+00  6.000000e+01  0.000000e+00
   endloop
 endfacet
 facet normal  0.000000e+00  0.000000e+00 -1.000000e+00
   outer loop
     vertex  5.000000e+01  3.000000e+01  0.000000e+00
     vertex  3.750000e+01  3.000000e+01  0.000000e+00
     vertex  3.750000e+01  3.400000e+01  0.000000e+00
   endloop
 endfacet
 facet normal  0.000000e+00  0.000000e+00 -1.000000e+00
   outer loop
     vertex  5.000000e+01  6.000000e+01  0.000000e+00
     vertex  3.750000e+01  3.400000e+01  0.000000e+00
     vertex  2.850000e+01  3.400000e+01  0.000000e+00
   endloop
 endfacet
 facet normal -0.000000e+00  0.000000e+00 -1.000000e+00
   outer loop
     vertex  5.000000e+01  6.000000e+01  0.000000e+00
     vertex  2.850000e+01  3.400000e+01  0.000000e+00
     vertex  0.000000e+00  6.000000e+01  0.000000e+00
   endloop
 endfacet
 facet normal  0.000000e+00 -0.000000e+00 -1.000000e+00
   outer loop
     vertex  5.000000e+01  6.000000e+01  0.000000e+00
     vertex  5.000000e+01  3.000000e+01  0.000000e+00
     vertex  3.750000e+01  3.400000e+01  0.000000e+00
   endloop
 endfacet
 facet normal  0.000000e+00  1.000000e+00  0.000000e+00
   outer loop
     vertex  1.050000e+01  3.000000e+01  1.000000e+01
     vertex  1.050000e+01  3.000000e+01  0.000000e+00
     vertex  1.500000e+00  3.000000e+01  0.000000e+00
   endloop
 endfacet
 facet normal  0.000000e+00  1.000000e+00  0.000000e+00
   outer loop
     vertex  1.050000e+01  3.000000e+01  1.000000e+01
     vertex  1.500000e+00  3.000000e+01  0.000000e+00
     vertex  1.500000e+00  3.000000e+01  1.000000e+01
   endloop
 endfacet
 facet normal  0.000000e+00  1.000000e+00  0.000000e+00
   outer loop
     vertex  1.950000e+01  3.000000e+01  1.000000e+01
     vertex  1.950000e+01  3.000000e+01  0.000000e+00
     vertex  1.050000e+01  3.000000e+01  0.000000e+00
   endloop
 endfacet
 facet normal  0.000000e+00  1.000000e+00  0.000000e+00
   outer loop
     vertex  1.950000e+01  3.000000e+01  1.000000e+01
     vertex  1.050000e+01  3.000000e+01  0.000000e+00
     vertex  1.050000e+01  3.000000e+01  1.000000e+01
   endloop
 endfacet
 facet normal  0.000000e+00  1.000000e+00  0.000000e+00
   outer loop
     vertex  2.850000e+01  3.000000e+01  1.000000e+01
     vertex  2.850000e+01  3.000000e+01  0.000000e+00
     vertex  1.950000e+01  3.000000e+01  0.000000e+00
   endloop
 endfacet
 facet normal  0.000000e+00  1.000000e+00  0.000000e+00
   outer loop
     vertex  2.850000e+01  3.000000e+01  1.000000e+01
     vertex  1.950000e+01  3.000000e+01  0.000000e+00
     vertex  1.950000e+01  3.000000e+01  1.000000e+01
   endloop
 endfacet
 facet normal  0.000000e+00  1.000000e+00  0.000000e+00
   outer loop
     vertex  3.750000e+01  3.000000e+01  1.000000e+01
     vertex  3.750000e+01  3.000000e+01  0.000000e+00
     vertex  2.850000e+01  3.000000e+01  0.000000e+00
   endloop
 endfacet
 facet normal  0.000000e+00  1.000000e+00  0.000000e+00
   outer loop
     vertex  3.750000e+01  3.000000e+01  1.000000e+01
     vertex  2.850000e+01  3.000000e+01  0.000000e+00
     vertex  2.850000e+01  3.000000e+01  1.000000e+01
   endloop
 endfacet
 facet normal  0.000000e+00 -1.000000e+00 -0.000000e+00
   outer loop
     vertex  3.850000e+01  5.000000e+00  1.000000e+01
     vertex  2.550000e+01  5.000000e+00  0.000000e+00
     vertex  3.850000e+01  5.000000e+00  0.000000e+00
   endloop
 endfacet
 facet normal -0.000000e+00 -1.000000e+00  0.000000e+00
   outer loop
     vertex  3.850000e+01  5.000000e+00  1.000000e+01
     vertex  2.550000e+01  5.000000e+00  1.000000e+01
     vertex  2.550000e+01  5.000000e+00  0.000000e+00
   endloop
 endfacet
 facet normal  0.000000e+00 -1.000000e+00 -0.000000e+00
   outer loop
     vertex  2.500000e+01  5.000000e+00  1.000000e+01
     vertex  1.200000e+01  5.000000e+00  0.000000e+00
     vertex  2.500000e+01  5.000000e+00  0.000000e+00
   endloop
 endfacet
 facet normal -0.000000e+00 -1.000000e+00  0.000000e+00
   outer loop
     vertex  2.500000e+01  5.000000e+00  1.000000e+01
     vertex  1.200000e+01  5.000000e+00  1.000000e+01
     vertex  1.200000e+01  5.000000e+00  0.000000e+00
   endloop
 endfacet
 facet normal  1.000000e+00  0.000000e+00  0.000000e+00
   outer loop
     vertex  5.000000e+01  3.000000e+01  1.500000e+01
     vertex  5.000000e+01  3.000000e+01  0.000000e+00
     vertex  5.000000e+01  6.000000e+01  0.000000e+00
   endloop
 endfacet
 facet normal  1.000000e+00 -0.000000e+00  0.000000e+00
   outer loop
     vertex  5.000000e+01  3.000000e+01  1.500000e+01
     vertex  5.000000e+01  6.000000e+01  0.000000e+00
     vertex  5.000000e+01  6.000000e+01  2.500000e+01
   endloop
 endfacet
 facet normal  1.000000e+00 -0.000000e+00  0.000000e+00
   outer loop
     vertex  5.000000e+01  3.000000e+01  2.500000e+01
     vertex  5.000000e+01  3.000000e+01  1.500000e+01
     vertex  5.000000e+01  6.000000e+01  2.500000e+01
   endloop
 endfacet
 facet normal -1.000000e+00  0.000000e+00  0.000000e+00
   outer loop
     vertex  3.750000e+01  3.000000e+01  1.000000e+01
     vertex  3.750000e+01  3.400000e+01  0.000000e+00
     vertex  3.750000e+01  3.000000e+01  0.000000e+00
   endloop
 endfacet
 facet normal -1.000000e+00  0.000000e+00  0.000000e+00
   outer loop
     vertex  3.750000e+01  3.000000e+01  1.000000e+01
     vertex  3.750000e+01  3.400000e+01  1.000000e+01
     vertex  3.750000e+01  3.400000e+01  0.000000e+00
   endloop
 endfacet
 facet normal  0.000000e+00 -1.000000e+00 -0.000000e+00
   outer loop
     vertex  3.750000e+01  3.400000e+01  1.000000e+01
     vertex  2.850000e+01  3.400000e+01  0.000000e+00
     vertex  3.750000e+01  3.400000e+01  0.000000e+00
   endloop
 endfacet
 facet normal -0.000000e+00 -1.000000e+00  0.000000e+00
   outer loop
     vertex  3.750000e+01  3.400000e+01  1.000000e+01
     vertex  2.850000e+01  3.400000e+01  1.000000e+01
     vertex  2.850000e+01  3.400000e+01  0.000000e+00
   endloop
 endfacet
 facet normal  0.000000e+00 -1.000000e+00 -0.000000e+00
   outer loop
     vertex  2.850000e+01  3.400000e+01  1.000000e+01
     vertex  1.950000e+01  3.400000e+01  0.000000e+00
     vertex  2.850000e+01  3.400000e+01  0.000000e+00
   endloop
 endfacet
 facet normal -0.000000e+00 -1.000000e+00  0.000000e+00
   outer loop
     vertex  2.850000e+01  3.400000e+01  1.000000e+01
     vertex  1.950000e+01  3.400000e+01  1.000000e+01
     vertex  1.950000e+01  3.400000e+01  0.000000e+00
   endloop
 endfacet
 facet normal  0.000000e+00 -1.000000e+00 -0.000000e+00
   outer loop
     vertex  1.950000e+01  3.400000e+01  1.000000e+01
     vertex  1.050000e+01  3.400000e+01  0.000000e+00
     vertex  1.950000e+01  3.400000e+01  0.000000e+00
   endloop
 endfacet
 facet normal -0.000000e+00 -1.000000e+00  0.000000e+00
   outer loop
     vertex  1.950000e+01  3.400000e+01  1.000000e+01
     vertex  1.050000e+01  3.400000e+01  1.000000e+01
     vertex  1.050000e+01  3.400000e+01  0.000000e+00
   endloop
 endfacet
 facet normal  0.000000e+00 -1.000000e+00 -0.000000e+00
   outer loop
     vertex  1.050000e+01  3.400000e+01  1.000000e+01
     vertex  1.500000e+00  3.400000e+01  0.000000e+00
     vertex  1.050000e+01  3.400000e+01  0.000000e+00
   endloop
 endfacet
 facet normal -0.000000e+00 -1.000000e+00  0.000000e+00
   outer loop
     vertex  1.050000e+01  3.400000e+01  1.000000e+01
     vertex  1.500000e+00  3.400000e+01  1.000000e+01
     vertex  1.500000e+00  3.400000e+01  0.000000e+00
   endloop
 endfacet
 facet normal  1.000000e+00  0.000000e+00  0.000000e+00
   outer loop
     vertex  1.500000e+00  3.000000e+01  1.000000e+01
     vertex  1.500000e+00  3.000000e+01  0.000000e+00
     vertex  1.500000e+00  3.400000e+01  0.000000e+00
   endloop
 endfacet
 facet normal  1.000000e+00 -0.000000e+00  0.000000e+00
   outer loop
     vertex  1.500000e+00  3.000000e+01  1.000000e+01
     vertex  1.500000e+00  3.400000e+01  0.000000e+00
     vertex  1.500000e+00  3.400000e+01  1.000000e+01
   endloop
 endfacet
 facet normal -0.000000e+00  0.000000e+00 -1.000000e+00
   outer loop
     vertex  1.050000e+01  3.400000e+01  1.000000e+01
     vertex  1.500000e+00  3.000000e+01  1.000000e+01
     vertex  1.500000e+00  3.400000e+01  1.000000e+01
   endloop
 endfacet
 facet normal  0.000000e+00 -0.000000e+00 -1.000000e+00
   outer loop
     vertex  1.050000e+01  3.400000e+01  1.000000e+01
     vertex  1.050000e+01  3.000000e+01  1.000000e+01
     vertex  1.500000e+00  3.000000e+01  1.000000e+01
   endloop
 endfacet
 facet normal  0.000000e+00  0.000000e+00 -1.000000e+00
   outer loop
     vertex  1.950000e+01  3.000000e+01  1.000000e+01
     vertex  1.050000e+01  3.000000e+01  1.000000e+01
     vertex  1.050000e+01  3.400000e+01  1.000000e+01
   endloop
 endfacet
 facet normal -0.000000e+00 -0.000000e+00 -1.000000e+00
   outer loop
     vertex  1.950000e+01  3.400000e+01  1.000000e+01
     vertex  1.950000e+01  3.000000e+01  1.000000e+01
     vertex  1.050000e+01  3.400000e+01  1.000000e+01
   endloop
 endfacet
 facet normal  0.000000e+00  0.000000e+00 -1.000000e+00
   outer loop
     vertex  2.850000e+01  3.000000e+01  1.000000e+01
     vertex  1.950000e+01  3.000000e+01  1.000000e+01
     vertex  1.950000e+01  3.400000e+01  1.000000e+01
   endloop
 endfacet
 facet normal -0.000000e+00 -0.000000e+00 -1.000000e+00
   outer loop
     vertex  2.850000e+01  3.400000e+01  1.000000e+01
     vertex  2.850000e+01  3.000000e+01  1.000000e+01
     vertex  1.950000e+01  3.400000e+01  1.000000e+01
   endloop
 endfacet
 facet normal  0.000000e+00  0.000000e+00 -1.000000e+00
   outer loop
     vertex  3.750000e+01  3.000000e+01  1.000000e+01
     vertex  2.850000e+01  3.000000e+01  1.000000e+01
     vertex  2.850000e+01  3.400000e+01  1.000000e+01
   endloop
 endfacet
 facet normal -0.000000e+00 -0.000000e+00 -1.000000e+00
   outer loop
     vertex  3.750000e+01  3.400000e+01  1.000000e+01
     vertex  3.750000e+01  3.000000e+01  1.000000e+01
     vertex  2.850000e+01  3.400000e+01  1.000000e+01
   endloop
 endfacet
endsolid
