solid 
 facet normal  0.000000e+00  0.000000e+00 -1.000000e+00
   outer loop
     vertex  0.000000e+00  2.000000e+01  0.000000e+00
     vertex  6.000000e+01  0.000000e+00  0.000000e+00
     vertex  0.000000e+00  0.000000e+00  0.000000e+00
   endloop
 endfacet
 facet normal  0.000000e+00  0.000000e+00 -1.000000e+00
   outer loop
     vertex  0.000000e+00  2.000000e+01  0.000000e+00
     vertex  6.000000e+01  2.000000e+01  0.000000e+00
     vertex  6.000000e+01  0.000000e+00  0.000000e+00
   endloop
 endfacet
 facet normal  0.000000e+00 -1.000000e+00  0.000000e+00
   outer loop
     vertex  0.000000e+00  0.000000e+00  0.000000e+00
     vertex  6.000000e+01  0.000000e+00  6.000000e+01
     vertex  0.000000e+00  0.000000e+00  6.000000e+01
   endloop
 endfacet
 facet normal  0.000000e+00 -1.000000e+00  0.000000e+00
   outer loop
     vertex  0.000000e+00  0.000000e+00  0.000000e+00
     vertex  6.000000e+01  0.000000e+00  0.000000e+00
     vertex  6.000000e+01  0.000000e+00  6.000000e+01
   endloop
 endfacet
 facet normal  0.000000e+00  1.000000e+00  0.000000e+00
   outer loop
     vertex  0.000000e+00  2.000000e+01  1.500000e+01
     vertex  6.000000e+01  2.000000e+01  0.000000e+00
     vertex  0.000000e+00  2.000000e+01  0.000000e+00
   endloop
 endfacet
 facet normal -0.000000e+00  1.000000e+00  0.000000e+00
   outer loop
     vertex  0.000000e+00  2.000000e+01  1.500000e+01
     vertex  6.000000e+01  2.000000e+01  1.500000e+01
     vertex  6.000000e+01  2.000000e+01  0.000000e+00
   endloop
 endfacet
 facet normal -1.000000e+00  0.000000e+00  0.000000e+00
   outer loop
     vertex  0.000000e+00  7.366308e+01  5.000000e+01
     vertex  0.000000e+00  7.566308e+01  5.000000e+01
     vertex  0.000000e+00  8.000000e+01  4.500000e+01
   endloop
 endfacet
 facet normal -1.000000e+00  0.000000e+00 -0.000000e+00
   outer loop
     vertex  0.000000e+00  8.000000e+01  6.000000e+01
     vertex  0.000000e+00  8.000000e+01  4.500000e+01
     vertex  0.000000e+00  7.566308e+01  5.000000e+01
   endloop
 endfacet
 facet normal -1.000000e+00  0.000000e+00  0.000000e+00
   outer loop
     vertex  0.000000e+00  5.366308e+01  3.500000e+01
     vertex  0.000000e+00  5.566308e+01  3.500000e+01
     vertex  0.000000e+00  6.000000e+01  3.000000e+01
   endloop
 endfacet
 facet normal -1.000000e+00  0.000000e+00  0.000000e+00
   outer loop
     vertex  0.000000e+00  6.000000e+01  4.500000e+01
     vertex  0.000000e+00  7.366308e+01  5.000000e+01
     vertex  0.000000e+00  8.000000e+01  4.500000e+01
   endloop
 endfacet
 facet normal -1.000000e+00  0.000000e+00 -0.000000e+00
   outer loop
     vertex  0.000000e+00  6.000000e+01  4.500000e+01
     vertex  0.000000e+00  6.000000e+01  3.000000e+01
     vertex  0.000000e+00  5.566308e+01  3.500000e+01
   endloop
 endfacet
 facet normal -1.000000e+00  0.000000e+00  0.000000e+00
   outer loop
     vertex  0.000000e+00  3.366308e+01  2.000000e+01
     vertex  0.000000e+00  3.566308e+01  2.000000e+01
     vertex  0.000000e+00  4.000000e+01  1.500000e+01
   endloop
 endfacet
 facet normal -1.000000e+00  0.000000e+00  0.000000e+00
   outer loop
     vertex  0.000000e+00  7.100000e+01  6.000000e+01
     vertex  0.000000e+00  8.000000e+01  6.000000e+01
     vertex  0.000000e+00  7.566308e+01  5.000000e+01
   endloop
 endfacet
 facet normal -1.000000e+00  0.000000e+00  0.000000e+00
   outer loop
     vertex  0.000000e+00  4.000000e+01  3.000000e+01
     vertex  0.000000e+00  5.366308e+01  3.500000e+01
     vertex  0.000000e+00  6.000000e+01  3.000000e+01
   endloop
 endfacet
 facet normal -1.000000e+00  0.000000e+00 -0.000000e+00
   outer loop
     vertex  0.000000e+00  4.000000e+01  3.000000e+01
     vertex  0.000000e+00  4.000000e+01  1.500000e+01
     vertex  0.000000e+00  3.566308e+01  2.000000e+01
   endloop
 endfacet
 facet normal -1.000000e+00  0.000000e+00 -0.000000e+00
   outer loop
     vertex  0.000000e+00  6.900000e+01  6.000000e+01
     vertex  0.000000e+00  7.366308e+01  5.000000e+01
     vertex  0.000000e+00  6.000000e+01  4.500000e+01
   endloop
 endfacet
 facet normal -1.000000e+00  0.000000e+00  0.000000e+00
   outer loop
     vertex  0.000000e+00  1.366308e+01  5.000000e+00
     vertex  0.000000e+00  1.566308e+01  5.000000e+00
     vertex  0.000000e+00  2.000000e+01  0.000000e+00
   endloop
 endfacet
 facet normal -1.000000e+00  0.000000e+00  0.000000e+00
   outer loop
     vertex  0.000000e+00  5.100000e+01  4.500000e+01
     vertex  0.000000e+00  6.000000e+01  4.500000e+01
     vertex  0.000000e+00  5.566308e+01  3.500000e+01
   endloop
 endfacet
 facet normal -1.000000e+00  0.000000e+00  0.000000e+00
   outer loop
     vertex  0.000000e+00  5.100000e+01  4.500000e+01
     vertex  0.000000e+00  6.900000e+01  6.000000e+01
     vertex  0.000000e+00  6.000000e+01  4.500000e+01
   endloop
 endfacet
 facet normal -1.000000e+00  0.000000e+00  0.000000e+00
   outer loop
     vertex  0.000000e+00  2.000000e+01  1.500000e+01
     vertex  0.000000e+00  3.366308e+01  2.000000e+01
     vertex  0.000000e+00  4.000000e+01  1.500000e+01
   endloop
 endfacet
 facet normal -1.000000e+00  0.000000e+00 -0.000000e+00
   outer loop
     vertex  0.000000e+00  2.000000e+01  1.500000e+01
     vertex  0.000000e+00  2.000000e+01  0.000000e+00
     vertex  0.000000e+00  1.566308e+01  5.000000e+00
   endloop
 endfacet
 facet normal -1.000000e+00  0.000000e+00 -0.000000e+00
   outer loop
     vertex  0.000000e+00  4.900000e+01  4.500000e+01
     vertex  0.000000e+00  5.366308e+01  3.500000e+01
     vertex  0.000000e+00  4.000000e+01  3.000000e+01
   endloop
 endfacet
 facet normal -1.000000e+00  0.000000e+00  0.000000e+00
   outer loop
     vertex  0.000000e+00  4.900000e+01  4.500000e+01
     vertex  0.000000e+00  6.900000e+01  6.000000e+01
     vertex  0.000000e+00  5.100000e+01  4.500000e+01
   endloop
 endfacet
 facet normal -1.000000e+00  0.000000e+00  0.000000e+00
   outer loop
     vertex  0.000000e+00  3.100000e+01  3.000000e+01
     vertex  0.000000e+00  4.000000e+01  3.000000e+01
     vertex  0.000000e+00  3.566308e+01  2.000000e+01
   endloop
 endfacet
 facet normal -1.000000e+00  0.000000e+00  0.000000e+00
   outer loop
     vertex  0.000000e+00  3.100000e+01  3.000000e+01
     vertex  0.000000e+00  4.900000e+01  4.500000e+01
     vertex  0.000000e+00  4.000000e+01  3.000000e+01
   endloop
 endfacet
 facet normal -1.000000e+00  0.000000e+00  0.000000e+00
   outer loop
     vertex  0.000000e+00  0.000000e+00  0.000000e+00
     vertex  0.000000e+00  1.366308e+01  5.000000e+00
     vertex  0.000000e+00  2.000000e+01  0.000000e+00
   endloop
 endfacet
 facet normal -1.000000e+00  0.000000e+00 -0.000000e+00
   outer loop
     vertex  0.000000e+00  2.900000e+01  3.000000e+01
     vertex  0.000000e+00  3.366308e+01  2.000000e+01
     vertex  0.000000e+00  2.000000e+01  1.500000e+01
   endloop
 endfacet
 facet normal -1.000000e+00  0.000000e+00  0.000000e+00
   outer loop
     vertex  0.000000e+00  2.900000e+01  3.000000e+01
     vertex  0.000000e+00  4.900000e+01  4.500000e+01
     vertex  0.000000e+00  3.100000e+01  3.000000e+01
   endloop
 endfacet
 facet normal -1.000000e+00  0.000000e+00  0.000000e+00
   outer loop
     vertex  0.000000e+00  1.100000e+01  1.500000e+01
     vertex  0.000000e+00  2.000000e+01  1.500000e+01
     vertex  0.000000e+00  1.566308e+01  5.000000e+00
   endloop
 endfacet
 facet normal -1.000000e+00  0.000000e+00  0.000000e+00
   outer loop
     vertex  0.000000e+00  1.100000e+01  1.500000e+01
     vertex  0.000000e+00  2.900000e+01  3.000000e+01
     vertex  0.000000e+00  2.000000e+01  1.500000e+01
   endloop
 endfacet
 facet normal -1.000000e+00  0.000000e+00 -0.000000e+00
   outer loop
     vertex  0.000000e+00  9.000000e+00  1.500000e+01
     vertex  0.000000e+00  1.366308e+01  5.000000e+00
     vertex  0.000000e+00  0.000000e+00  0.000000e+00
   endloop
 endfacet
 facet normal -1.000000e+00  0.000000e+00  0.000000e+00
   outer loop
     vertex  0.000000e+00  9.000000e+00  1.500000e+01
     vertex  0.000000e+00  2.900000e+01  3.000000e+01
     vertex  0.000000e+00  1.100000e+01  1.500000e+01
   endloop
 endfacet
 facet normal -1.000000e+00  0.000000e+00  0.000000e+00
   outer loop
     vertex  0.000000e+00  0.000000e+00  6.000000e+01
     vertex  0.000000e+00  4.900000e+01  4.500000e+01
     vertex  0.000000e+00  2.900000e+01  3.000000e+01
   endloop
 endfacet
 facet normal -1.000000e+00  0.000000e+00  0.000000e+00
   outer loop
     vertex  0.000000e+00  0.000000e+00  6.000000e+01
     vertex  0.000000e+00  6.900000e+01  6.000000e+01
     vertex  0.000000e+00  4.900000e+01  4.500000e+01
   endloop
 endfacet
 facet normal -1.000000e+00  0.000000e+00  0.000000e+00
   outer loop
     vertex  0.000000e+00  0.000000e+00  6.000000e+01
     vertex  0.000000e+00  9.000000e+00  1.500000e+01
     vertex  0.000000e+00  0.000000e+00  0.000000e+00
   endloop
 endfacet
 facet normal -1.000000e+00  0.000000e+00  0.000000e+00
   outer loop
     vertex  0.000000e+00  0.000000e+00  6.000000e+01
     vertex  0.000000e+00  2.900000e+01  3.000000e+01
     vertex  0.000000e+00  9.000000e+00  1.500000e+01
   endloop
 endfacet
 facet normal  1.000000e+00 -0.000000e+00  0.000000e+00
   outer loop
     vertex  6.000000e+01  7.366308e+01  5.000000e+01
     vertex  6.000000e+01  8.000000e+01  4.500000e+01
     vertex  6.000000e+01  7.566308e+01  5.000000e+01
   endloop
 endfacet
 facet normal  1.000000e+00  0.000000e+00  0.000000e+00
   outer loop
     vertex  6.000000e+01  8.000000e+01  6.000000e+01
     vertex  6.000000e+01  7.566308e+01  5.000000e+01
     vertex  6.000000e+01  8.000000e+01  4.500000e+01
   endloop
 endfacet
 facet normal  1.000000e+00 -0.000000e+00  0.000000e+00
   outer loop
     vertex  6.000000e+01  5.366308e+01  3.500000e+01
     vertex  6.000000e+01  6.000000e+01  3.000000e+01
     vertex  6.000000e+01  5.566308e+01  3.500000e+01
   endloop
 endfacet
 facet normal  1.000000e+00  0.000000e+00  0.000000e+00
   outer loop
     vertex  6.000000e+01  6.000000e+01  4.500000e+01
     vertex  6.000000e+01  8.000000e+01  4.500000e+01
     vertex  6.000000e+01  7.366308e+01  5.000000e+01
   endloop
 endfacet
 facet normal  1.000000e+00  0.000000e+00  0.000000e+00
   outer loop
     vertex  6.000000e+01  6.000000e+01  4.500000e+01
     vertex  6.000000e+01  5.566308e+01  3.500000e+01
     vertex  6.000000e+01  6.000000e+01  3.000000e+01
   endloop
 endfacet
 facet normal  1.000000e+00 -0.000000e+00  0.000000e+00
   outer loop
     vertex  6.000000e+01  3.366308e+01  2.000000e+01
     vertex  6.000000e+01  4.000000e+01  1.500000e+01
     vertex  6.000000e+01  3.566308e+01  2.000000e+01
   endloop
 endfacet
 facet normal  1.000000e+00 -0.000000e+00  0.000000e+00
   outer loop
     vertex  6.000000e+01  7.100000e+01  6.000000e+01
     vertex  6.000000e+01  7.566308e+01  5.000000e+01
     vertex  6.000000e+01  8.000000e+01  6.000000e+01
   endloop
 endfacet
 facet normal  1.000000e+00  0.000000e+00  0.000000e+00
   outer loop
     vertex  6.000000e+01  4.000000e+01  3.000000e+01
     vertex  6.000000e+01  6.000000e+01  3.000000e+01
     vertex  6.000000e+01  5.366308e+01  3.500000e+01
   endloop
 endfacet
 facet normal  1.000000e+00  0.000000e+00  0.000000e+00
   outer loop
     vertex  6.000000e+01  4.000000e+01  3.000000e+01
     vertex  6.000000e+01  3.566308e+01  2.000000e+01
     vertex  6.000000e+01  4.000000e+01  1.500000e+01
   endloop
 endfacet
 facet normal  1.000000e+00  0.000000e+00  0.000000e+00
   outer loop
     vertex  6.000000e+01  6.900000e+01  6.000000e+01
     vertex  6.000000e+01  6.000000e+01  4.500000e+01
     vertex  6.000000e+01  7.366308e+01  5.000000e+01
   endloop
 endfacet
 facet normal  1.000000e+00 -0.000000e+00  0.000000e+00
   outer loop
     vertex  6.000000e+01  1.366308e+01  5.000000e+00
     vertex  6.000000e+01  2.000000e+01  0.000000e+00
     vertex  6.000000e+01  1.566308e+01  5.000000e+00
   endloop
 endfacet
 facet normal  1.000000e+00 -0.000000e+00  0.000000e+00
   outer loop
     vertex  6.000000e+01  5.100000e+01  4.500000e+01
     vertex  6.000000e+01  5.566308e+01  3.500000e+01
     vertex  6.000000e+01  6.000000e+01  4.500000e+01
   endloop
 endfacet
 facet normal  1.000000e+00  0.000000e+00  0.000000e+00
   outer loop
     vertex  6.000000e+01  5.100000e+01  4.500000e+01
     vertex  6.000000e+01  6.000000e+01  4.500000e+01
     vertex  6.000000e+01  6.900000e+01  6.000000e+01
   endloop
 endfacet
 facet normal  1.000000e+00  0.000000e+00  0.000000e+00
   outer loop
     vertex  6.000000e+01  2.000000e+01  1.500000e+01
     vertex  6.000000e+01  4.000000e+01  1.500000e+01
     vertex  6.000000e+01  3.366308e+01  2.000000e+01
   endloop
 endfacet
 facet normal  1.000000e+00  0.000000e+00  0.000000e+00
   outer loop
     vertex  6.000000e+01  2.000000e+01  1.500000e+01
     vertex  6.000000e+01  1.566308e+01  5.000000e+00
     vertex  6.000000e+01  2.000000e+01  0.000000e+00
   endloop
 endfacet
 facet normal  1.000000e+00  0.000000e+00  0.000000e+00
   outer loop
     vertex  6.000000e+01  4.900000e+01  4.500000e+01
     vertex  6.000000e+01  4.000000e+01  3.000000e+01
     vertex  6.000000e+01  5.366308e+01  3.500000e+01
   endloop
 endfacet
 facet normal  1.000000e+00  0.000000e+00  0.000000e+00
   outer loop
     vertex  6.000000e+01  4.900000e+01  4.500000e+01
     vertex  6.000000e+01  5.100000e+01  4.500000e+01
     vertex  6.000000e+01  6.900000e+01  6.000000e+01
   endloop
 endfacet
 facet normal  1.000000e+00 -0.000000e+00  0.000000e+00
   outer loop
     vertex  6.000000e+01  3.100000e+01  3.000000e+01
     vertex  6.000000e+01  3.566308e+01  2.000000e+01
     vertex  6.000000e+01  4.000000e+01  3.000000e+01
   endloop
 endfacet
 facet normal  1.000000e+00  0.000000e+00  0.000000e+00
   outer loop
     vertex  6.000000e+01  3.100000e+01  3.000000e+01
     vertex  6.000000e+01  4.000000e+01  3.000000e+01
     vertex  6.000000e+01  4.900000e+01  4.500000e+01
   endloop
 endfacet
 facet normal  1.000000e+00  0.000000e+00  0.000000e+00
   outer loop
     vertex  6.000000e+01  0.000000e+00  0.000000e+00
     vertex  6.000000e+01  2.000000e+01  0.000000e+00
     vertex  6.000000e+01  1.366308e+01  5.000000e+00
   endloop
 endfacet
 facet normal  1.000000e+00  0.000000e+00  0.000000e+00
   outer loop
     vertex  6.000000e+01  2.900000e+01  3.000000e+01
     vertex  6.000000e+01  2.000000e+01  1.500000e+01
     vertex  6.000000e+01  3.366308e+01  2.000000e+01
   endloop
 endfacet
 facet normal  1.000000e+00  0.000000e+00  0.000000e+00
   outer loop
     vertex  6.000000e+01  2.900000e+01  3.000000e+01
     vertex  6.000000e+01  3.100000e+01  3.000000e+01
     vertex  6.000000e+01  4.900000e+01  4.500000e+01
   endloop
 endfacet
 facet normal  1.000000e+00 -0.000000e+00  0.000000e+00
   outer loop
     vertex  6.000000e+01  1.100000e+01  1.500000e+01
     vertex  6.000000e+01  1.566308e+01  5.000000e+00
     vertex  6.000000e+01  2.000000e+01  1.500000e+01
   endloop
 endfacet
 facet normal  1.000000e+00  0.000000e+00  0.000000e+00
   outer loop
     vertex  6.000000e+01  1.100000e+01  1.500000e+01
     vertex  6.000000e+01  2.000000e+01  1.500000e+01
     vertex  6.000000e+01  2.900000e+01  3.000000e+01
   endloop
 endfacet
 facet normal  1.000000e+00  0.000000e+00  0.000000e+00
   outer loop
     vertex  6.000000e+01  9.000000e+00  1.500000e+01
     vertex  6.000000e+01  0.000000e+00  0.000000e+00
     vertex  6.000000e+01  1.366308e+01  5.000000e+00
   endloop
 endfacet
 facet normal  1.000000e+00  0.000000e+00  0.000000e+00
   outer loop
     vertex  6.000000e+01  9.000000e+00  1.500000e+01
     vertex  6.000000e+01  1.100000e+01  1.500000e+01
     vertex  6.000000e+01  2.900000e+01  3.000000e+01
   endloop
 endfacet
 facet normal  1.000000e+00  0.000000e+00  0.000000e+00
   outer loop
     vertex  6.000000e+01  0.000000e+00  6.000000e+01
     vertex  6.000000e+01  2.900000e+01  3.000000e+01
     vertex  6.000000e+01  4.900000e+01  4.500000e+01
   endloop
 endfacet
 facet normal  1.000000e+00 -0.000000e+00  0.000000e+00
   outer loop
     vertex  6.000000e+01  0.000000e+00  6.000000e+01
     vertex  6.000000e+01  4.900000e+01  4.500000e+01
     vertex  6.000000e+01  6.900000e+01  6.000000e+01
   endloop
 endfacet
 facet normal  1.000000e+00  0.000000e+00  0.000000e+00
   outer loop
     vertex  6.000000e+01  0.000000e+00  6.000000e+01
     vertex  6.000000e+01  0.000000e+00  0.000000e+00
     vertex  6.000000e+01  9.000000e+00  1.500000e+01
   endloop
 endfacet
 facet normal  1.000000e+00  0.000000e+00  0.000000e+00
   outer loop
     vertex  6.000000e+01  0.000000e+00  6.000000e+01
     vertex  6.000000e+01  9.000000e+00  1.500000e+01
     vertex  6.000000e+01  2.900000e+01  3.000000e+01
   endloop
 endfacet
 facet normal  0.000000e+00  0.000000e+00  1.000000e+00
   outer loop
     vertex  0.000000e+00  0.000000e+00  6.000000e+01
     vertex  6.000000e+01  6.900000e+01  6.000000e+01
     vertex  0.000000e+00  6.900000e+01  6.000000e+01
   endloop
 endfacet
 facet normal  0.000000e+00  0.000000e+00  1.000000e+00
   outer loop
     vertex  0.000000e+00  0.000000e+00  6.000000e+01
     vertex  6.000000e+01  0.000000e+00  6.000000e+01
     vertex  6.000000e+01  6.900000e+01  6.000000e+01
   endloop
 endfacet
 facet normal  0.000000e+00  0.000000e+00 -1.000000e+00
   outer loop
     vertex  0.000000e+00  4.000000e+01  1.500000e+01
     vertex  6.000000e+01  2.000000e+01  1.500000e+01
     vertex  0.000000e+00  2.000000e+01  1.500000e+01
   endloop
 endfacet
 facet normal  0.000000e+00  0.000000e+00 -1.000000e+00
   outer loop
     vertex  0.000000e+00  4.000000e+01  1.500000e+01
     vertex  6.000000e+01  4.000000e+01  1.500000e+01
     vertex  6.000000e+01  2.000000e+01  1.500000e+01
   endloop
 endfacet
 facet normal  0.000000e+00  9.063078e-01  4.226183e-01
   outer loop
     vertex  0.000000e+00  6.900000e+01  6.000000e+01
     vertex  6.000000e+01  7.366308e+01  5.000000e+01
     vertex  0.000000e+00  7.366308e+01  5.000000e+01
   endloop
 endfacet
 facet normal -0.000000e+00  9.063078e-01  4.226183e-01
   outer loop
     vertex  0.000000e+00  6.900000e+01  6.000000e+01
     vertex  6.000000e+01  6.900000e+01  6.000000e+01
     vertex  6.000000e+01  7.366308e+01  5.000000e+01
   endloop
 endfacet
 facet normal  0.000000e+00  0.000000e+00  1.000000e+00
   outer loop
     vertex  0.000000e+00  7.366308e+01  5.000000e+01
     vertex  6.000000e+01  7.566308e+01  5.000000e+01
     vertex  0.000000e+00  7.566308e+01  5.000000e+01
   endloop
 endfacet
 facet normal  0.000000e+00  0.000000e+00  1.000000e+00
   outer loop
     vertex  0.000000e+00  7.366308e+01  5.000000e+01
     vertex  6.000000e+01  7.366308e+01  5.000000e+01
     vertex  6.000000e+01  7.566308e+01  5.000000e+01
   endloop
 endfacet
 facet normal  0.000000e+00 -9.063078e-01 -4.226183e-01
   outer loop
     vertex  0.000000e+00  7.566308e+01  5.000000e+01
     vertex  6.000000e+01  7.100000e+01  6.000000e+01
     vertex  0.000000e+00  7.100000e+01  6.000000e+01
   endloop
 endfacet
 facet normal  0.000000e+00 -9.063078e-01 -4.226183e-01
   outer loop
     vertex  0.000000e+00  7.566308e+01  5.000000e+01
     vertex  6.000000e+01  7.566308e+01  5.000000e+01
     vertex  6.000000e+01  7.100000e+01  6.000000e+01
   endloop
 endfacet
 facet normal -0.000000e+00  0.000000e+00  1.000000e+00
   outer loop
     vertex  0.000000e+00  8.000000e+01  6.000000e+01
     vertex  6.000000e+01  7.100000e+01  6.000000e+01
     vertex  6.000000e+01  8.000000e+01  6.000000e+01
   endloop
 endfacet
 facet normal  0.000000e+00  0.000000e+00  1.000000e+00
   outer loop
     vertex  0.000000e+00  7.100000e+01  6.000000e+01
     vertex  6.000000e+01  7.100000e+01  6.000000e+01
     vertex  0.000000e+00  8.000000e+01  6.000000e+01
   endloop
 endfacet
 facet normal  0.000000e+00  1.000000e+00  0.000000e+00
   outer loop
     vertex  0.000000e+00  8.000000e+01  6.000000e+01
     vertex  6.000000e+01  8.000000e+01  4.500000e+01
     vertex  0.000000e+00  8.000000e+01  4.500000e+01
   endloop
 endfacet
 facet normal -0.000000e+00  1.000000e+00  0.000000e+00
   outer loop
     vertex  0.000000e+00  8.000000e+01  6.000000e+01
     vertex  6.000000e+01  8.000000e+01  6.000000e+01
     vertex  6.000000e+01  8.000000e+01  4.500000e+01
   endloop
 endfacet
 facet normal  0.000000e+00  0.000000e+00 -1.000000e+00
   outer loop
     vertex  0.000000e+00  8.000000e+01  4.500000e+01
     vertex  6.000000e+01  6.000000e+01  4.500000e+01
     vertex  0.000000e+00  6.000000e+01  4.500000e+01
   endloop
 endfacet
 facet normal  0.000000e+00  0.000000e+00 -1.000000e+00
   outer loop
     vertex  0.000000e+00  8.000000e+01  4.500000e+01
     vertex  6.000000e+01  8.000000e+01  4.500000e+01
     vertex  6.000000e+01  6.000000e+01  4.500000e+01
   endloop
 endfacet
 facet normal  0.000000e+00  1.000000e+00  0.000000e+00
   outer loop
     vertex  0.000000e+00  6.000000e+01  4.500000e+01
     vertex  6.000000e+01  6.000000e+01  3.000000e+01
     vertex  0.000000e+00  6.000000e+01  3.000000e+01
   endloop
 endfacet
 facet normal -0.000000e+00  1.000000e+00  0.000000e+00
   outer loop
     vertex  0.000000e+00  6.000000e+01  4.500000e+01
     vertex  6.000000e+01  6.000000e+01  4.500000e+01
     vertex  6.000000e+01  6.000000e+01  3.000000e+01
   endloop
 endfacet
 facet normal  0.000000e+00  0.000000e+00 -1.000000e+00
   outer loop
     vertex  0.000000e+00  6.000000e+01  3.000000e+01
     vertex  6.000000e+01  4.000000e+01  3.000000e+01
     vertex  0.000000e+00  4.000000e+01  3.000000e+01
   endloop
 endfacet
 facet normal  0.000000e+00  0.000000e+00 -1.000000e+00
   outer loop
     vertex  0.000000e+00  6.000000e+01  3.000000e+01
     vertex  6.000000e+01  6.000000e+01  3.000000e+01
     vertex  6.000000e+01  4.000000e+01  3.000000e+01
   endloop
 endfacet
 facet normal  0.000000e+00  1.000000e+00  0.000000e+00
   outer loop
     vertex  0.000000e+00  4.000000e+01  3.000000e+01
     vertex  6.000000e+01  4.000000e+01  1.500000e+01
     vertex  0.000000e+00  4.000000e+01  1.500000e+01
   endloop
 endfacet
 facet normal -0.000000e+00  1.000000e+00  0.000000e+00
   outer loop
     vertex  0.000000e+00  4.000000e+01  3.000000e+01
     vertex  6.000000e+01  4.000000e+01  3.000000e+01
     vertex  6.000000e+01  4.000000e+01  1.500000e+01
   endloop
 endfacet
 facet normal  0.000000e+00  0.000000e+00 -1.000000e+00
   outer loop
     vertex  0.000000e+00  5.100000e+01  4.500000e+01
     vertex  6.000000e+01  4.900000e+01  4.500000e+01
     vertex  0.000000e+00  4.900000e+01  4.500000e+01
   endloop
 endfacet
 facet normal  0.000000e+00  0.000000e+00 -1.000000e+00
   outer loop
     vertex  0.000000e+00  5.100000e+01  4.500000e+01
     vertex  6.000000e+01  5.100000e+01  4.500000e+01
     vertex  6.000000e+01  4.900000e+01  4.500000e+01
   endloop
 endfacet
 facet normal  0.000000e+00 -9.063078e-01 -4.226183e-01
   outer loop
     vertex  0.000000e+00  5.566308e+01  3.500000e+01
     vertex  6.000000e+01  5.100000e+01  4.500000e+01
     vertex  0.000000e+00  5.100000e+01  4.500000e+01
   endloop
 endfacet
 facet normal  0.000000e+00 -9.063078e-01 -4.226183e-01
   outer loop
     vertex  0.000000e+00  5.566308e+01  3.500000e+01
     vertex  6.000000e+01  5.566308e+01  3.500000e+01
     vertex  6.000000e+01  5.100000e+01  4.500000e+01
   endloop
 endfacet
 facet normal  0.000000e+00  9.063078e-01  4.226183e-01
   outer loop
     vertex  0.000000e+00  4.900000e+01  4.500000e+01
     vertex  6.000000e+01  5.366308e+01  3.500000e+01
     vertex  0.000000e+00  5.366308e+01  3.500000e+01
   endloop
 endfacet
 facet normal -0.000000e+00  9.063078e-01  4.226183e-01
   outer loop
     vertex  0.000000e+00  4.900000e+01  4.500000e+01
     vertex  6.000000e+01  4.900000e+01  4.500000e+01
     vertex  6.000000e+01  5.366308e+01  3.500000e+01
   endloop
 endfacet
 facet normal  0.000000e+00  0.000000e+00  1.000000e+00
   outer loop
     vertex  0.000000e+00  5.366308e+01  3.500000e+01
     vertex  6.000000e+01  5.566308e+01  3.500000e+01
     vertex  0.000000e+00  5.566308e+01  3.500000e+01
   endloop
 endfacet
 facet normal  0.000000e+00  0.000000e+00  1.000000e+00
   outer loop
     vertex  0.000000e+00  5.366308e+01  3.500000e+01
     vertex  6.000000e+01  5.366308e+01  3.500000e+01
     vertex  6.000000e+01  5.566308e+01  3.500000e+01
   endloop
 endfacet
 facet normal  0.000000e+00  0.000000e+00 -1.000000e+00
   outer loop
     vertex  0.000000e+00  1.100000e+01  1.500000e+01
     vertex  6.000000e+01  9.000000e+00  1.500000e+01
     vertex  0.000000e+00  9.000000e+00  1.500000e+01
   endloop
 endfacet
 facet normal  0.000000e+00  0.000000e+00 -1.000000e+00
   outer loop
     vertex  0.000000e+00  1.100000e+01  1.500000e+01
     vertex  6.000000e+01  1.100000e+01  1.500000e+01
     vertex  6.000000e+01  9.000000e+00  1.500000e+01
   endloop
 endfacet
 facet normal  0.000000e+00 -9.063078e-01 -4.226183e-01
   outer loop
     vertex  0.000000e+00  1.566308e+01  5.000000e+00
     vertex  6.000000e+01  1.100000e+01  1.500000e+01
     vertex  0.000000e+00  1.100000e+01  1.500000e+01
   endloop
 endfacet
 facet normal  0.000000e+00 -9.063078e-01 -4.226183e-01
   outer loop
     vertex  0.000000e+00  1.566308e+01  5.000000e+00
     vertex  6.000000e+01  1.566308e+01  5.000000e+00
     vertex  6.000000e+01  1.100000e+01  1.500000e+01
   endloop
 endfacet
 facet normal  0.000000e+00  9.063078e-01  4.226183e-01
   outer loop
     vertex  0.000000e+00  9.000000e+00  1.500000e+01
     vertex  6.000000e+01  1.366308e+01  5.000000e+00
     vertex  0.000000e+00  1.366308e+01  5.000000e+00
   endloop
 endfacet
 facet normal -0.000000e+00  9.063078e-01  4.226183e-01
   outer loop
     vertex  0.000000e+00  9.000000e+00  1.500000e+01
     vertex  6.000000e+01  9.000000e+00  1.500000e+01
     vertex  6.000000e+01  1.366308e+01  5.000000e+00
   endloop
 endfacet
 facet normal  0.000000e+00  0.000000e+00  1.000000e+00
   outer loop
     vertex  0.000000e+00  1.366308e+01  5.000000e+00
     vertex  6.000000e+01  1.566308e+01  5.000000e+00
     vertex  0.000000e+00  1.566308e+01  5.000000e+00
   endloop
 endfacet
 facet normal  0.000000e+00  0.000000e+00  1.000000e+00
   outer loop
     vertex  0.000000e+00  1.366308e+01  5.000000e+00
     vertex  6.000000e+01  1.366308e+01  5.000000e+00
     vertex  6.000000e+01  1.566308e+01  5.000000e+00
   endloop
 endfacet
 facet normal  0.000000e+00  0.000000e+00 -1.000000e+00
   outer loop
     vertex  0.000000e+00  3.100000e+01  3.000000e+01
     vertex  6.000000e+01  2.900000e+01  3.000000e+01
     vertex  0.000000e+00  2.900000e+01  3.000000e+01
   endloop
 endfacet
 facet normal  0.000000e+00  0.000000e+00 -1.000000e+00
   outer loop
     vertex  0.000000e+00  3.100000e+01  3.000000e+01
     vertex  6.000000e+01  3.100000e+01  3.000000e+01
     vertex  6.000000e+01  2.900000e+01  3.000000e+01
   endloop
 endfacet
 facet normal  0.000000e+00 -9.063078e-01 -4.226183e-01
   outer loop
     vertex  0.000000e+00  3.566308e+01  2.000000e+01
     vertex  6.000000e+01  3.100000e+01  3.000000e+01
     vertex  0.000000e+00  3.100000e+01  3.000000e+01
   endloop
 endfacet
 facet normal  0.000000e+00 -9.063078e-01 -4.226183e-01
   outer loop
     vertex  0.000000e+00  3.566308e+01  2.000000e+01
     vertex  6.000000e+01  3.566308e+01  2.000000e+01
     vertex  6.000000e+01  3.100000e+01  3.000000e+01
   endloop
 endfacet
 facet normal  0.000000e+00  9.063078e-01  4.226183e-01
   outer loop
     vertex  0.000000e+00  2.900000e+01  3.000000e+01
     vertex  6.000000e+01  3.366308e+01  2.000000e+01
     vertex  0.000000e+00  3.366308e+01  2.000000e+01
   endloop
 endfacet
 facet normal -0.000000e+00  9.063078e-01  4.226183e-01
   outer loop
     vertex  0.000000e+00  2.900000e+01  3.000000e+01
     vertex  6.000000e+01  2.900000e+01  3.000000e+01
     vertex  6.000000e+01  3.366308e+01  2.000000e+01
   endloop
 endfacet
 facet normal  0.000000e+00  0.000000e+00  1.000000e+00
   outer loop
     vertex  0.000000e+00  3.366308e+01  2.000000e+01
     vertex  6.000000e+01  3.566308e+01  2.000000e+01
     vertex  0.000000e+00  3.566308e+01  2.000000e+01
   endloop
 endfacet
 facet normal  0.000000e+00  0.000000e+00  1.000000e+00
   outer loop
     vertex  0.000000e+00  3.366308e+01  2.000000e+01
     vertex  6.000000e+01  3.366308e+01  2.000000e+01
     vertex  6.000000e+01  3.566308e+01  2.000000e+01
   endloop
 endfacet
endsolid
