solid model
  facet normal 0 0 0
    outer loop
      vertex -8.0000 -8.0000 0.0000
      vertex 8.0000 -8.0000 0.0000
      vertex 8.0000 8.0000 0.0000
    endloop
  endfacet
  facet normal 0 0 0
    outer loop
      vertex -8.0000 -8.0000 0.0000
      vertex 8.0000 8.0000 0.0000
      vertex -8.0000 8.0000 0.0000
    endloop
  endfacet
  facet normal 0 0 0
    outer loop
      vertex -8.0000 -8.0000 16.0000
      vertex -8.0000 8.0000 16.0000
      vertex 8.0000 8.0000 16.0000
    endloop
  endfacet
  facet normal 0 0 0
    outer loop
      vertex -8.0000 -8.0000 16.0000
      vertex 8.0000 8.0000 16.0000
      vertex 8.0000 -8.0000 16.0000
    endloop
  endfacet
  facet normal 0 0 0
    outer loop
      vertex -8.0000 -8.0000 0.0000
      vertex -8.0000 -8.0000 16.0000
      vertex 8.0000 -8.0000 16.0000
    endloop
  endfacet
  facet normal 0 0 0
    outer loop
      vertex -8.0000 -8.0000 0.0000
      vertex 8.0000 -8.0000 16.0000
      vertex 8.0000 -8.0000 0.0000
    endloop
  endfacet
  facet normal 0 0 0
    outer loop
      vertex 8.0000 -8.0000 0.0000
      vertex 8.0000 -8.0000 16.0000
      vertex 8.0000 8.0000 16.0000
    endloop
  endfacet
  facet normal 0 0 0
    outer loop
      vertex 8.0000 -8.0000 0.0000
      vertex 8.0000 8.0000 16.0000
      vertex 8.0000 8.0000 0.0000
    endloop
  endfacet
  facet normal 0 0 0
    outer loop
      vertex 8.0000 8.0000 0.0000
      vertex 8.0000 8.0000 16.0000
      vertex -8.0000 8.0000 16.0000
    endloop
  endfacet
  facet normal 0 0 0
    outer loop
      vertex 8.0000 8.0000 0.0000
      vertex -8.0000 8.0000 16.0000
      vertex -8.0000 8.0000 0.0000
    endloop
  endfacet
  facet normal 0 0 0
    outer loop
      vertex -8.0000 8.0000 0.0000
      vertex -8.0000 8.0000 16.0000
      vertex -8.0000 -8.0000 16.0000
    endloop
  endfacet
  facet normal 0 0 0
    outer loop
      vertex -8.0000 8.0000 0.0000
      vertex -8.0000 -8.0000 16.0000
      vertex -8.0000 -8.0000 0.0000
    endloop
  endfacet
endsolid model
