solid model
  facet normal 0 0 0
    outer loop
      vertex -0.0000 0.0000 4.0000
      vertex 16.6733 3.3165 4.0000
      vertex 24.0000 0.0000 4.0000
    endloop
  endfacet
  facet normal 0 0 0
    outer loop
      vertex -0.0000 0.0000 -4.0000
      vertex 24.0000 0.0000 -4.0000
      vertex 16.6733 3.3165 -4.0000
    endloop
  endfacet
  facet normal 0 0 0
    outer loop
      vertex 24.0000 0.0000 4.0000
      vertex 16.6733 3.3165 4.0000
      vertex 16.6733 3.3165 -4.0000
    endloop
  endfacet
  facet normal 0 0 0
    outer loop
      vertex 24.0000 0.0000 4.0000
      vertex 16.6733 3.3165 -4.0000
      vertex 24.0000 0.0000 -4.0000
    endloop
  endfacet
  facet normal 0 0 0
    outer loop
      vertex -0.0000 0.0000 4.0000
      vertex 22.1731 9.1844 4.0000
      vertex 16.6733 3.3165 4.0000
    endloop
  endfacet
  facet normal 0 0 0
    outer loop
      vertex -0.0000 0.0000 -4.0000
      vertex 16.6733 3.3165 -4.0000
      vertex 22.1731 9.1844 -4.0000
    endloop
  endfacet
  facet normal 0 0 0
    outer loop
      vertex 16.6733 3.3165 4.0000
      vertex 22.1731 9.1844 4.0000
      vertex 22.1731 9.1844 -4.0000
    endloop
  endfacet
  facet normal 0 0 0
    outer loop
      vertex 16.6733 3.3165 4.0000
      vertex 22.1731 9.1844 -4.0000
      vertex 16.6733 3.3165 -4.0000
    endloop
  endfacet
  facet normal 0 0 0
    outer loop
      vertex -0.0000 0.0000 4.0000
      vertex 14.1350 9.4447 4.0000
      vertex 22.1731 9.1844 4.0000
    endloop
  endfacet
  facet normal 0 0 0
    outer loop
      vertex -0.0000 0.0000 -4.0000
      vertex 22.1731 9.1844 -4.0000
      vertex 14.1350 9.4447 -4.0000
    endloop
  endfacet
  facet normal 0 0 0
    outer loop
      vertex 22.1731 9.1844 4.0000
      vertex 14.1350 9.4447 4.0000
      vertex 14.1350 9.4447 -4.0000
    endloop
  endfacet
  facet normal 0 0 0
    outer loop
      vertex 22.1731 9.1844 4.0000
      vertex 14.1350 9.4447 -4.0000
      vertex 22.1731 9.1844 -4.0000
    endloop
  endfacet
  facet normal 0 0 0
    outer loop
      vertex -0.0000 0.0000 4.0000
      vertex 16.9706 16.9706 4.0000
      vertex 14.1350 9.4447 4.0000
    endloop
  endfacet
  facet normal 0 0 0
    outer loop
      vertex -0.0000 0.0000 -4.0000
      vertex 14.1350 9.4447 -4.0000
      vertex 16.9706 16.9706 -4.0000
    endloop
  endfacet
  facet normal 0 0 0
    outer loop
      vertex 14.1350 9.4447 4.0000
      vertex 16.9706 16.9706 4.0000
      vertex 16.9706 16.9706 -4.0000
    endloop
  endfacet
  facet normal 0 0 0
    outer loop
      vertex 14.1350 9.4447 4.0000
      vertex 16.9706 16.9706 -4.0000
      vertex 14.1350 9.4447 -4.0000
    endloop
  endfacet
  facet normal 0 0 0
    outer loop
      vertex -0.0000 0.0000 4.0000
      vertex 9.4447 14.1350 4.0000
      vertex 16.9706 16.9706 4.0000
    endloop
  endfacet
  facet normal 0 0 0
    outer loop
      vertex -0.0000 0.0000 -4.0000
      vertex 16.9706 16.9706 -4.0000
      vertex 9.4447 14.1350 -4.0000
    endloop
  endfacet
  facet normal 0 0 0
    outer loop
      vertex 16.9706 16.9706 4.0000
      vertex 9.4447 14.1350 4.0000
      vertex 9.4447 14.1350 -4.0000
    endloop
  endfacet
  facet normal 0 0 0
    outer loop
      vertex 16.9706 16.9706 4.0000
      vertex 9.4447 14.1350 -4.0000
      vertex 16.9706 16.9706 -4.0000
    endloop
  endfacet
  facet normal 0 0 0
    outer loop
      vertex -0.0000 0.0000 4.0000
      vertex 9.1844 22.1731 4.0000
      vertex 9.4447 14.1350 4.0000
    endloop
  endfacet
  facet normal 0 0 0
    outer loop
      vertex -0.0000 0.0000 -4.0000
      vertex 9.4447 14.1350 -4.0000
      vertex 9.1844 22.1731 -4.0000
    endloop
  endfacet
  facet normal 0 0 0
    outer loop
      vertex 9.4447 14.1350 4.0000
      vertex 9.1844 22.1731 4.0000
      vertex 9.1844 22.1731 -4.0000
    endloop
  endfacet
  facet normal 0 0 0
    outer loop
      vertex 9.4447 14.1350 4.0000
      vertex 9.1844 22.1731 -4.0000
      vertex 9.4447 14.1350 -4.0000
    endloop
  endfacet
  facet normal 0 0 0
    outer loop
      vertex -0.0000 0.0000 4.0000
      vertex 3.3165 16.6733 4.0000
      vertex 9.1844 22.1731 4.0000
    endloop
  endfacet
  facet normal 0 0 0
    outer loop
      vertex -0.0000 0.0000 -4.0000
      vertex 9.1844 22.1731 -4.0000
      vertex 3.3165 16.6733 -4.0000
    endloop
  endfacet
  facet normal 0 0 0
    outer loop
      vertex 9.1844 22.1731 4.0000
      vertex 3.3165 16.6733 4.0000
      vertex 3.3165 16.6733 -4.0000
    endloop
  endfacet
  facet normal 0 0 0
    outer loop
      vertex 9.1844 22.1731 4.0000
      vertex 3.3165 16.6733 -4.0000
      vertex 9.1844 22.1731 -4.0000
    endloop
  endfacet
  facet normal 0 0 0
    outer loop
      vertex -0.0000 0.0000 4.0000
      vertex 0.0000 24.0000 4.0000
      vertex 3.3165 16.6733 4.0000
    endloop
  endfacet
  facet normal 0 0 0
    outer loop
      vertex -0.0000 0.0000 -4.0000
      vertex 3.3165 16.6733 -4.0000
      vertex 0.0000 24.0000 -4.0000
    endloop
  endfacet
  facet normal 0 0 0
    outer loop
      vertex 3.3165 16.6733 4.0000
      vertex 0.0000 24.0000 4.0000
      vertex 0.0000 24.0000 -4.0000
    endloop
  endfacet
  facet normal 0 0 0
    outer loop
      vertex 3.3165 16.6733 4.0000
      vertex 0.0000 24.0000 -4.0000
      vertex 3.3165 16.6733 -4.0000
    endloop
  endfacet
  facet normal 0 0 0
    outer loop
      vertex -0.0000 0.0000 4.0000
      vertex -3.3165 16.6733 4.0000
      vertex 0.0000 24.0000 4.0000
    endloop
  endfacet
  facet normal 0 0 0
    outer loop
      vertex -0.0000 0.0000 -4.0000
      vertex 0.0000 24.0000 -4.0000
      vertex -3.3165 16.6733 -4.0000
    endloop
  endfacet
  facet normal 0 0 0
    outer loop
      vertex 0.0000 24.0000 4.0000
      vertex -3.3165 16.6733 4.0000
      vertex -3.3165 16.6733 -4.0000
    endloop
  endfacet
  facet normal 0 0 0
    outer loop
      vertex 0.0000 24.0000 4.0000
      vertex -3.3165 16.6733 -4.0000
      vertex 0.0000 24.0000 -4.0000
    endloop
  endfacet
  facet normal 0 0 0
    outer loop
      vertex -0.0000 0.0000 4.0000
      vertex -9.1844 22.1731 4.0000
      vertex -3.3165 16.6733 4.0000
    endloop
  endfacet
  facet normal 0 0 0
    outer loop
      vertex -0.0000 0.0000 -4.0000
      vertex -3.3165 16.6733 -4.0000
      vertex -9.1844 22.1731 -4.0000
    endloop
  endfacet
  facet normal 0 0 0
    outer loop
      vertex -3.3165 16.6733 4.0000
      vertex -9.1844 22.1731 4.0000
      vertex -9.1844 22.1731 -4.0000
    endloop
  endfacet
  facet normal 0 0 0
    outer loop
      vertex -3.3165 16.6733 4.0000
      vertex -9.1844 22.1731 -4.0000
      vertex -3.3165 16.6733 -4.0000
    endloop
  endfacet
  facet normal 0 0 0
    outer loop
      vertex -0.0000 0.0000 4.0000
      vertex -9.4447 14.1350 4.0000
      vertex -9.1844 22.1731 4.0000
    endloop
  endfacet
  facet normal 0 0 0
    outer loop
      vertex -0.0000 0.0000 -4.0000
      vertex -9.1844 22.1731 -4.0000
      vertex -9.4447 14.1350 -4.0000
    endloop
  endfacet
  facet normal 0 0 0
    outer loop
      vertex -9.1844 22.1731 4.0000
      vertex -9.4447 14.1350 4.0000
      vertex -9.4447 14.1350 -4.0000
    endloop
  endfacet
  facet normal 0 0 0
    outer loop
      vertex -9.1844 22.1731 4.0000
      vertex -9.4447 14.1350 -4.0000
      vertex -9.1844 22.1731 -4.0000
    endloop
  endfacet
  facet normal 0 0 0
    outer loop
      vertex -0.0000 0.0000 4.0000
      vertex -16.9706 16.9706 4.0000
      vertex -9.4447 14.1350 4.0000
    endloop
  endfacet
  facet normal 0 0 0
    outer loop
      vertex -0.0000 0.0000 -4.0000
      vertex -9.4447 14.1350 -4.0000
      vertex -16.9706 16.9706 -4.0000
    endloop
  endfacet
  facet normal 0 0 0
    outer loop
      vertex -9.4447 14.1350 4.0000
      vertex -16.9706 16.9706 4.0000
      vertex -16.9706 16.9706 -4.0000
    endloop
  endfacet
  facet normal 0 0 0
    outer loop
      vertex -9.4447 14.1350 4.0000
      vertex -16.9706 16.9706 -4.0000
      vertex -9.4447 14.1350 -4.0000
    endloop
  endfacet
  facet normal 0 0 0
    outer loop
      vertex -0.0000 0.0000 4.0000
      vertex -14.1350 9.4447 4.0000
      vertex -16.9706 16.9706 4.0000
    endloop
  endfacet
  facet normal 0 0 0
    outer loop
      vertex -0.0000 0.0000 -4.0000
      vertex -16.9706 16.9706 -4.0000
      vertex -14.1350 9.4447 -4.0000
    endloop
  endfacet
  facet normal 0 0 0
    outer loop
      vertex -16.9706 16.9706 4.0000
      vertex -14.1350 9.4447 4.0000
      vertex -14.1350 9.4447 -4.0000
    endloop
  endfacet
  facet normal 0 0 0
    outer loop
      vertex -16.9706 16.9706 4.0000
      vertex -14.1350 9.4447 -4.0000
      vertex -16.9706 16.9706 -4.0000
    endloop
  endfacet
  facet normal 0 0 0
    outer loop
      vertex -0.0000 0.0000 4.0000
      vertex -22.1731 9.1844 4.0000
      vertex -14.1350 9.4447 4.0000
    endloop
  endfacet
  facet normal 0 0 0
    outer loop
      vertex -0.0000 0.0000 -4.0000
      vertex -14.1350 9.4447 -4.0000
      vertex -22.1731 9.1844 -4.0000
    endloop
  endfacet
  facet normal 0 0 0
    outer loop
      vertex -14.1350 9.4447 4.0000
      vertex -22.1731 9.1844 4.0000
      vertex -22.1731 9.1844 -4.0000
    endloop
  endfacet
  facet normal 0 0 0
    outer loop
      vertex -14.1350 9.4447 4.0000
      vertex -22.1731 9.1844 -4.0000
      vertex -14.1350 9.4447 -4.0000
    endloop
  endfacet
  facet normal 0 0 0
    outer loop
      vertex -0.0000 0.0000 4.0000
      vertex -16.6733 3.3165 4.0000
      vertex -22.1731 9.1844 4.0000
    endloop
  endfacet
  facet normal 0 0 0
    outer loop
      vertex -0.0000 0.0000 -4.0000
      vertex -22.1731 9.1844 -4.0000
      vertex -16.6733 3.3165 -4.0000
    endloop
  endfacet
  facet normal 0 0 0
    outer loop
      vertex -22.1731 9.1844 4.0000
      vertex -16.6733 3.3165 4.0000
      vertex -16.6733 3.3165 -4.0000
    endloop
  endfacet
  facet normal 0 0 0
    outer loop
      vertex -22.1731 9.1844 4.0000
      vertex -16.6733 3.3165 -4.0000
      vertex -22.1731 9.1844 -4.0000
    endloop
  endfacet
  facet normal 0 0 0
    outer loop
      vertex -0.0000 0.0000 4.0000
      vertex -24.0000 0.0000 4.0000
      vertex -16.6733 3.3165 4.0000
    endloop
  endfacet
  facet normal 0 0 0
    outer loop
      vertex -0.0000 0.0000 -4.0000
      vertex -16.6733 3.3165 -4.0000
      vertex -24.0000 0.0000 -4.0000
    endloop
  endfacet
  facet normal 0 0 0
    outer loop
      vertex -16.6733 3.3165 4.0000
      vertex -24.0000 0.0000 4.0000
      vertex -24.0000 0.0000 -4.0000
    endloop
  endfacet
  facet normal 0 0 0
    outer loop
      vertex -16.6733 3.3165 4.0000
      vertex -24.0000 0.0000 -4.0000
      vertex -16.6733 3.3165 -4.0000
    endloop
  endfacet
  facet normal 0 0 0
    outer loop
      vertex -0.0000 0.0000 4.0000
      vertex -16.6733 -3.3165 4.0000
      vertex -24.0000 0.0000 4.0000
    endloop
  endfacet
  facet normal 0 0 0
    outer loop
      vertex -0.0000 0.0000 -4.0000
      vertex -24.0000 0.0000 -4.0000
      vertex -16.6733 -3.3165 -4.0000
    endloop
  endfacet
  facet normal 0 0 0
    outer loop
      vertex -24.0000 0.0000 4.0000
      vertex -16.6733 -3.3165 4.0000
      vertex -16.6733 -3.3165 -4.0000
    endloop
  endfacet
  facet normal 0 0 0
    outer loop
      vertex -24.0000 0.0000 4.0000
      vertex -16.6733 -3.3165 -4.0000
      vertex -24.0000 0.0000 -4.0000
    endloop
  endfacet
  facet normal 0 0 0
    outer loop
      vertex -0.0000 0.0000 4.0000
      vertex -22.1731 -9.1844 4.0000
      vertex -16.6733 -3.3165 4.0000
    endloop
  endfacet
  facet normal 0 0 0
    outer loop
      vertex -0.0000 0.0000 -4.0000
      vertex -16.6733 -3.3165 -4.0000
      vertex -22.1731 -9.1844 -4.0000
    endloop
  endfacet
  facet normal 0 0 0
    outer loop
      vertex -16.6733 -3.3165 4.0000
      vertex -22.1731 -9.1844 4.0000
      vertex -22.1731 -9.1844 -4.0000
    endloop
  endfacet
  facet normal 0 0 0
    outer loop
      vertex -16.6733 -3.3165 4.0000
      vertex -22.1731 -9.1844 -4.0000
      vertex -16.6733 -3.3165 -4.0000
    endloop
  endfacet
  facet normal 0 0 0
    outer loop
      vertex -0.0000 0.0000 4.0000
      vertex -14.1350 -9.4447 4.0000
      vertex -22.1731 -9.1844 4.0000
    endloop
  endfacet
  facet normal 0 0 0
    outer loop
      vertex -0.0000 0.0000 -4.0000
      vertex -22.1731 -9.1844 -4.0000
      vertex -14.1350 -9.4447 -4.0000
    endloop
  endfacet
  facet normal 0 0 0
    outer loop
      vertex -22.1731 -9.1844 4.0000
      vertex -14.1350 -9.4447 4.0000
      vertex -14.1350 -9.4447 -4.0000
    endloop
  endfacet
  facet normal 0 0 0
    outer loop
      vertex -22.1731 -9.1844 4.0000
      vertex -14.1350 -9.4447 -4.0000
      vertex -22.1731 -9.1844 -4.0000
    endloop
  endfacet
  facet normal 0 0 0
    outer loop
      vertex -0.0000 0.0000 4.0000
      vertex -16.9706 -16.9706 4.0000
      vertex -14.1350 -9.4447 4.0000
    endloop
  endfacet
  facet normal 0 0 0
    outer loop
      vertex -0.0000 0.0000 -4.0000
      vertex -14.1350 -9.4447 -4.0000
      vertex -16.9706 -16.9706 -4.0000
    endloop
  endfacet
  facet normal 0 0 0
    outer loop
      vertex -14.1350 -9.4447 4.0000
      vertex -16.9706 -16.9706 4.0000
      vertex -16.9706 -16.9706 -4.0000
    endloop
  endfacet
  facet normal 0 0 0
    outer loop
      vertex -14.1350 -9.4447 4.0000
      vertex -16.9706 -16.9706 -4.0000
      vertex -14.1350 -9.4447 -4.0000
    endloop
  endfacet
  facet normal 0 0 0
    outer loop
      vertex -0.0000 0.0000 4.0000
      vertex -9.4447 -14.1350 4.0000
      vertex -16.9706 -16.9706 4.0000
    endloop
  endfacet
  facet normal 0 0 0
    outer loop
      vertex -0.0000 0.0000 -4.0000
      vertex -16.9706 -16.9706 -4.0000
      vertex -9.4447 -14.1350 -4.0000
    endloop
  endfacet
  facet normal 0 0 0
    outer loop
      vertex -16.9706 -16.9706 4.0000
      vertex -9.4447 -14.1350 4.0000
      vertex -9.4447 -14.1350 -4.0000
    endloop
  endfacet
  facet normal 0 0 0
    outer loop
      vertex -16.9706 -16.9706 4.0000
      vertex -9.4447 -14.1350 -4.0000
      vertex -16.9706 -16.9706 -4.0000
    endloop
  endfacet
  facet normal 0 0 0
    outer loop
      vertex -0.0000 0.0000 4.0000
      vertex -9.1844 -22.1731 4.0000
      vertex -9.4447 -14.1350 4.0000
    endloop
  endfacet
  facet normal 0 0 0
    outer loop
      vertex -0.0000 0.0000 -4.0000
      vertex -9.4447 -14.1350 -4.0000
      vertex -9.1844 -22.1731 -4.0000
    endloop
  endfacet
  facet normal 0 0 0
    outer loop
      vertex -9.4447 -14.1350 4.0000
      vertex -9.1844 -22.1731 4.0000
      vertex -9.1844 -22.1731 -4.0000
    endloop
  endfacet
  facet normal 0 0 0
    outer loop
      vertex -9.4447 -14.1350 4.0000
      vertex -9.1844 -22.1731 -4.0000
      vertex -9.4447 -14.1350 -4.0000
    endloop
  endfacet
  facet normal 0 0 0
    outer loop
      vertex -0.0000 0.0000 4.0000
      vertex -3.3165 -16.6733 4.0000
      vertex -9.1844 -22.1731 4.0000
    endloop
  endfacet
  facet normal 0 0 0
    outer loop
      vertex -0.0000 0.0000 -4.0000
      vertex -9.1844 -22.1731 -4.0000
      vertex -3.3165 -16.6733 -4.0000
    endloop
  endfacet
  facet normal 0 0 0
    outer loop
      vertex -9.1844 -22.1731 4.0000
      vertex -3.3165 -16.6733 4.0000
      vertex -3.3165 -16.6733 -4.0000
    endloop
  endfacet
  facet normal 0 0 0
    outer loop
      vertex -9.1844 -22.1731 4.0000
      vertex -3.3165 -16.6733 -4.0000
      vertex -9.1844 -22.1731 -4.0000
    endloop
  endfacet
  facet normal 0 0 0
    outer loop
      vertex -0.0000 0.0000 4.0000
      vertex -0.0000 -24.0000 4.0000
      vertex -3.3165 -16.6733 4.0000
    endloop
  endfacet
  facet normal 0 0 0
    outer loop
      vertex -0.0000 0.0000 -4.0000
      vertex -3.3165 -16.6733 -4.0000
      vertex -0.0000 -24.0000 -4.0000
    endloop
  endfacet
  facet normal 0 0 0
    outer loop
      vertex -3.3165 -16.6733 4.0000
      vertex -0.0000 -24.0000 4.0000
      vertex -0.0000 -24.0000 -4.0000
    endloop
  endfacet
  facet normal 0 0 0
    outer loop
      vertex -3.3165 -16.6733 4.0000
      vertex -0.0000 -24.0000 -4.0000
      vertex -3.3165 -16.6733 -4.0000
    endloop
  endfacet
  facet normal 0 0 0
    outer loop
      vertex -0.0000 0.0000 4.0000
      vertex 3.3165 -16.6733 4.0000
      vertex -0.0000 -24.0000 4.0000
    endloop
  endfacet
  facet normal 0 0 0
    outer loop
      vertex -0.0000 0.0000 -4.0000
      vertex -0.0000 -24.0000 -4.0000
      vertex 3.3165 -16.6733 -4.0000
    endloop
  endfacet
  facet normal 0 0 0
    outer loop
      vertex -0.0000 -24.0000 4.0000
      vertex 3.3165 -16.6733 4.0000
      vertex 3.3165 -16.6733 -4.0000
    endloop
  endfacet
  facet normal 0 0 0
    outer loop
      vertex -0.0000 -24.0000 4.0000
      vertex 3.3165 -16.6733 -4.0000
      vertex -0.0000 -24.0000 -4.0000
    endloop
  endfacet
  facet normal 0 0 0
    outer loop
      vertex -0.0000 0.0000 4.0000
      vertex 9.1844 -22.1731 4.0000
      vertex 3.3165 -16.6733 4.0000
    endloop
  endfacet
  facet normal 0 0 0
    outer loop
      vertex -0.0000 0.0000 -4.0000
      vertex 3.3165 -16.6733 -4.0000
      vertex 9.1844 -22.1731 -4.0000
    endloop
  endfacet
  facet normal 0 0 0
    outer loop
      vertex 3.3165 -16.6733 4.0000
      vertex 9.1844 -22.1731 4.0000
      vertex 9.1844 -22.1731 -4.0000
    endloop
  endfacet
  facet normal 0 0 0
    outer loop
      vertex 3.3165 -16.6733 4.0000
      vertex 9.1844 -22.1731 -4.0000
      vertex 3.3165 -16.6733 -4.0000
    endloop
  endfacet
  facet normal 0 0 0
    outer loop
      vertex -0.0000 0.0000 4.0000
      vertex 9.4447 -14.1350 4.0000
      vertex 9.1844 -22.1731 4.0000
    endloop
  endfacet
  facet normal 0 0 0
    outer loop
      vertex -0.0000 0.0000 -4.0000
      vertex 9.1844 -22.1731 -4.0000
      vertex 9.4447 -14.1350 -4.0000
    endloop
  endfacet
  facet normal 0 0 0
    outer loop
      vertex 9.1844 -22.1731 4.0000
      vertex 9.4447 -14.1350 4.0000
      vertex 9.4447 -14.1350 -4.0000
    endloop
  endfacet
  facet normal 0 0 0
    outer loop
      vertex 9.1844 -22.1731 4.0000
      vertex 9.4447 -14.1350 -4.0000
      vertex 9.1844 -22.1731 -4.0000
    endloop
  endfacet
  facet normal 0 0 0
    outer loop
      vertex -0.0000 0.0000 4.0000
      vertex 16.9706 -16.9706 4.0000
      vertex 9.4447 -14.1350 4.0000
    endloop
  endfacet
  facet normal 0 0 0
    outer loop
      vertex -0.0000 0.0000 -4.0000
      vertex 9.4447 -14.1350 -4.0000
      vertex 16.9706 -16.9706 -4.0000
    endloop
  endfacet
  facet normal 0 0 0
    outer loop
      vertex 9.4447 -14.1350 4.0000
      vertex 16.9706 -16.9706 4.0000
      vertex 16.9706 -16.9706 -4.0000
    endloop
  endfacet
  facet normal 0 0 0
    outer loop
      vertex 9.4447 -14.1350 4.0000
      vertex 16.9706 -16.9706 -4.0000
      vertex 9.4447 -14.1350 -4.0000
    endloop
  endfacet
  facet normal 0 0 0
    outer loop
      vertex -0.0000 0.0000 4.0000
      vertex 14.1350 -9.4447 4.0000
      vertex 16.9706 -16.9706 4.0000
    endloop
  endfacet
  facet normal 0 0 0
    outer loop
      vertex -0.0000 0.0000 -4.0000
      vertex 16.9706 -16.9706 -4.0000
      vertex 14.1350 -9.4447 -4.0000
    endloop
  endfacet
  facet normal 0 0 0
    outer loop
      vertex 16.9706 -16.9706 4.0000
      vertex 14.1350 -9.4447 4.0000
      vertex 14.1350 -9.4447 -4.0000
    endloop
  endfacet
  facet normal 0 0 0
    outer loop
      vertex 16.9706 -16.9706 4.0000
      vertex 14.1350 -9.4447 -4.0000
      vertex 16.9706 -16.9706 -4.0000
    endloop
  endfacet
  facet normal 0 0 0
    outer loop
      vertex -0.0000 0.0000 4.0000
      vertex 22.1731 -9.1844 4.0000
      vertex 14.1350 -9.4447 4.0000
    endloop
  endfacet
  facet normal 0 0 0
    outer loop
      vertex -0.0000 0.0000 -4.0000
      vertex 14.1350 -9.4447 -4.0000
      vertex 22.1731 -9.1844 -4.0000
    endloop
  endfacet
  facet normal 0 0 0
    outer loop
      vertex 14.1350 -9.4447 4.0000
      vertex 22.1731 -9.1844 4.0000
      vertex 22.1731 -9.1844 -4.0000
    endloop
  endfacet
  facet normal 0 0 0
    outer loop
      vertex 14.1350 -9.4447 4.0000
      vertex 22.1731 -9.1844 -4.0000
      vertex 14.1350 -9.4447 -4.0000
    endloop
  endfacet
  facet normal 0 0 0
    outer loop
      vertex -0.0000 0.0000 4.0000
      vertex 16.6733 -3.3165 4.0000
      vertex 22.1731 -9.1844 4.0000
    endloop
  endfacet
  facet normal 0 0 0
    outer loop
      vertex -0.0000 0.0000 -4.0000
      vertex 22.1731 -9.1844 -4.0000
      vertex 16.6733 -3.3165 -4.0000
    endloop
  endfacet
  facet normal 0 0 0
    outer loop
      vertex 22.1731 -9.1844 4.0000
      vertex 16.6733 -3.3165 4.0000
      vertex 16.6733 -3.3165 -4.0000
    endloop
  endfacet
  facet normal 0 0 0
    outer loop
      vertex 22.1731 -9.1844 4.0000
      vertex 16.6733 -3.3165 -4.0000
      vertex 22.1731 -9.1844 -4.0000
    endloop
  endfacet
  facet normal 0 0 0
    outer loop
      vertex -0.0000 0.0000 4.0000
      vertex 24.0000 0.0000 4.0000
      vertex 16.6733 -3.3165 4.0000
    endloop
  endfacet
  facet normal 0 0 0
    outer loop
      vertex -0.0000 0.0000 -4.0000
      vertex 16.6733 -3.3165 -4.0000
      vertex 24.0000 0.0000 -4.0000
    endloop
  endfacet
  facet normal 0 0 0
    outer loop
      vertex 16.6733 -3.3165 4.0000
      vertex 24.0000 0.0000 4.0000
      vertex 24.0000 0.0000 -4.0000
    endloop
  endfacet
  facet normal 0 0 0
    outer loop
      vertex 16.6733 -3.3165 4.0000
      vertex 24.0000 0.0000 -4.0000
      vertex 16.6733 -3.3165 -4.0000
    endloop
  endfacet
endsolid model
